<?xml version="1.0" encoding="utf-8" standalone="no"?>
<!DOCTYPE svg PUBLIC "-//W3C//DTD SVG 1.1//EN"
  "http://www.w3.org/Graphics/SVG/1.1/DTD/svg11.dtd">
<svg xmlns:xlink="http://www.w3.org/1999/xlink" width="1152pt" height="864pt" viewBox="0 0 1152 864" xmlns="http://www.w3.org/2000/svg" version="1.1">
 <metadata>
  <rdf:RDF xmlns:dc="http://purl.org/dc/elements/1.1/" xmlns:cc="http://creativecommons.org/ns#" xmlns:rdf="http://www.w3.org/1999/02/22-rdf-syntax-ns#">
   <cc:Work>
    <dc:type rdf:resource="http://purl.org/dc/dcmitype/StillImage"/>
    <dc:date>2023-10-06T02:31:18.101445</dc:date>
    <dc:format>image/svg+xml</dc:format>
    <dc:creator>
     <cc:Agent>
      <dc:title>Matplotlib v3.7.3, https://matplotlib.org/</dc:title>
     </cc:Agent>
    </dc:creator>
   </cc:Work>
  </rdf:RDF>
 </metadata>
 <defs>
  <style type="text/css">*{stroke-linejoin: round; stroke-linecap: butt}</style>
 </defs>
 <g id="figure_1">
  <g id="patch_1">
   <path d="M 0 864 
L 1152 864 
L 1152 0 
L 0 0 
z
" style="fill: #ffffff"/>
  </g>
  <g id="axes_1">
   <g id="patch_2">
    <path d="M 144 768.96 
L 1036.8 768.96 
L 1036.8 103.68 
L 144 103.68 
z
" style="fill: #ffffff"/>
   </g>
   <g id="matplotlib.axis_1">
    <g id="xtick_1">
     <g id="line2d_1">
      <defs>
       <path id="m85972b27c6" d="M 0 0 
L 0 3.5 
" style="stroke: #000000; stroke-width: 0.8"/>
      </defs>
      <g>
       <use xlink:href="#m85972b27c6" x="265.745455" y="768.96" style="stroke: #000000; stroke-width: 0.8"/>
      </g>
     </g>
     <g id="text_1">
      <!-- −4 -->
      <g transform="translate(258.374361 783.558437) scale(0.1 -0.1)">
       <defs>
        <path id="DejaVuSans-2212" d="M 678 2272 
L 4684 2272 
L 4684 1741 
L 678 1741 
L 678 2272 
z
" transform="scale(0.015625)"/>
        <path id="DejaVuSans-34" d="M 2419 4116 
L 825 1625 
L 2419 1625 
L 2419 4116 
z
M 2253 4666 
L 3047 4666 
L 3047 1625 
L 3713 1625 
L 3713 1100 
L 3047 1100 
L 3047 0 
L 2419 0 
L 2419 1100 
L 313 1100 
L 313 1709 
L 2253 4666 
z
" transform="scale(0.015625)"/>
       </defs>
       <use xlink:href="#DejaVuSans-2212"/>
       <use xlink:href="#DejaVuSans-34" x="83.789062"/>
      </g>
     </g>
    </g>
    <g id="xtick_2">
     <g id="line2d_2">
      <g>
       <use xlink:href="#m85972b27c6" x="428.072727" y="768.96" style="stroke: #000000; stroke-width: 0.8"/>
      </g>
     </g>
     <g id="text_2">
      <!-- −2 -->
      <g transform="translate(420.701634 783.558437) scale(0.1 -0.1)">
       <defs>
        <path id="DejaVuSans-32" d="M 1228 531 
L 3431 531 
L 3431 0 
L 469 0 
L 469 531 
Q 828 903 1448 1529 
Q 2069 2156 2228 2338 
Q 2531 2678 2651 2914 
Q 2772 3150 2772 3378 
Q 2772 3750 2511 3984 
Q 2250 4219 1831 4219 
Q 1534 4219 1204 4116 
Q 875 4013 500 3803 
L 500 4441 
Q 881 4594 1212 4672 
Q 1544 4750 1819 4750 
Q 2544 4750 2975 4387 
Q 3406 4025 3406 3419 
Q 3406 3131 3298 2873 
Q 3191 2616 2906 2266 
Q 2828 2175 2409 1742 
Q 1991 1309 1228 531 
z
" transform="scale(0.015625)"/>
       </defs>
       <use xlink:href="#DejaVuSans-2212"/>
       <use xlink:href="#DejaVuSans-32" x="83.789062"/>
      </g>
     </g>
    </g>
    <g id="xtick_3">
     <g id="line2d_3">
      <g>
       <use xlink:href="#m85972b27c6" x="590.4" y="768.96" style="stroke: #000000; stroke-width: 0.8"/>
      </g>
     </g>
     <g id="text_3">
      <!-- 0 -->
      <g transform="translate(587.21875 783.558437) scale(0.1 -0.1)">
       <defs>
        <path id="DejaVuSans-30" d="M 2034 4250 
Q 1547 4250 1301 3770 
Q 1056 3291 1056 2328 
Q 1056 1369 1301 889 
Q 1547 409 2034 409 
Q 2525 409 2770 889 
Q 3016 1369 3016 2328 
Q 3016 3291 2770 3770 
Q 2525 4250 2034 4250 
z
M 2034 4750 
Q 2819 4750 3233 4129 
Q 3647 3509 3647 2328 
Q 3647 1150 3233 529 
Q 2819 -91 2034 -91 
Q 1250 -91 836 529 
Q 422 1150 422 2328 
Q 422 3509 836 4129 
Q 1250 4750 2034 4750 
z
" transform="scale(0.015625)"/>
       </defs>
       <use xlink:href="#DejaVuSans-30"/>
      </g>
     </g>
    </g>
    <g id="xtick_4">
     <g id="line2d_4">
      <g>
       <use xlink:href="#m85972b27c6" x="752.727273" y="768.96" style="stroke: #000000; stroke-width: 0.8"/>
      </g>
     </g>
     <g id="text_4">
      <!-- 2 -->
      <g transform="translate(749.546023 783.558437) scale(0.1 -0.1)">
       <use xlink:href="#DejaVuSans-32"/>
      </g>
     </g>
    </g>
    <g id="xtick_5">
     <g id="line2d_5">
      <g>
       <use xlink:href="#m85972b27c6" x="915.054545" y="768.96" style="stroke: #000000; stroke-width: 0.8"/>
      </g>
     </g>
     <g id="text_5">
      <!-- 4 -->
      <g transform="translate(911.873295 783.558437) scale(0.1 -0.1)">
       <use xlink:href="#DejaVuSans-34"/>
      </g>
     </g>
    </g>
    <g id="text_6">
     <!-- X -->
     <g transform="translate(584.92 801.795625) scale(0.16 -0.16)">
      <defs>
       <path id="DejaVuSans-58" d="M 403 4666 
L 1081 4666 
L 2241 2931 
L 3406 4666 
L 4084 4666 
L 2584 2425 
L 4184 0 
L 3506 0 
L 2194 1984 
L 872 0 
L 191 0 
L 1856 2491 
L 403 4666 
z
" transform="scale(0.015625)"/>
      </defs>
      <use xlink:href="#DejaVuSans-58"/>
     </g>
    </g>
   </g>
   <g id="matplotlib.axis_2">
    <g id="ytick_1">
     <g id="line2d_6">
      <defs>
       <path id="m83134f558d" d="M 0 0 
L -3.5 0 
" style="stroke: #000000; stroke-width: 0.8"/>
      </defs>
      <g>
       <use xlink:href="#m83134f558d" x="144" y="768.96" style="stroke: #000000; stroke-width: 0.8"/>
      </g>
     </g>
     <g id="text_7">
      <!-- −20 -->
      <g transform="translate(115.895313 772.759219) scale(0.1 -0.1)">
       <use xlink:href="#DejaVuSans-2212"/>
       <use xlink:href="#DejaVuSans-32" x="83.789062"/>
       <use xlink:href="#DejaVuSans-30" x="147.412109"/>
      </g>
     </g>
    </g>
    <g id="ytick_2">
     <g id="line2d_7">
      <g>
       <use xlink:href="#m83134f558d" x="144" y="635.904" style="stroke: #000000; stroke-width: 0.8"/>
      </g>
     </g>
     <g id="text_8">
      <!-- −10 -->
      <g transform="translate(115.895313 639.703219) scale(0.1 -0.1)">
       <defs>
        <path id="DejaVuSans-31" d="M 794 531 
L 1825 531 
L 1825 4091 
L 703 3866 
L 703 4441 
L 1819 4666 
L 2450 4666 
L 2450 531 
L 3481 531 
L 3481 0 
L 794 0 
L 794 531 
z
" transform="scale(0.015625)"/>
       </defs>
       <use xlink:href="#DejaVuSans-2212"/>
       <use xlink:href="#DejaVuSans-31" x="83.789062"/>
       <use xlink:href="#DejaVuSans-30" x="147.412109"/>
      </g>
     </g>
    </g>
    <g id="ytick_3">
     <g id="line2d_8">
      <g>
       <use xlink:href="#m83134f558d" x="144" y="502.848" style="stroke: #000000; stroke-width: 0.8"/>
      </g>
     </g>
     <g id="text_9">
      <!-- 0 -->
      <g transform="translate(130.6375 506.647219) scale(0.1 -0.1)">
       <use xlink:href="#DejaVuSans-30"/>
      </g>
     </g>
    </g>
    <g id="ytick_4">
     <g id="line2d_9">
      <g>
       <use xlink:href="#m83134f558d" x="144" y="369.792" style="stroke: #000000; stroke-width: 0.8"/>
      </g>
     </g>
     <g id="text_10">
      <!-- 10 -->
      <g transform="translate(124.275 373.591219) scale(0.1 -0.1)">
       <use xlink:href="#DejaVuSans-31"/>
       <use xlink:href="#DejaVuSans-30" x="63.623047"/>
      </g>
     </g>
    </g>
    <g id="ytick_5">
     <g id="line2d_10">
      <g>
       <use xlink:href="#m83134f558d" x="144" y="236.736" style="stroke: #000000; stroke-width: 0.8"/>
      </g>
     </g>
     <g id="text_11">
      <!-- 20 -->
      <g transform="translate(124.275 240.535219) scale(0.1 -0.1)">
       <use xlink:href="#DejaVuSans-32"/>
       <use xlink:href="#DejaVuSans-30" x="63.623047"/>
      </g>
     </g>
    </g>
    <g id="ytick_6">
     <g id="line2d_11">
      <g>
       <use xlink:href="#m83134f558d" x="144" y="103.68" style="stroke: #000000; stroke-width: 0.8"/>
      </g>
     </g>
     <g id="text_12">
      <!-- 30 -->
      <g transform="translate(124.275 107.479219) scale(0.1 -0.1)">
       <defs>
        <path id="DejaVuSans-33" d="M 2597 2516 
Q 3050 2419 3304 2112 
Q 3559 1806 3559 1356 
Q 3559 666 3084 287 
Q 2609 -91 1734 -91 
Q 1441 -91 1130 -33 
Q 819 25 488 141 
L 488 750 
Q 750 597 1062 519 
Q 1375 441 1716 441 
Q 2309 441 2620 675 
Q 2931 909 2931 1356 
Q 2931 1769 2642 2001 
Q 2353 2234 1838 2234 
L 1294 2234 
L 1294 2753 
L 1863 2753 
Q 2328 2753 2575 2939 
Q 2822 3125 2822 3475 
Q 2822 3834 2567 4026 
Q 2313 4219 1838 4219 
Q 1578 4219 1281 4162 
Q 984 4106 628 3988 
L 628 4550 
Q 988 4650 1302 4700 
Q 1616 4750 1894 4750 
Q 2613 4750 3031 4423 
Q 3450 4097 3450 3541 
Q 3450 3153 3228 2886 
Q 3006 2619 2597 2516 
z
" transform="scale(0.015625)"/>
       </defs>
       <use xlink:href="#DejaVuSans-33"/>
       <use xlink:href="#DejaVuSans-30" x="63.623047"/>
      </g>
     </g>
    </g>
    <g id="text_13">
     <!-- f(X) -->
     <g transform="translate(108.567813 450.85875) rotate(-90) scale(0.16 -0.16)">
      <defs>
       <path id="DejaVuSans-66" d="M 2375 4863 
L 2375 4384 
L 1825 4384 
Q 1516 4384 1395 4259 
Q 1275 4134 1275 3809 
L 1275 3500 
L 2222 3500 
L 2222 3053 
L 1275 3053 
L 1275 0 
L 697 0 
L 697 3053 
L 147 3053 
L 147 3500 
L 697 3500 
L 697 3744 
Q 697 4328 969 4595 
Q 1241 4863 1831 4863 
L 2375 4863 
z
" transform="scale(0.015625)"/>
       <path id="DejaVuSans-28" d="M 1984 4856 
Q 1566 4138 1362 3434 
Q 1159 2731 1159 2009 
Q 1159 1288 1364 580 
Q 1569 -128 1984 -844 
L 1484 -844 
Q 1016 -109 783 600 
Q 550 1309 550 2009 
Q 550 2706 781 3412 
Q 1013 4119 1484 4856 
L 1984 4856 
z
" transform="scale(0.015625)"/>
       <path id="DejaVuSans-29" d="M 513 4856 
L 1013 4856 
Q 1481 4119 1714 3412 
Q 1947 2706 1947 2009 
Q 1947 1309 1714 600 
Q 1481 -109 1013 -844 
L 513 -844 
Q 928 -128 1133 580 
Q 1338 1288 1338 2009 
Q 1338 2731 1133 3434 
Q 928 4138 513 4856 
z
" transform="scale(0.015625)"/>
      </defs>
      <use xlink:href="#DejaVuSans-66"/>
      <use xlink:href="#DejaVuSans-28" x="35.205078"/>
      <use xlink:href="#DejaVuSans-58" x="74.21875"/>
      <use xlink:href="#DejaVuSans-29" x="142.724609"/>
     </g>
    </g>
   </g>
   <g id="line2d_12">
    <path d="M 184.581818 492.20352 
L 257.629091 492.787668 
L 314.443636 493.455812 
L 355.025455 494.130538 
L 387.490909 494.86464 
L 415.898182 495.731051 
L 436.189091 496.545347 
L 452.421818 497.369224 
L 468.654545 498.4128 
L 480.829091 499.3984 
L 493.003636 500.6304 
L 501.12 501.6384 
L 509.236364 502.848 
L 517.352727 504.3264 
L 525.469091 506.1744 
L 529.527273 507.2832 
L 533.585455 508.5504 
L 537.643636 510.012554 
L 541.701818 511.7184 
L 545.76 513.7344 
L 549.818182 516.1536 
L 553.876364 519.1104 
L 557.934545 522.8064 
L 561.992727 527.5584 
L 566.050909 533.8944 
L 570.109091 542.7648 
L 574.167273 556.0704 
L 578.225455 578.2464 
L 582.283636 622.5984 
L 586.341818 755.6544 
M 594.458182 223.4304 
L 598.516364 356.4864 
L 602.574545 400.8384 
L 606.632727 423.0144 
L 610.690909 436.32 
L 614.749091 445.1904 
L 618.807273 451.5264 
L 622.865455 456.2784 
L 626.923636 459.9744 
L 630.981818 462.9312 
L 635.04 465.3504 
L 639.098182 467.3664 
L 643.156364 469.072246 
L 647.214545 470.5344 
L 651.272727 471.8016 
L 655.330909 472.9104 
L 663.447273 474.7584 
L 671.563636 476.2368 
L 679.68 477.4464 
L 687.796364 478.4544 
L 699.970909 479.6864 
L 712.145455 480.672 
L 728.378182 481.715576 
L 744.610909 482.539453 
L 764.901818 483.353749 
L 789.250909 484.111543 
L 821.716364 484.873768 
L 862.298182 485.570579 
L 910.996364 486.173894 
L 975.927273 486.741221 
L 996.218182 486.88128 
L 996.218182 486.88128 
" clip-path="url(#pa29c2f76fd)" style="fill: none; stroke: #ff0000; stroke-width: 1.5; stroke-linecap: square"/>
   </g>
   <g id="line2d_13">
    <path d="M 184.581818 494.86464 
L 237.338182 495.659917 
L 281.978182 496.545347 
L 318.501818 497.486042 
L 346.909091 498.4128 
L 371.258182 499.3984 
L 391.549091 500.404114 
L 411.84 501.6384 
L 428.072727 502.848 
L 440.247273 503.926832 
L 452.421818 505.196047 
L 464.596364 506.710916 
L 472.712727 507.894952 
L 480.829091 509.2544 
L 488.945455 510.83136 
L 497.061818 512.682574 
L 505.178182 514.8864 
L 509.236364 516.1536 
L 513.294545 517.554189 
L 517.352727 519.1104 
L 521.410909 520.849694 
L 525.469091 522.8064 
L 529.527273 525.024 
L 533.585455 527.5584 
L 537.643636 530.482708 
L 541.701818 533.8944 
L 545.76 537.9264 
L 549.818182 542.7648 
L 553.876364 548.6784 
L 557.934545 556.0704 
L 561.992727 565.5744 
L 566.050909 578.2464 
L 570.109091 595.9872 
L 574.167273 622.5984 
L 578.225455 666.9504 
L 582.283636 755.6544 
L 583.951146 865 
M 595.093822 -1 
L 598.516364 223.4304 
L 602.574545 312.1344 
L 606.632727 356.4864 
L 610.690909 383.0976 
L 614.749091 400.8384 
L 618.807273 413.5104 
L 622.865455 423.0144 
L 626.923636 430.4064 
L 630.981818 436.32 
L 635.04 441.1584 
L 639.098182 445.1904 
L 643.156364 448.602092 
L 647.214545 451.5264 
L 651.272727 454.0608 
L 655.330909 456.2784 
L 659.389091 458.235106 
L 663.447273 459.9744 
L 667.505455 461.530611 
L 671.563636 462.9312 
L 679.68 465.3504 
L 687.796364 467.3664 
L 695.912727 469.072246 
L 704.029091 470.5344 
L 712.145455 471.8016 
L 724.32 473.4144 
L 736.494545 474.7584 
L 748.669091 475.895631 
L 764.901818 477.165098 
L 781.134545 478.218485 
L 801.425455 479.307323 
L 825.774545 480.366124 
L 854.181818 481.354338 
L 886.647273 482.25166 
L 927.229091 483.130063 
L 975.927273 483.940042 
L 996.218182 484.22016 
L 996.218182 484.22016 
" clip-path="url(#pa29c2f76fd)" style="fill: none; stroke: #0000ff; stroke-width: 1.5; stroke-linecap: square"/>
   </g>
   <g id="line2d_14">
    <path d="M 184.581818 489.010176 
L 273.861818 488.667607 
L 330.676364 488.243025 
L 371.258182 487.717215 
L 399.665455 487.133056 
L 419.956364 486.525257 
L 436.189091 485.856638 
L 452.421818 484.938386 
L 464.596364 484.004169 
L 472.712727 483.213934 
L 480.829091 482.241659 
L 488.945455 481.026816 
L 497.061818 479.481455 
L 501.12 478.546036 
L 505.178182 477.473829 
L 509.236364 476.2368 
L 513.294545 474.799353 
L 517.352727 473.115733 
L 521.410909 471.126345 
L 525.469091 468.7524 
L 529.527273 465.888 
L 533.585455 462.388114 
L 537.643636 458.049856 
L 541.701818 452.5824 
L 545.76 445.556945 
L 549.818182 436.32 
L 553.876364 423.835733 
L 557.934545 406.3824 
L 561.992727 380.925257 
L 566.050909 341.7024 
L 570.109091 276.6528 
L 574.167273 156.9024 
L 576.644069 -1 
M 604.155931 -1 
L 606.632727 156.9024 
L 610.690909 276.6528 
L 614.749091 341.7024 
L 618.807273 380.925257 
L 622.865455 406.3824 
L 626.923636 423.835733 
L 630.981818 436.32 
L 635.04 445.556945 
L 639.098182 452.5824 
L 643.156364 458.049856 
L 647.214545 462.388114 
L 651.272727 465.888 
L 655.330909 468.7524 
L 659.389091 471.126345 
L 663.447273 473.115733 
L 667.505455 474.799353 
L 671.563636 476.2368 
L 675.621818 477.473829 
L 679.68 478.546036 
L 683.738182 479.481455 
L 691.854545 481.026816 
L 699.970909 482.241659 
L 708.087273 483.213934 
L 716.203636 484.004169 
L 728.378182 484.938386 
L 740.552727 485.654716 
L 756.785455 486.376285 
L 777.076364 487.027164 
L 801.425455 487.574116 
L 833.890909 488.064 
L 878.530909 488.486609 
L 939.403636 488.822789 
L 996.218182 489.010176 
L 996.218182 489.010176 
" clip-path="url(#pa29c2f76fd)" style="fill: none; stroke: #008000; stroke-width: 1.5; stroke-linecap: square"/>
   </g>
   <g id="patch_3">
    <path d="M 144 768.96 
L 144 103.68 
" style="fill: none; stroke: #000000; stroke-width: 0.8; stroke-linejoin: miter; stroke-linecap: square"/>
   </g>
   <g id="patch_4">
    <path d="M 1036.8 768.96 
L 1036.8 103.68 
" style="fill: none; stroke: #000000; stroke-width: 0.8; stroke-linejoin: miter; stroke-linecap: square"/>
   </g>
   <g id="patch_5">
    <path d="M 144 768.96 
L 1036.8 768.96 
" style="fill: none; stroke: #000000; stroke-width: 0.8; stroke-linejoin: miter; stroke-linecap: square"/>
   </g>
   <g id="patch_6">
    <path d="M 144 103.68 
L 1036.8 103.68 
" style="fill: none; stroke: #000000; stroke-width: 0.8; stroke-linejoin: miter; stroke-linecap: square"/>
   </g>
   <g id="text_14">
    <!-- График функции f(x)=$\frac{x^{\beta}+\alpha^{\beta}}{x^{\beta}}$ при различных $\alpha$ и $\beta$ -->
    <g transform="translate(385.52 95.36) scale(0.16 -0.16)">
     <defs>
      <path id="DejaVuSans-413" d="M 628 0 
L 628 4666 
L 3531 4666 
L 3531 4134 
L 1259 4134 
L 1259 0 
L 628 0 
z
" transform="scale(0.015625)"/>
      <path id="DejaVuSans-440" d="M 1159 525 
L 1159 -1331 
L 581 -1331 
L 581 3500 
L 1159 3500 
L 1159 2969 
Q 1341 3281 1617 3432 
Q 1894 3584 2278 3584 
Q 2916 3584 3314 3078 
Q 3713 2572 3713 1747 
Q 3713 922 3314 415 
Q 2916 -91 2278 -91 
Q 1894 -91 1617 61 
Q 1341 213 1159 525 
z
M 3116 1747 
Q 3116 2381 2855 2742 
Q 2594 3103 2138 3103 
Q 1681 3103 1420 2742 
Q 1159 2381 1159 1747 
Q 1159 1113 1420 752 
Q 1681 391 2138 391 
Q 2594 391 2855 752 
Q 3116 1113 3116 1747 
z
" transform="scale(0.015625)"/>
      <path id="DejaVuSans-430" d="M 2194 1759 
Q 1497 1759 1228 1600 
Q 959 1441 959 1056 
Q 959 750 1161 570 
Q 1363 391 1709 391 
Q 2188 391 2477 730 
Q 2766 1069 2766 1631 
L 2766 1759 
L 2194 1759 
z
M 3341 1997 
L 3341 0 
L 2766 0 
L 2766 531 
Q 2569 213 2275 61 
Q 1981 -91 1556 -91 
Q 1019 -91 701 211 
Q 384 513 384 1019 
Q 384 1609 779 1909 
Q 1175 2209 1959 2209 
L 2766 2209 
L 2766 2266 
Q 2766 2663 2505 2880 
Q 2244 3097 1772 3097 
Q 1472 3097 1187 3025 
Q 903 2953 641 2809 
L 641 3341 
Q 956 3463 1253 3523 
Q 1550 3584 1831 3584 
Q 2591 3584 2966 3190 
Q 3341 2797 3341 1997 
z
" transform="scale(0.015625)"/>
      <path id="DejaVuSans-444" d="M 947 1747 
Q 947 1013 1173 702 
Q 1400 391 1784 391 
Q 2091 391 2447 916 
L 2447 2578 
Q 2091 3103 1784 3103 
Q 1400 3103 1173 2792 
Q 947 2481 947 1747 
z
M 2447 -1331 
L 2447 447 
Q 2269 153 2064 31 
Q 1859 -91 1600 -91 
Q 1078 -91 714 392 
Q 350 875 350 1734 
Q 350 2594 714 3089 
Q 1078 3584 1600 3584 
Q 1859 3584 2064 3465 
Q 2269 3347 2447 3053 
L 2447 4666 
L 3025 4666 
L 3025 3053 
Q 3203 3347 3408 3465 
Q 3613 3584 3872 3584 
Q 4394 3584 4758 3089 
Q 5122 2594 5122 1734 
Q 5122 875 4758 392 
Q 4394 -91 3872 -91 
Q 3613 -91 3408 31 
Q 3203 153 3025 447 
L 3025 -1331 
L 2447 -1331 
z
M 4525 1747 
Q 4525 2481 4298 2792 
Q 4072 3103 3688 3103 
Q 3381 3103 3025 2578 
L 3025 916 
Q 3381 391 3688 391 
Q 4072 391 4298 702 
Q 4525 1013 4525 1747 
z
" transform="scale(0.015625)"/>
      <path id="DejaVuSans-438" d="M 3578 3500 
L 3578 0 
L 3006 0 
L 3006 2809 
L 1319 0 
L 581 0 
L 581 3500 
L 1153 3500 
L 1153 697 
L 2838 3500 
L 3578 3500 
z
" transform="scale(0.015625)"/>
      <path id="DejaVuSans-43a" d="M 581 3500 
L 1153 3500 
L 1153 1856 
L 2775 3500 
L 3481 3500 
L 2144 2147 
L 3653 0 
L 3009 0 
L 1769 1766 
L 1153 1141 
L 1153 0 
L 581 0 
L 581 3500 
z
" transform="scale(0.015625)"/>
      <path id="DejaVuSans-20" transform="scale(0.015625)"/>
      <path id="DejaVuSans-443" d="M 2059 -325 
Q 1816 -950 1584 -1140 
Q 1353 -1331 966 -1331 
L 506 -1331 
L 506 -850 
L 844 -850 
Q 1081 -850 1212 -737 
Q 1344 -625 1503 -206 
L 1606 56 
L 191 3500 
L 800 3500 
L 1894 763 
L 2988 3500 
L 3597 3500 
L 2059 -325 
z
" transform="scale(0.015625)"/>
      <path id="DejaVuSans-43d" d="M 581 3500 
L 1159 3500 
L 1159 2072 
L 3025 2072 
L 3025 3500 
L 3603 3500 
L 3603 0 
L 3025 0 
L 3025 1613 
L 1159 1613 
L 1159 0 
L 581 0 
L 581 3500 
z
" transform="scale(0.015625)"/>
      <path id="DejaVuSans-446" d="M 3603 0 
L 581 0 
L 581 3500 
L 1159 3500 
L 1159 459 
L 3025 459 
L 3025 3500 
L 3603 3500 
L 3603 459 
L 4063 459 
L 4063 -884 
L 3603 -884 
L 3603 0 
z
" transform="scale(0.015625)"/>
      <path id="DejaVuSans-78" d="M 3513 3500 
L 2247 1797 
L 3578 0 
L 2900 0 
L 1881 1375 
L 863 0 
L 184 0 
L 1544 1831 
L 300 3500 
L 978 3500 
L 1906 2253 
L 2834 3500 
L 3513 3500 
z
" transform="scale(0.015625)"/>
      <path id="DejaVuSans-3d" d="M 678 2906 
L 4684 2906 
L 4684 2381 
L 678 2381 
L 678 2906 
z
M 678 1631 
L 4684 1631 
L 4684 1100 
L 678 1100 
L 678 1631 
z
" transform="scale(0.015625)"/>
      <path id="DejaVuSans-Oblique-78" d="M 3841 3500 
L 2234 1784 
L 3219 0 
L 2559 0 
L 1819 1388 
L 531 0 
L -166 0 
L 1556 1844 
L 641 3500 
L 1300 3500 
L 1972 2234 
L 3144 3500 
L 3841 3500 
z
" transform="scale(0.015625)"/>
      <path id="DejaVuSans-Oblique-3b2" d="M 872 216 
L 572 -1331 
L -6 -1331 
L 928 3478 
Q 1206 4903 2538 4903 
Q 3888 4903 3659 3700 
Q 3503 2844 2894 2531 
Q 3713 2250 3553 1416 
Q 3272 -69 1759 -66 
Q 1097 -63 872 216 
z
M 1019 966 
Q 1259 422 1875 425 
Q 2775 425 2966 1406 
Q 3138 2288 1675 2219 
L 1778 2750 
Q 2909 2731 3106 3750 
Q 3241 4438 2509 4434 
Q 1691 4434 1503 3459 
L 1019 966 
z
" transform="scale(0.015625)"/>
      <path id="DejaVuSans-2b" d="M 2944 4013 
L 2944 2272 
L 4684 2272 
L 4684 1741 
L 2944 1741 
L 2944 0 
L 2419 0 
L 2419 1741 
L 678 1741 
L 678 2272 
L 2419 2272 
L 2419 4013 
L 2944 4013 
z
" transform="scale(0.015625)"/>
      <path id="DejaVuSans-Oblique-3b1" d="M 2619 1628 
L 2622 2350 
Q 2625 3088 2069 3091 
Q 1653 3094 1394 2747 
Q 1069 2319 959 1747 
Q 825 1059 994 731 
Q 1169 397 1547 397 
Q 1966 397 2319 1063 
L 2619 1628 
z
M 2166 3578 
Q 3141 3594 3128 2584 
Q 3128 2584 3616 3500 
L 4128 3500 
L 3119 1603 
L 3109 919 
Q 3109 766 3194 638 
Q 3291 488 3391 488 
L 3669 488 
L 3575 0 
L 3228 0 
Q 2934 0 2722 263 
Q 2622 394 2619 669 
Q 2416 334 2066 50 
Q 1900 -81 1453 -78 
Q 722 -72 456 397 
Q 184 884 353 1747 
Q 534 2675 1009 3097 
Q 1544 3569 2166 3578 
z
" transform="scale(0.015625)"/>
      <path id="DejaVuSans-43f" d="M 3603 3500 
L 3603 0 
L 3025 0 
L 3025 3041 
L 1159 3041 
L 1159 0 
L 581 0 
L 581 3500 
L 3603 3500 
z
" transform="scale(0.015625)"/>
      <path id="DejaVuSans-437" d="M 2206 1888 
Q 2594 1813 2809 1584 
Q 3025 1356 3025 1019 
Q 3025 478 2622 193 
Q 2219 -91 1475 -91 
Q 1225 -91 961 -47 
Q 697 -3 416 84 
L 416 619 
Q 638 503 903 445 
Q 1169 388 1459 388 
Q 1931 388 2195 563 
Q 2459 738 2459 1019 
Q 2459 1294 2225 1461 
Q 1991 1628 1563 1628 
L 1100 1628 
L 1100 2103 
L 1584 2103 
Q 1947 2103 2158 2242 
Q 2369 2381 2369 2600 
Q 2369 2800 2151 2944 
Q 1934 3088 1563 3088 
Q 1341 3088 1089 3047 
Q 838 3006 534 2916 
L 534 3438 
Q 841 3513 1106 3550 
Q 1372 3588 1609 3588 
Q 2222 3588 2576 3342 
Q 2931 3097 2931 2656 
Q 2931 2366 2743 2164 
Q 2556 1963 2206 1888 
z
" transform="scale(0.015625)"/>
      <path id="DejaVuSans-43b" d="M 238 0 
L 238 478 
Q 806 566 981 959 
Q 1194 1513 1194 2928 
L 1194 3500 
L 3559 3500 
L 3559 0 
L 2984 0 
L 2984 3041 
L 1769 3041 
L 1769 2694 
Q 1769 1344 1494 738 
Q 1200 91 238 0 
z
" transform="scale(0.015625)"/>
      <path id="DejaVuSans-447" d="M 2625 0 
L 2625 1472 
L 1553 1472 
Q 1075 1472 756 1769 
Q 469 2038 469 2613 
L 469 3500 
L 1044 3500 
L 1044 2666 
Q 1044 2300 1206 2116 
Q 1372 1931 1697 1931 
L 2625 1931 
L 2625 3500 
L 3200 3500 
L 3200 0 
L 2625 0 
z
" transform="scale(0.015625)"/>
      <path id="DejaVuSans-44b" d="M 3907 3500 
L 4482 3500 
L 4482 0 
L 3907 0 
L 3907 3500 
z
M 4195 3584 
L 4195 3584 
z
M 2781 1038 
Q 2781 1319 2576 1466 
Q 2372 1613 1978 1613 
L 1159 1613 
L 1159 459 
L 1978 459 
Q 2372 459 2576 607 
Q 2781 756 2781 1038 
z
M 581 3500 
L 1159 3500 
L 1159 2072 
L 2003 2072 
Q 2672 2072 3033 1817 
Q 3394 1563 3394 1038 
Q 3394 513 3033 256 
Q 2672 0 2003 0 
L 581 0 
L 581 3500 
z
" transform="scale(0.015625)"/>
      <path id="DejaVuSans-445" d="M 3513 3500 
L 2247 1797 
L 3578 0 
L 2900 0 
L 1881 1375 
L 863 0 
L 184 0 
L 1544 1831 
L 300 3500 
L 978 3500 
L 1906 2253 
L 2834 3500 
L 3513 3500 
z
" transform="scale(0.015625)"/>
     </defs>
     <use xlink:href="#DejaVuSans-413" transform="translate(0 0.981719)"/>
     <use xlink:href="#DejaVuSans-440" transform="translate(60.986328 0.981719)"/>
     <use xlink:href="#DejaVuSans-430" transform="translate(124.462891 0.981719)"/>
     <use xlink:href="#DejaVuSans-444" transform="translate(185.742188 0.981719)"/>
     <use xlink:href="#DejaVuSans-438" transform="translate(271.240234 0.981719)"/>
     <use xlink:href="#DejaVuSans-43a" transform="translate(336.230469 0.981719)"/>
     <use xlink:href="#DejaVuSans-20" transform="translate(396.630859 0.981719)"/>
     <use xlink:href="#DejaVuSans-444" transform="translate(428.417969 0.981719)"/>
     <use xlink:href="#DejaVuSans-443" transform="translate(513.916016 0.981719)"/>
     <use xlink:href="#DejaVuSans-43d" transform="translate(573.095703 0.981719)"/>
     <use xlink:href="#DejaVuSans-43a" transform="translate(638.476562 0.981719)"/>
     <use xlink:href="#DejaVuSans-446" transform="translate(698.876953 0.981719)"/>
     <use xlink:href="#DejaVuSans-438" transform="translate(766.943359 0.981719)"/>
     <use xlink:href="#DejaVuSans-438" transform="translate(831.933594 0.981719)"/>
     <use xlink:href="#DejaVuSans-20" transform="translate(896.923828 0.981719)"/>
     <use xlink:href="#DejaVuSans-66" transform="translate(928.710938 0.981719)"/>
     <use xlink:href="#DejaVuSans-28" transform="translate(963.916016 0.981719)"/>
     <use xlink:href="#DejaVuSans-78" transform="translate(1002.929688 0.981719)"/>
     <use xlink:href="#DejaVuSans-29" transform="translate(1062.109375 0.981719)"/>
     <use xlink:href="#DejaVuSans-3d" transform="translate(1101.123047 0.981719)"/>
     <use xlink:href="#DejaVuSans-Oblique-78" transform="translate(1184.912109 45.664531) scale(0.7)"/>
     <use xlink:href="#DejaVuSans-Oblique-3b2" transform="translate(1229.464193 72.461406) scale(0.49)"/>
     <use xlink:href="#DejaVuSans-2b" transform="translate(1276.286947 45.664531) scale(0.7)"/>
     <use xlink:href="#DejaVuSans-Oblique-3b1" transform="translate(1348.576986 45.664531) scale(0.7)"/>
     <use xlink:href="#DejaVuSans-Oblique-3b2" transform="translate(1397.989803 72.461406) scale(0.49)"/>
     <use xlink:href="#DejaVuSans-Oblique-78" transform="translate(1268.912109 -50.806875) scale(0.7)"/>
     <use xlink:href="#DejaVuSans-Oblique-3b2" transform="translate(1313.464193 -24.01) scale(0.49)"/>
     <use xlink:href="#DejaVuSans-20" transform="translate(1443.674862 0.981719)"/>
     <use xlink:href="#DejaVuSans-43f" transform="translate(1475.461971 0.981719)"/>
     <use xlink:href="#DejaVuSans-440" transform="translate(1540.842831 0.981719)"/>
     <use xlink:href="#DejaVuSans-438" transform="translate(1604.319393 0.981719)"/>
     <use xlink:href="#DejaVuSans-20" transform="translate(1669.309628 0.981719)"/>
     <use xlink:href="#DejaVuSans-440" transform="translate(1701.096737 0.981719)"/>
     <use xlink:href="#DejaVuSans-430" transform="translate(1764.573299 0.981719)"/>
     <use xlink:href="#DejaVuSans-437" transform="translate(1825.852596 0.981719)"/>
     <use xlink:href="#DejaVuSans-43b" transform="translate(1879.026424 0.981719)"/>
     <use xlink:href="#DejaVuSans-438" transform="translate(1942.94244 0.981719)"/>
     <use xlink:href="#DejaVuSans-447" transform="translate(2007.932674 0.981719)"/>
     <use xlink:href="#DejaVuSans-43d" transform="translate(2067.014706 0.981719)"/>
     <use xlink:href="#DejaVuSans-44b" transform="translate(2132.395565 0.981719)"/>
     <use xlink:href="#DejaVuSans-445" transform="translate(2211.350643 0.981719)"/>
     <use xlink:href="#DejaVuSans-20" transform="translate(2270.530331 0.981719)"/>
     <use xlink:href="#DejaVuSans-Oblique-3b1" transform="translate(2302.31744 0.981719)"/>
     <use xlink:href="#DejaVuSans-20" transform="translate(2368.235409 0.981719)"/>
     <use xlink:href="#DejaVuSans-438" transform="translate(2400.022518 0.981719)"/>
     <use xlink:href="#DejaVuSans-20" transform="translate(2465.012753 0.981719)"/>
     <use xlink:href="#DejaVuSans-Oblique-3b2" transform="translate(2496.799862 0.981719)"/>
     <path d="M 1184.912109 19.778594 
L 1184.912109 26.028594 
L 1431.174862 26.028594 
L 1431.174862 19.778594 
L 1184.912109 19.778594 
z
"/>
    </g>
   </g>
   <g id="legend_1">
    <g id="patch_7">
     <path d="M 895.96 177.04 
L 1027 177.04 
Q 1029.8 177.04 1029.8 174.24 
L 1029.8 113.48 
Q 1029.8 110.68 1027 110.68 
L 895.96 110.68 
Q 893.16 110.68 893.16 113.48 
L 893.16 174.24 
Q 893.16 177.04 895.96 177.04 
z
" style="fill: #ffffff; opacity: 0.8; stroke: #cccccc; stroke-linejoin: miter"/>
    </g>
    <g id="line2d_15">
     <path d="M 898.76 122.16 
L 912.76 122.16 
L 926.76 122.16 
" style="fill: none; stroke: #ff0000; stroke-width: 1.5; stroke-linecap: square"/>
    </g>
    <g id="text_15">
     <!-- $\alpha$ = 1, $\beta$ = 1 -->
     <g transform="translate(937.96 127.06) scale(0.14 -0.14)">
      <defs>
       <path id="DejaVuSans-2c" d="M 750 794 
L 1409 794 
L 1409 256 
L 897 -744 
L 494 -744 
L 750 256 
L 750 794 
z
" transform="scale(0.015625)"/>
      </defs>
      <use xlink:href="#DejaVuSans-Oblique-3b1" transform="translate(0 0.390625)"/>
      <use xlink:href="#DejaVuSans-20" transform="translate(65.917969 0.390625)"/>
      <use xlink:href="#DejaVuSans-3d" transform="translate(97.705078 0.390625)"/>
      <use xlink:href="#DejaVuSans-20" transform="translate(181.494141 0.390625)"/>
      <use xlink:href="#DejaVuSans-31" transform="translate(213.28125 0.390625)"/>
      <use xlink:href="#DejaVuSans-2c" transform="translate(276.904297 0.390625)"/>
      <use xlink:href="#DejaVuSans-20" transform="translate(308.691406 0.390625)"/>
      <use xlink:href="#DejaVuSans-Oblique-3b2" transform="translate(340.478516 0.390625)"/>
      <use xlink:href="#DejaVuSans-20" transform="translate(404.296875 0.390625)"/>
      <use xlink:href="#DejaVuSans-3d" transform="translate(436.083984 0.390625)"/>
      <use xlink:href="#DejaVuSans-20" transform="translate(519.873047 0.390625)"/>
      <use xlink:href="#DejaVuSans-31" transform="translate(551.660156 0.390625)"/>
     </g>
    </g>
    <g id="line2d_16">
     <path d="M 898.76 142.88 
L 912.76 142.88 
L 926.76 142.88 
" style="fill: none; stroke: #0000ff; stroke-width: 1.5; stroke-linecap: square"/>
    </g>
    <g id="text_16">
     <!-- $\alpha$ = 2, $\beta$ = 1 -->
     <g transform="translate(937.96 147.78) scale(0.14 -0.14)">
      <use xlink:href="#DejaVuSans-Oblique-3b1" transform="translate(0 0.390625)"/>
      <use xlink:href="#DejaVuSans-20" transform="translate(65.917969 0.390625)"/>
      <use xlink:href="#DejaVuSans-3d" transform="translate(97.705078 0.390625)"/>
      <use xlink:href="#DejaVuSans-20" transform="translate(181.494141 0.390625)"/>
      <use xlink:href="#DejaVuSans-32" transform="translate(213.28125 0.390625)"/>
      <use xlink:href="#DejaVuSans-2c" transform="translate(276.904297 0.390625)"/>
      <use xlink:href="#DejaVuSans-20" transform="translate(308.691406 0.390625)"/>
      <use xlink:href="#DejaVuSans-Oblique-3b2" transform="translate(340.478516 0.390625)"/>
      <use xlink:href="#DejaVuSans-20" transform="translate(404.296875 0.390625)"/>
      <use xlink:href="#DejaVuSans-3d" transform="translate(436.083984 0.390625)"/>
      <use xlink:href="#DejaVuSans-20" transform="translate(519.873047 0.390625)"/>
      <use xlink:href="#DejaVuSans-31" transform="translate(551.660156 0.390625)"/>
     </g>
    </g>
    <g id="line2d_17">
     <path d="M 898.76 163.6 
L 912.76 163.6 
L 926.76 163.6 
" style="fill: none; stroke: #008000; stroke-width: 1.5; stroke-linecap: square"/>
    </g>
    <g id="text_17">
     <!-- $\alpha$ = 1, $\beta$ = 2 -->
     <g transform="translate(937.96 168.5) scale(0.14 -0.14)">
      <use xlink:href="#DejaVuSans-Oblique-3b1" transform="translate(0 0.390625)"/>
      <use xlink:href="#DejaVuSans-20" transform="translate(65.917969 0.390625)"/>
      <use xlink:href="#DejaVuSans-3d" transform="translate(97.705078 0.390625)"/>
      <use xlink:href="#DejaVuSans-20" transform="translate(181.494141 0.390625)"/>
      <use xlink:href="#DejaVuSans-31" transform="translate(213.28125 0.390625)"/>
      <use xlink:href="#DejaVuSans-2c" transform="translate(276.904297 0.390625)"/>
      <use xlink:href="#DejaVuSans-20" transform="translate(308.691406 0.390625)"/>
      <use xlink:href="#DejaVuSans-Oblique-3b2" transform="translate(340.478516 0.390625)"/>
      <use xlink:href="#DejaVuSans-20" transform="translate(404.296875 0.390625)"/>
      <use xlink:href="#DejaVuSans-3d" transform="translate(436.083984 0.390625)"/>
      <use xlink:href="#DejaVuSans-20" transform="translate(519.873047 0.390625)"/>
      <use xlink:href="#DejaVuSans-32" transform="translate(551.660156 0.390625)"/>
     </g>
    </g>
   </g>
  </g>
 </g>
 <defs>
  <clipPath id="pa29c2f76fd">
   <rect x="144" y="103.68" width="892.8" height="665.28"/>
  </clipPath>
 </defs>
</svg>
