<?xml version="1.0" encoding="utf-8" standalone="no"?>
<!DOCTYPE svg PUBLIC "-//W3C//DTD SVG 1.1//EN"
  "http://www.w3.org/Graphics/SVG/1.1/DTD/svg11.dtd">
<svg xmlns:xlink="http://www.w3.org/1999/xlink" width="1152pt" height="864pt" viewBox="0 0 1152 864" xmlns="http://www.w3.org/2000/svg" version="1.1">
 <metadata>
  <rdf:RDF xmlns:dc="http://purl.org/dc/elements/1.1/" xmlns:cc="http://creativecommons.org/ns#" xmlns:rdf="http://www.w3.org/1999/02/22-rdf-syntax-ns#">
   <cc:Work>
    <dc:type rdf:resource="http://purl.org/dc/dcmitype/StillImage"/>
    <dc:date>2023-10-06T02:33:00.501701</dc:date>
    <dc:format>image/svg+xml</dc:format>
    <dc:creator>
     <cc:Agent>
      <dc:title>Matplotlib v3.7.3, https://matplotlib.org/</dc:title>
     </cc:Agent>
    </dc:creator>
   </cc:Work>
  </rdf:RDF>
 </metadata>
 <defs>
  <style type="text/css">*{stroke-linejoin: round; stroke-linecap: butt}</style>
 </defs>
 <g id="figure_1">
  <g id="patch_1">
   <path d="M 0 864 
L 1152 864 
L 1152 0 
L 0 0 
z
" style="fill: #ffffff"/>
  </g>
  <g id="axes_1">
   <g id="patch_2">
    <path d="M 0 864 
L 1152 864 
L 1152 0 
L 0 0 
z
" style="fill: #ffffff"/>
   </g>
   <g id="matplotlib.axis_1">
    <g id="xtick_1">
     <g id="line2d_1">
      <defs>
       <path id="m805fee5793" d="M 0 0 
L 0 3.5 
" style="stroke: #000000; stroke-width: 0.8"/>
      </defs>
      <g>
       <use xlink:href="#m805fee5793" x="0" y="864" style="stroke: #000000; stroke-width: 0.8"/>
      </g>
     </g>
     <g id="text_1">
      <!-- −50 -->
      <g transform="translate(-10.552344 878.598438) scale(0.1 -0.1)">
       <defs>
        <path id="DejaVuSans-2212" d="M 678 2272 
L 4684 2272 
L 4684 1741 
L 678 1741 
L 678 2272 
z
" transform="scale(0.015625)"/>
        <path id="DejaVuSans-35" d="M 691 4666 
L 3169 4666 
L 3169 4134 
L 1269 4134 
L 1269 2991 
Q 1406 3038 1543 3061 
Q 1681 3084 1819 3084 
Q 2600 3084 3056 2656 
Q 3513 2228 3513 1497 
Q 3513 744 3044 326 
Q 2575 -91 1722 -91 
Q 1428 -91 1123 -41 
Q 819 9 494 109 
L 494 744 
Q 775 591 1075 516 
Q 1375 441 1709 441 
Q 2250 441 2565 725 
Q 2881 1009 2881 1497 
Q 2881 1984 2565 2268 
Q 2250 2553 1709 2553 
Q 1456 2553 1204 2497 
Q 953 2441 691 2322 
L 691 4666 
z
" transform="scale(0.015625)"/>
        <path id="DejaVuSans-30" d="M 2034 4250 
Q 1547 4250 1301 3770 
Q 1056 3291 1056 2328 
Q 1056 1369 1301 889 
Q 1547 409 2034 409 
Q 2525 409 2770 889 
Q 3016 1369 3016 2328 
Q 3016 3291 2770 3770 
Q 2525 4250 2034 4250 
z
M 2034 4750 
Q 2819 4750 3233 4129 
Q 3647 3509 3647 2328 
Q 3647 1150 3233 529 
Q 2819 -91 2034 -91 
Q 1250 -91 836 529 
Q 422 1150 422 2328 
Q 422 3509 836 4129 
Q 1250 4750 2034 4750 
z
" transform="scale(0.015625)"/>
       </defs>
       <use xlink:href="#DejaVuSans-2212"/>
       <use xlink:href="#DejaVuSans-35" x="83.789062"/>
       <use xlink:href="#DejaVuSans-30" x="147.412109"/>
      </g>
     </g>
    </g>
    <g id="xtick_2">
     <g id="line2d_2">
      <g>
       <use xlink:href="#m805fee5793" x="230.4" y="864" style="stroke: #000000; stroke-width: 0.8"/>
      </g>
     </g>
     <g id="text_2">
      <!-- −40 -->
      <g transform="translate(219.847656 878.598438) scale(0.1 -0.1)">
       <defs>
        <path id="DejaVuSans-34" d="M 2419 4116 
L 825 1625 
L 2419 1625 
L 2419 4116 
z
M 2253 4666 
L 3047 4666 
L 3047 1625 
L 3713 1625 
L 3713 1100 
L 3047 1100 
L 3047 0 
L 2419 0 
L 2419 1100 
L 313 1100 
L 313 1709 
L 2253 4666 
z
" transform="scale(0.015625)"/>
       </defs>
       <use xlink:href="#DejaVuSans-2212"/>
       <use xlink:href="#DejaVuSans-34" x="83.789062"/>
       <use xlink:href="#DejaVuSans-30" x="147.412109"/>
      </g>
     </g>
    </g>
    <g id="xtick_3">
     <g id="line2d_3">
      <g>
       <use xlink:href="#m805fee5793" x="460.8" y="864" style="stroke: #000000; stroke-width: 0.8"/>
      </g>
     </g>
     <g id="text_3">
      <!-- −30 -->
      <g transform="translate(450.247656 878.598438) scale(0.1 -0.1)">
       <defs>
        <path id="DejaVuSans-33" d="M 2597 2516 
Q 3050 2419 3304 2112 
Q 3559 1806 3559 1356 
Q 3559 666 3084 287 
Q 2609 -91 1734 -91 
Q 1441 -91 1130 -33 
Q 819 25 488 141 
L 488 750 
Q 750 597 1062 519 
Q 1375 441 1716 441 
Q 2309 441 2620 675 
Q 2931 909 2931 1356 
Q 2931 1769 2642 2001 
Q 2353 2234 1838 2234 
L 1294 2234 
L 1294 2753 
L 1863 2753 
Q 2328 2753 2575 2939 
Q 2822 3125 2822 3475 
Q 2822 3834 2567 4026 
Q 2313 4219 1838 4219 
Q 1578 4219 1281 4162 
Q 984 4106 628 3988 
L 628 4550 
Q 988 4650 1302 4700 
Q 1616 4750 1894 4750 
Q 2613 4750 3031 4423 
Q 3450 4097 3450 3541 
Q 3450 3153 3228 2886 
Q 3006 2619 2597 2516 
z
" transform="scale(0.015625)"/>
       </defs>
       <use xlink:href="#DejaVuSans-2212"/>
       <use xlink:href="#DejaVuSans-33" x="83.789062"/>
       <use xlink:href="#DejaVuSans-30" x="147.412109"/>
      </g>
     </g>
    </g>
    <g id="xtick_4">
     <g id="line2d_4">
      <g>
       <use xlink:href="#m805fee5793" x="691.2" y="864" style="stroke: #000000; stroke-width: 0.8"/>
      </g>
     </g>
     <g id="text_4">
      <!-- −20 -->
      <g transform="translate(680.647656 878.598438) scale(0.1 -0.1)">
       <defs>
        <path id="DejaVuSans-32" d="M 1228 531 
L 3431 531 
L 3431 0 
L 469 0 
L 469 531 
Q 828 903 1448 1529 
Q 2069 2156 2228 2338 
Q 2531 2678 2651 2914 
Q 2772 3150 2772 3378 
Q 2772 3750 2511 3984 
Q 2250 4219 1831 4219 
Q 1534 4219 1204 4116 
Q 875 4013 500 3803 
L 500 4441 
Q 881 4594 1212 4672 
Q 1544 4750 1819 4750 
Q 2544 4750 2975 4387 
Q 3406 4025 3406 3419 
Q 3406 3131 3298 2873 
Q 3191 2616 2906 2266 
Q 2828 2175 2409 1742 
Q 1991 1309 1228 531 
z
" transform="scale(0.015625)"/>
       </defs>
       <use xlink:href="#DejaVuSans-2212"/>
       <use xlink:href="#DejaVuSans-32" x="83.789062"/>
       <use xlink:href="#DejaVuSans-30" x="147.412109"/>
      </g>
     </g>
    </g>
    <g id="xtick_5">
     <g id="line2d_5">
      <g>
       <use xlink:href="#m805fee5793" x="921.6" y="864" style="stroke: #000000; stroke-width: 0.8"/>
      </g>
     </g>
     <g id="text_5">
      <!-- −10 -->
      <g transform="translate(911.047656 878.598438) scale(0.1 -0.1)">
       <defs>
        <path id="DejaVuSans-31" d="M 794 531 
L 1825 531 
L 1825 4091 
L 703 3866 
L 703 4441 
L 1819 4666 
L 2450 4666 
L 2450 531 
L 3481 531 
L 3481 0 
L 794 0 
L 794 531 
z
" transform="scale(0.015625)"/>
       </defs>
       <use xlink:href="#DejaVuSans-2212"/>
       <use xlink:href="#DejaVuSans-31" x="83.789062"/>
       <use xlink:href="#DejaVuSans-30" x="147.412109"/>
      </g>
     </g>
    </g>
    <g id="xtick_6">
     <g id="line2d_6">
      <g>
       <use xlink:href="#m805fee5793" x="1152" y="864" style="stroke: #000000; stroke-width: 0.8"/>
      </g>
     </g>
     <g id="text_6">
      <!-- 0 -->
      <g transform="translate(1148.81875 878.598438) scale(0.1 -0.1)">
       <use xlink:href="#DejaVuSans-30"/>
      </g>
     </g>
    </g>
    <g id="text_7">
     <!-- X -->
     <g transform="translate(570.52 896.835625) scale(0.16 -0.16)">
      <defs>
       <path id="DejaVuSans-58" d="M 403 4666 
L 1081 4666 
L 2241 2931 
L 3406 4666 
L 4084 4666 
L 2584 2425 
L 4184 0 
L 3506 0 
L 2194 1984 
L 872 0 
L 191 0 
L 1856 2491 
L 403 4666 
z
" transform="scale(0.015625)"/>
      </defs>
      <use xlink:href="#DejaVuSans-58"/>
     </g>
    </g>
   </g>
   <g id="matplotlib.axis_2">
    <g id="ytick_1">
     <g id="line2d_7">
      <defs>
       <path id="mb772f91658" d="M 0 0 
L -3.5 0 
" style="stroke: #000000; stroke-width: 0.8"/>
      </defs>
      <g>
       <use xlink:href="#mb772f91658" x="0" y="864" style="stroke: #000000; stroke-width: 0.8"/>
      </g>
     </g>
     <g id="text_8">
      <!-- −10 -->
      <g transform="translate(-28.104688 867.799219) scale(0.1 -0.1)">
       <use xlink:href="#DejaVuSans-2212"/>
       <use xlink:href="#DejaVuSans-31" x="83.789062"/>
       <use xlink:href="#DejaVuSans-30" x="147.412109"/>
      </g>
     </g>
    </g>
    <g id="ytick_2">
     <g id="line2d_8">
      <g>
       <use xlink:href="#mb772f91658" x="0" y="740.571429" style="stroke: #000000; stroke-width: 0.8"/>
      </g>
     </g>
     <g id="text_9">
      <!-- −5 -->
      <g transform="translate(-21.742188 744.370647) scale(0.1 -0.1)">
       <use xlink:href="#DejaVuSans-2212"/>
       <use xlink:href="#DejaVuSans-35" x="83.789062"/>
      </g>
     </g>
    </g>
    <g id="ytick_3">
     <g id="line2d_9">
      <g>
       <use xlink:href="#mb772f91658" x="0" y="617.142857" style="stroke: #000000; stroke-width: 0.8"/>
      </g>
     </g>
     <g id="text_10">
      <!-- 0 -->
      <g transform="translate(-13.3625 620.942076) scale(0.1 -0.1)">
       <use xlink:href="#DejaVuSans-30"/>
      </g>
     </g>
    </g>
    <g id="ytick_4">
     <g id="line2d_10">
      <g>
       <use xlink:href="#mb772f91658" x="0" y="493.714286" style="stroke: #000000; stroke-width: 0.8"/>
      </g>
     </g>
     <g id="text_11">
      <!-- 5 -->
      <g transform="translate(-13.3625 497.513504) scale(0.1 -0.1)">
       <use xlink:href="#DejaVuSans-35"/>
      </g>
     </g>
    </g>
    <g id="ytick_5">
     <g id="line2d_11">
      <g>
       <use xlink:href="#mb772f91658" x="0" y="370.285714" style="stroke: #000000; stroke-width: 0.8"/>
      </g>
     </g>
     <g id="text_12">
      <!-- 10 -->
      <g transform="translate(-19.725 374.084933) scale(0.1 -0.1)">
       <use xlink:href="#DejaVuSans-31"/>
       <use xlink:href="#DejaVuSans-30" x="63.623047"/>
      </g>
     </g>
    </g>
    <g id="ytick_6">
     <g id="line2d_12">
      <g>
       <use xlink:href="#mb772f91658" x="0" y="246.857143" style="stroke: #000000; stroke-width: 0.8"/>
      </g>
     </g>
     <g id="text_13">
      <!-- 15 -->
      <g transform="translate(-19.725 250.656362) scale(0.1 -0.1)">
       <use xlink:href="#DejaVuSans-31"/>
       <use xlink:href="#DejaVuSans-35" x="63.623047"/>
      </g>
     </g>
    </g>
    <g id="ytick_7">
     <g id="line2d_13">
      <g>
       <use xlink:href="#mb772f91658" x="0" y="123.428571" style="stroke: #000000; stroke-width: 0.8"/>
      </g>
     </g>
     <g id="text_14">
      <!-- 20 -->
      <g transform="translate(-19.725 127.22779) scale(0.1 -0.1)">
       <use xlink:href="#DejaVuSans-32"/>
       <use xlink:href="#DejaVuSans-30" x="63.623047"/>
      </g>
     </g>
    </g>
    <g id="ytick_8">
     <g id="line2d_14">
      <g>
       <use xlink:href="#mb772f91658" x="0" y="0" style="stroke: #000000; stroke-width: 0.8"/>
      </g>
     </g>
     <g id="text_15">
      <!-- 25 -->
      <g transform="translate(-19.725 3.799219) scale(0.1 -0.1)">
       <use xlink:href="#DejaVuSans-32"/>
       <use xlink:href="#DejaVuSans-35" x="63.623047"/>
      </g>
     </g>
    </g>
    <g id="text_16">
     <!-- f(X) -->
     <g transform="translate(-35.432187 446.53875) rotate(-90) scale(0.16 -0.16)">
      <defs>
       <path id="DejaVuSans-66" d="M 2375 4863 
L 2375 4384 
L 1825 4384 
Q 1516 4384 1395 4259 
Q 1275 4134 1275 3809 
L 1275 3500 
L 2222 3500 
L 2222 3053 
L 1275 3053 
L 1275 0 
L 697 0 
L 697 3053 
L 147 3053 
L 147 3500 
L 697 3500 
L 697 3744 
Q 697 4328 969 4595 
Q 1241 4863 1831 4863 
L 2375 4863 
z
" transform="scale(0.015625)"/>
       <path id="DejaVuSans-28" d="M 1984 4856 
Q 1566 4138 1362 3434 
Q 1159 2731 1159 2009 
Q 1159 1288 1364 580 
Q 1569 -128 1984 -844 
L 1484 -844 
Q 1016 -109 783 600 
Q 550 1309 550 2009 
Q 550 2706 781 3412 
Q 1013 4119 1484 4856 
L 1984 4856 
z
" transform="scale(0.015625)"/>
       <path id="DejaVuSans-29" d="M 513 4856 
L 1013 4856 
Q 1481 4119 1714 3412 
Q 1947 2706 1947 2009 
Q 1947 1309 1714 600 
Q 1481 -109 1013 -844 
L 513 -844 
Q 928 -128 1133 580 
Q 1338 1288 1338 2009 
Q 1338 2731 1133 3434 
Q 928 4138 513 4856 
z
" transform="scale(0.015625)"/>
      </defs>
      <use xlink:href="#DejaVuSans-66"/>
      <use xlink:href="#DejaVuSans-28" x="35.205078"/>
      <use xlink:href="#DejaVuSans-58" x="74.21875"/>
      <use xlink:href="#DejaVuSans-29" x="142.724609"/>
     </g>
    </g>
   </g>
   <g id="line2d_15">
    <path d="M -1 592.95043 
L 428.544 593.243312 
L 654.336 593.6 
L 787.968 594.01953 
L 870.912 594.480562 
L 930.816 595.028571 
L 972.288 595.621978 
L 1004.544 596.314286 
L 1027.584 597.028571 
L 1046.016 597.823602 
L 1059.84 598.628571 
L 1069.056 599.314286 
L 1078.272 600.171429 
L 1087.488 601.273469 
L 1092.096 601.951648 
L 1096.704 602.742857 
L 1101.312 603.677922 
L 1105.92 604.8 
L 1110.528 606.171429 
L 1115.136 607.885714 
L 1119.744 610.089796 
L 1124.352 613.028571 
L 1128.96 617.142857 
L 1133.568 623.314286 
L 1138.176 633.6 
L 1142.784 654.171429 
L 1147.392 715.885714 
L 1147.392 715.885714 
" clip-path="url(#p4d1e108cc6)" style="fill: none; stroke: #ff0000; stroke-width: 1.5; stroke-linecap: square"/>
   </g>
   <g id="line2d_16">
    <path d="M -1 593.443718 
L 322.56 593.828571 
L 525.312 594.272269 
L 663.552 594.785984 
L 760.32 595.361345 
L 829.44 595.983673 
L 880.128 596.641162 
L 921.6 597.394286 
L 953.856 598.198007 
L 981.504 599.128958 
L 999.936 599.937662 
L 1018.368 600.969458 
L 1032.192 601.951648 
L 1046.016 603.190062 
L 1055.232 604.212245 
L 1064.448 605.449624 
L 1073.664 606.978151 
L 1078.272 607.885714 
L 1082.88 608.914286 
L 1087.488 610.089796 
L 1092.096 611.446154 
L 1096.704 613.028571 
L 1101.312 614.898701 
L 1105.92 617.142857 
L 1110.528 619.885714 
L 1115.136 623.314286 
L 1119.744 627.722449 
L 1124.352 633.6 
L 1128.96 641.828571 
L 1133.568 654.171429 
L 1138.176 674.742857 
L 1142.784 715.885714 
L 1147.392 839.314286 
L 1147.392 839.314286 
" clip-path="url(#p4d1e108cc6)" style="fill: none; stroke: #0000ff; stroke-width: 1.5; stroke-linecap: square"/>
   </g>
   <g id="line2d_17">
    <path d="M -1 592.447286 
L 838.656 592.323678 
L 953.856 592.123372 
L 1004.544 591.854464 
L 1036.8 591.469714 
L 1055.232 591.057726 
L 1069.056 590.552381 
L 1078.272 590.046429 
L 1087.488 589.308455 
L 1092.096 588.80541 
L 1096.704 588.171429 
L 1101.312 587.356789 
L 1105.92 586.285714 
L 1110.528 584.838095 
L 1115.136 582.814286 
L 1119.744 579.862391 
L 1124.352 575.314286 
L 1128.96 567.771429 
L 1133.568 553.885714 
L 1138.176 523.885714 
L 1142.784 438.171429 
L 1147.156196 -1 
L 1147.156196 -1 
" clip-path="url(#p4d1e108cc6)" style="fill: none; stroke: #008000; stroke-width: 1.5; stroke-linecap: square"/>
   </g>
   <g id="line2d_18">
    <path d="M -1 617.142857 
L 1152 617.142857 
L 1152 617.142857 
" clip-path="url(#p4d1e108cc6)" style="fill: none; stroke-dasharray: 5.55,2.4; stroke-dashoffset: 0; stroke: #bfbf00; stroke-width: 1.5"/>
   </g>
   <g id="patch_3">
    <path d="M 0 864 
L 0 0 
" style="fill: none; stroke: #000000; stroke-width: 0.8; stroke-linejoin: miter; stroke-linecap: square"/>
   </g>
   <g id="patch_4">
    <path d="M 1152 864 
L 1152 0 
" style="fill: none; stroke: #000000; stroke-width: 0.8; stroke-linejoin: miter; stroke-linecap: square"/>
   </g>
   <g id="patch_5">
    <path d="M 0 864 
L 1152 864 
" style="fill: none; stroke: #000000; stroke-width: 0.8; stroke-linejoin: miter; stroke-linecap: square"/>
   </g>
   <g id="patch_6">
    <path d="M 0 0 
L 1152 0 
" style="fill: none; stroke: #000000; stroke-width: 0.8; stroke-linejoin: miter; stroke-linecap: square"/>
   </g>
   <g id="text_17">
    <!-- График функции f(x)=$\frac{x^{\beta}+\alpha^{\beta}}{x^{\beta}}$ при различных $\alpha$ и $\beta$ -->
    <g transform="translate(345.51 -9.36) scale(0.18 -0.18)">
     <defs>
      <path id="DejaVuSans-413" d="M 628 0 
L 628 4666 
L 3531 4666 
L 3531 4134 
L 1259 4134 
L 1259 0 
L 628 0 
z
" transform="scale(0.015625)"/>
      <path id="DejaVuSans-440" d="M 1159 525 
L 1159 -1331 
L 581 -1331 
L 581 3500 
L 1159 3500 
L 1159 2969 
Q 1341 3281 1617 3432 
Q 1894 3584 2278 3584 
Q 2916 3584 3314 3078 
Q 3713 2572 3713 1747 
Q 3713 922 3314 415 
Q 2916 -91 2278 -91 
Q 1894 -91 1617 61 
Q 1341 213 1159 525 
z
M 3116 1747 
Q 3116 2381 2855 2742 
Q 2594 3103 2138 3103 
Q 1681 3103 1420 2742 
Q 1159 2381 1159 1747 
Q 1159 1113 1420 752 
Q 1681 391 2138 391 
Q 2594 391 2855 752 
Q 3116 1113 3116 1747 
z
" transform="scale(0.015625)"/>
      <path id="DejaVuSans-430" d="M 2194 1759 
Q 1497 1759 1228 1600 
Q 959 1441 959 1056 
Q 959 750 1161 570 
Q 1363 391 1709 391 
Q 2188 391 2477 730 
Q 2766 1069 2766 1631 
L 2766 1759 
L 2194 1759 
z
M 3341 1997 
L 3341 0 
L 2766 0 
L 2766 531 
Q 2569 213 2275 61 
Q 1981 -91 1556 -91 
Q 1019 -91 701 211 
Q 384 513 384 1019 
Q 384 1609 779 1909 
Q 1175 2209 1959 2209 
L 2766 2209 
L 2766 2266 
Q 2766 2663 2505 2880 
Q 2244 3097 1772 3097 
Q 1472 3097 1187 3025 
Q 903 2953 641 2809 
L 641 3341 
Q 956 3463 1253 3523 
Q 1550 3584 1831 3584 
Q 2591 3584 2966 3190 
Q 3341 2797 3341 1997 
z
" transform="scale(0.015625)"/>
      <path id="DejaVuSans-444" d="M 947 1747 
Q 947 1013 1173 702 
Q 1400 391 1784 391 
Q 2091 391 2447 916 
L 2447 2578 
Q 2091 3103 1784 3103 
Q 1400 3103 1173 2792 
Q 947 2481 947 1747 
z
M 2447 -1331 
L 2447 447 
Q 2269 153 2064 31 
Q 1859 -91 1600 -91 
Q 1078 -91 714 392 
Q 350 875 350 1734 
Q 350 2594 714 3089 
Q 1078 3584 1600 3584 
Q 1859 3584 2064 3465 
Q 2269 3347 2447 3053 
L 2447 4666 
L 3025 4666 
L 3025 3053 
Q 3203 3347 3408 3465 
Q 3613 3584 3872 3584 
Q 4394 3584 4758 3089 
Q 5122 2594 5122 1734 
Q 5122 875 4758 392 
Q 4394 -91 3872 -91 
Q 3613 -91 3408 31 
Q 3203 153 3025 447 
L 3025 -1331 
L 2447 -1331 
z
M 4525 1747 
Q 4525 2481 4298 2792 
Q 4072 3103 3688 3103 
Q 3381 3103 3025 2578 
L 3025 916 
Q 3381 391 3688 391 
Q 4072 391 4298 702 
Q 4525 1013 4525 1747 
z
" transform="scale(0.015625)"/>
      <path id="DejaVuSans-438" d="M 3578 3500 
L 3578 0 
L 3006 0 
L 3006 2809 
L 1319 0 
L 581 0 
L 581 3500 
L 1153 3500 
L 1153 697 
L 2838 3500 
L 3578 3500 
z
" transform="scale(0.015625)"/>
      <path id="DejaVuSans-43a" d="M 581 3500 
L 1153 3500 
L 1153 1856 
L 2775 3500 
L 3481 3500 
L 2144 2147 
L 3653 0 
L 3009 0 
L 1769 1766 
L 1153 1141 
L 1153 0 
L 581 0 
L 581 3500 
z
" transform="scale(0.015625)"/>
      <path id="DejaVuSans-20" transform="scale(0.015625)"/>
      <path id="DejaVuSans-443" d="M 2059 -325 
Q 1816 -950 1584 -1140 
Q 1353 -1331 966 -1331 
L 506 -1331 
L 506 -850 
L 844 -850 
Q 1081 -850 1212 -737 
Q 1344 -625 1503 -206 
L 1606 56 
L 191 3500 
L 800 3500 
L 1894 763 
L 2988 3500 
L 3597 3500 
L 2059 -325 
z
" transform="scale(0.015625)"/>
      <path id="DejaVuSans-43d" d="M 581 3500 
L 1159 3500 
L 1159 2072 
L 3025 2072 
L 3025 3500 
L 3603 3500 
L 3603 0 
L 3025 0 
L 3025 1613 
L 1159 1613 
L 1159 0 
L 581 0 
L 581 3500 
z
" transform="scale(0.015625)"/>
      <path id="DejaVuSans-446" d="M 3603 0 
L 581 0 
L 581 3500 
L 1159 3500 
L 1159 459 
L 3025 459 
L 3025 3500 
L 3603 3500 
L 3603 459 
L 4063 459 
L 4063 -884 
L 3603 -884 
L 3603 0 
z
" transform="scale(0.015625)"/>
      <path id="DejaVuSans-78" d="M 3513 3500 
L 2247 1797 
L 3578 0 
L 2900 0 
L 1881 1375 
L 863 0 
L 184 0 
L 1544 1831 
L 300 3500 
L 978 3500 
L 1906 2253 
L 2834 3500 
L 3513 3500 
z
" transform="scale(0.015625)"/>
      <path id="DejaVuSans-3d" d="M 678 2906 
L 4684 2906 
L 4684 2381 
L 678 2381 
L 678 2906 
z
M 678 1631 
L 4684 1631 
L 4684 1100 
L 678 1100 
L 678 1631 
z
" transform="scale(0.015625)"/>
      <path id="DejaVuSans-Oblique-78" d="M 3841 3500 
L 2234 1784 
L 3219 0 
L 2559 0 
L 1819 1388 
L 531 0 
L -166 0 
L 1556 1844 
L 641 3500 
L 1300 3500 
L 1972 2234 
L 3144 3500 
L 3841 3500 
z
" transform="scale(0.015625)"/>
      <path id="DejaVuSans-Oblique-3b2" d="M 872 216 
L 572 -1331 
L -6 -1331 
L 928 3478 
Q 1206 4903 2538 4903 
Q 3888 4903 3659 3700 
Q 3503 2844 2894 2531 
Q 3713 2250 3553 1416 
Q 3272 -69 1759 -66 
Q 1097 -63 872 216 
z
M 1019 966 
Q 1259 422 1875 425 
Q 2775 425 2966 1406 
Q 3138 2288 1675 2219 
L 1778 2750 
Q 2909 2731 3106 3750 
Q 3241 4438 2509 4434 
Q 1691 4434 1503 3459 
L 1019 966 
z
" transform="scale(0.015625)"/>
      <path id="DejaVuSans-2b" d="M 2944 4013 
L 2944 2272 
L 4684 2272 
L 4684 1741 
L 2944 1741 
L 2944 0 
L 2419 0 
L 2419 1741 
L 678 1741 
L 678 2272 
L 2419 2272 
L 2419 4013 
L 2944 4013 
z
" transform="scale(0.015625)"/>
      <path id="DejaVuSans-Oblique-3b1" d="M 2619 1628 
L 2622 2350 
Q 2625 3088 2069 3091 
Q 1653 3094 1394 2747 
Q 1069 2319 959 1747 
Q 825 1059 994 731 
Q 1169 397 1547 397 
Q 1966 397 2319 1063 
L 2619 1628 
z
M 2166 3578 
Q 3141 3594 3128 2584 
Q 3128 2584 3616 3500 
L 4128 3500 
L 3119 1603 
L 3109 919 
Q 3109 766 3194 638 
Q 3291 488 3391 488 
L 3669 488 
L 3575 0 
L 3228 0 
Q 2934 0 2722 263 
Q 2622 394 2619 669 
Q 2416 334 2066 50 
Q 1900 -81 1453 -78 
Q 722 -72 456 397 
Q 184 884 353 1747 
Q 534 2675 1009 3097 
Q 1544 3569 2166 3578 
z
" transform="scale(0.015625)"/>
      <path id="DejaVuSans-43f" d="M 3603 3500 
L 3603 0 
L 3025 0 
L 3025 3041 
L 1159 3041 
L 1159 0 
L 581 0 
L 581 3500 
L 3603 3500 
z
" transform="scale(0.015625)"/>
      <path id="DejaVuSans-437" d="M 2206 1888 
Q 2594 1813 2809 1584 
Q 3025 1356 3025 1019 
Q 3025 478 2622 193 
Q 2219 -91 1475 -91 
Q 1225 -91 961 -47 
Q 697 -3 416 84 
L 416 619 
Q 638 503 903 445 
Q 1169 388 1459 388 
Q 1931 388 2195 563 
Q 2459 738 2459 1019 
Q 2459 1294 2225 1461 
Q 1991 1628 1563 1628 
L 1100 1628 
L 1100 2103 
L 1584 2103 
Q 1947 2103 2158 2242 
Q 2369 2381 2369 2600 
Q 2369 2800 2151 2944 
Q 1934 3088 1563 3088 
Q 1341 3088 1089 3047 
Q 838 3006 534 2916 
L 534 3438 
Q 841 3513 1106 3550 
Q 1372 3588 1609 3588 
Q 2222 3588 2576 3342 
Q 2931 3097 2931 2656 
Q 2931 2366 2743 2164 
Q 2556 1963 2206 1888 
z
" transform="scale(0.015625)"/>
      <path id="DejaVuSans-43b" d="M 238 0 
L 238 478 
Q 806 566 981 959 
Q 1194 1513 1194 2928 
L 1194 3500 
L 3559 3500 
L 3559 0 
L 2984 0 
L 2984 3041 
L 1769 3041 
L 1769 2694 
Q 1769 1344 1494 738 
Q 1200 91 238 0 
z
" transform="scale(0.015625)"/>
      <path id="DejaVuSans-447" d="M 2625 0 
L 2625 1472 
L 1553 1472 
Q 1075 1472 756 1769 
Q 469 2038 469 2613 
L 469 3500 
L 1044 3500 
L 1044 2666 
Q 1044 2300 1206 2116 
Q 1372 1931 1697 1931 
L 2625 1931 
L 2625 3500 
L 3200 3500 
L 3200 0 
L 2625 0 
z
" transform="scale(0.015625)"/>
      <path id="DejaVuSans-44b" d="M 3907 3500 
L 4482 3500 
L 4482 0 
L 3907 0 
L 3907 3500 
z
M 4195 3584 
L 4195 3584 
z
M 2781 1038 
Q 2781 1319 2576 1466 
Q 2372 1613 1978 1613 
L 1159 1613 
L 1159 459 
L 1978 459 
Q 2372 459 2576 607 
Q 2781 756 2781 1038 
z
M 581 3500 
L 1159 3500 
L 1159 2072 
L 2003 2072 
Q 2672 2072 3033 1817 
Q 3394 1563 3394 1038 
Q 3394 513 3033 256 
Q 2672 0 2003 0 
L 581 0 
L 581 3500 
z
" transform="scale(0.015625)"/>
      <path id="DejaVuSans-445" d="M 3513 3500 
L 2247 1797 
L 3578 0 
L 2900 0 
L 1881 1375 
L 863 0 
L 184 0 
L 1544 1831 
L 300 3500 
L 978 3500 
L 1906 2253 
L 2834 3500 
L 3513 3500 
z
" transform="scale(0.015625)"/>
     </defs>
     <use xlink:href="#DejaVuSans-413" transform="translate(0 0.981719)"/>
     <use xlink:href="#DejaVuSans-440" transform="translate(60.986328 0.981719)"/>
     <use xlink:href="#DejaVuSans-430" transform="translate(124.462891 0.981719)"/>
     <use xlink:href="#DejaVuSans-444" transform="translate(185.742188 0.981719)"/>
     <use xlink:href="#DejaVuSans-438" transform="translate(271.240234 0.981719)"/>
     <use xlink:href="#DejaVuSans-43a" transform="translate(336.230469 0.981719)"/>
     <use xlink:href="#DejaVuSans-20" transform="translate(396.630859 0.981719)"/>
     <use xlink:href="#DejaVuSans-444" transform="translate(428.417969 0.981719)"/>
     <use xlink:href="#DejaVuSans-443" transform="translate(513.916016 0.981719)"/>
     <use xlink:href="#DejaVuSans-43d" transform="translate(573.095703 0.981719)"/>
     <use xlink:href="#DejaVuSans-43a" transform="translate(638.476562 0.981719)"/>
     <use xlink:href="#DejaVuSans-446" transform="translate(698.876953 0.981719)"/>
     <use xlink:href="#DejaVuSans-438" transform="translate(766.943359 0.981719)"/>
     <use xlink:href="#DejaVuSans-438" transform="translate(831.933594 0.981719)"/>
     <use xlink:href="#DejaVuSans-20" transform="translate(896.923828 0.981719)"/>
     <use xlink:href="#DejaVuSans-66" transform="translate(928.710938 0.981719)"/>
     <use xlink:href="#DejaVuSans-28" transform="translate(963.916016 0.981719)"/>
     <use xlink:href="#DejaVuSans-78" transform="translate(1002.929688 0.981719)"/>
     <use xlink:href="#DejaVuSans-29" transform="translate(1062.109375 0.981719)"/>
     <use xlink:href="#DejaVuSans-3d" transform="translate(1101.123047 0.981719)"/>
     <use xlink:href="#DejaVuSans-Oblique-78" transform="translate(1184.912109 45.664531) scale(0.7)"/>
     <use xlink:href="#DejaVuSans-Oblique-3b2" transform="translate(1229.464193 72.461406) scale(0.49)"/>
     <use xlink:href="#DejaVuSans-2b" transform="translate(1276.286947 45.664531) scale(0.7)"/>
     <use xlink:href="#DejaVuSans-Oblique-3b1" transform="translate(1348.576986 45.664531) scale(0.7)"/>
     <use xlink:href="#DejaVuSans-Oblique-3b2" transform="translate(1397.989803 72.461406) scale(0.49)"/>
     <use xlink:href="#DejaVuSans-Oblique-78" transform="translate(1268.912109 -50.806875) scale(0.7)"/>
     <use xlink:href="#DejaVuSans-Oblique-3b2" transform="translate(1313.464193 -24.01) scale(0.49)"/>
     <use xlink:href="#DejaVuSans-20" transform="translate(1443.674862 0.981719)"/>
     <use xlink:href="#DejaVuSans-43f" transform="translate(1475.461971 0.981719)"/>
     <use xlink:href="#DejaVuSans-440" transform="translate(1540.842831 0.981719)"/>
     <use xlink:href="#DejaVuSans-438" transform="translate(1604.319393 0.981719)"/>
     <use xlink:href="#DejaVuSans-20" transform="translate(1669.309628 0.981719)"/>
     <use xlink:href="#DejaVuSans-440" transform="translate(1701.096737 0.981719)"/>
     <use xlink:href="#DejaVuSans-430" transform="translate(1764.573299 0.981719)"/>
     <use xlink:href="#DejaVuSans-437" transform="translate(1825.852596 0.981719)"/>
     <use xlink:href="#DejaVuSans-43b" transform="translate(1879.026424 0.981719)"/>
     <use xlink:href="#DejaVuSans-438" transform="translate(1942.94244 0.981719)"/>
     <use xlink:href="#DejaVuSans-447" transform="translate(2007.932674 0.981719)"/>
     <use xlink:href="#DejaVuSans-43d" transform="translate(2067.014706 0.981719)"/>
     <use xlink:href="#DejaVuSans-44b" transform="translate(2132.395565 0.981719)"/>
     <use xlink:href="#DejaVuSans-445" transform="translate(2211.350643 0.981719)"/>
     <use xlink:href="#DejaVuSans-20" transform="translate(2270.530331 0.981719)"/>
     <use xlink:href="#DejaVuSans-Oblique-3b1" transform="translate(2302.31744 0.981719)"/>
     <use xlink:href="#DejaVuSans-20" transform="translate(2368.235409 0.981719)"/>
     <use xlink:href="#DejaVuSans-438" transform="translate(2400.022518 0.981719)"/>
     <use xlink:href="#DejaVuSans-20" transform="translate(2465.012753 0.981719)"/>
     <use xlink:href="#DejaVuSans-Oblique-3b2" transform="translate(2496.799862 0.981719)"/>
     <path d="M 1184.912109 19.778594 
L 1184.912109 26.028594 
L 1431.174862 26.028594 
L 1431.174862 19.778594 
L 1184.912109 19.778594 
z
"/>
    </g>
   </g>
   <g id="legend_1">
    <g id="patch_7">
     <path d="M 1011.16 93.909375 
L 1142.2 93.909375 
Q 1145 93.909375 1145 91.109375 
L 1145 9.8 
Q 1145 7 1142.2 7 
L 1011.16 7 
Q 1008.36 7 1008.36 9.8 
L 1008.36 91.109375 
Q 1008.36 93.909375 1011.16 93.909375 
z
" style="fill: #ffffff; opacity: 0.8; stroke: #cccccc; stroke-linejoin: miter"/>
    </g>
    <g id="line2d_19">
     <path d="M 1013.96 18.48 
L 1027.96 18.48 
L 1041.96 18.48 
" style="fill: none; stroke: #ff0000; stroke-width: 1.5; stroke-linecap: square"/>
    </g>
    <g id="text_18">
     <!-- $\alpha$ = 1, $\beta$ = 1 -->
     <g transform="translate(1053.16 23.38) scale(0.14 -0.14)">
      <defs>
       <path id="DejaVuSans-2c" d="M 750 794 
L 1409 794 
L 1409 256 
L 897 -744 
L 494 -744 
L 750 256 
L 750 794 
z
" transform="scale(0.015625)"/>
      </defs>
      <use xlink:href="#DejaVuSans-Oblique-3b1" transform="translate(0 0.390625)"/>
      <use xlink:href="#DejaVuSans-20" transform="translate(65.917969 0.390625)"/>
      <use xlink:href="#DejaVuSans-3d" transform="translate(97.705078 0.390625)"/>
      <use xlink:href="#DejaVuSans-20" transform="translate(181.494141 0.390625)"/>
      <use xlink:href="#DejaVuSans-31" transform="translate(213.28125 0.390625)"/>
      <use xlink:href="#DejaVuSans-2c" transform="translate(276.904297 0.390625)"/>
      <use xlink:href="#DejaVuSans-20" transform="translate(308.691406 0.390625)"/>
      <use xlink:href="#DejaVuSans-Oblique-3b2" transform="translate(340.478516 0.390625)"/>
      <use xlink:href="#DejaVuSans-20" transform="translate(404.296875 0.390625)"/>
      <use xlink:href="#DejaVuSans-3d" transform="translate(436.083984 0.390625)"/>
      <use xlink:href="#DejaVuSans-20" transform="translate(519.873047 0.390625)"/>
      <use xlink:href="#DejaVuSans-31" transform="translate(551.660156 0.390625)"/>
     </g>
    </g>
    <g id="line2d_20">
     <path d="M 1013.96 39.2 
L 1027.96 39.2 
L 1041.96 39.2 
" style="fill: none; stroke: #0000ff; stroke-width: 1.5; stroke-linecap: square"/>
    </g>
    <g id="text_19">
     <!-- $\alpha$ = 2, $\beta$ = 1 -->
     <g transform="translate(1053.16 44.1) scale(0.14 -0.14)">
      <use xlink:href="#DejaVuSans-Oblique-3b1" transform="translate(0 0.390625)"/>
      <use xlink:href="#DejaVuSans-20" transform="translate(65.917969 0.390625)"/>
      <use xlink:href="#DejaVuSans-3d" transform="translate(97.705078 0.390625)"/>
      <use xlink:href="#DejaVuSans-20" transform="translate(181.494141 0.390625)"/>
      <use xlink:href="#DejaVuSans-32" transform="translate(213.28125 0.390625)"/>
      <use xlink:href="#DejaVuSans-2c" transform="translate(276.904297 0.390625)"/>
      <use xlink:href="#DejaVuSans-20" transform="translate(308.691406 0.390625)"/>
      <use xlink:href="#DejaVuSans-Oblique-3b2" transform="translate(340.478516 0.390625)"/>
      <use xlink:href="#DejaVuSans-20" transform="translate(404.296875 0.390625)"/>
      <use xlink:href="#DejaVuSans-3d" transform="translate(436.083984 0.390625)"/>
      <use xlink:href="#DejaVuSans-20" transform="translate(519.873047 0.390625)"/>
      <use xlink:href="#DejaVuSans-31" transform="translate(551.660156 0.390625)"/>
     </g>
    </g>
    <g id="line2d_21">
     <path d="M 1013.96 59.92 
L 1027.96 59.92 
L 1041.96 59.92 
" style="fill: none; stroke: #008000; stroke-width: 1.5; stroke-linecap: square"/>
    </g>
    <g id="text_20">
     <!-- $\alpha$ = 1, $\beta$ = 2 -->
     <g transform="translate(1053.16 64.82) scale(0.14 -0.14)">
      <use xlink:href="#DejaVuSans-Oblique-3b1" transform="translate(0 0.390625)"/>
      <use xlink:href="#DejaVuSans-20" transform="translate(65.917969 0.390625)"/>
      <use xlink:href="#DejaVuSans-3d" transform="translate(97.705078 0.390625)"/>
      <use xlink:href="#DejaVuSans-20" transform="translate(181.494141 0.390625)"/>
      <use xlink:href="#DejaVuSans-31" transform="translate(213.28125 0.390625)"/>
      <use xlink:href="#DejaVuSans-2c" transform="translate(276.904297 0.390625)"/>
      <use xlink:href="#DejaVuSans-20" transform="translate(308.691406 0.390625)"/>
      <use xlink:href="#DejaVuSans-Oblique-3b2" transform="translate(340.478516 0.390625)"/>
      <use xlink:href="#DejaVuSans-20" transform="translate(404.296875 0.390625)"/>
      <use xlink:href="#DejaVuSans-3d" transform="translate(436.083984 0.390625)"/>
      <use xlink:href="#DejaVuSans-20" transform="translate(519.873047 0.390625)"/>
      <use xlink:href="#DejaVuSans-32" transform="translate(551.660156 0.390625)"/>
     </g>
    </g>
    <g id="line2d_22">
     <path d="M 1013.96 80.497812 
L 1027.96 80.497812 
L 1041.96 80.497812 
" style="fill: none; stroke-dasharray: 5.55,2.4; stroke-dashoffset: 0; stroke: #bfbf00; stroke-width: 1.5"/>
    </g>
    <g id="text_21">
     <!-- f(X)=1 -->
     <g transform="translate(1053.16 85.397812) scale(0.14 -0.14)">
      <use xlink:href="#DejaVuSans-66"/>
      <use xlink:href="#DejaVuSans-28" x="35.205078"/>
      <use xlink:href="#DejaVuSans-58" x="74.21875"/>
      <use xlink:href="#DejaVuSans-29" x="142.724609"/>
      <use xlink:href="#DejaVuSans-3d" x="181.738281"/>
      <use xlink:href="#DejaVuSans-31" x="265.527344"/>
     </g>
    </g>
   </g>
  </g>
  <g id="axes_2">
   <g id="patch_8">
    <path d="M 288 475.2 
L 806.4 475.2 
L 806.4 86.4 
L 288 86.4 
z
" style="fill: #ffffff"/>
   </g>
   <g id="matplotlib.axis_3">
    <g id="xtick_7">
     <g id="line2d_23">
      <g>
       <use xlink:href="#m805fee5793" x="311.563636" y="475.2" style="stroke: #000000; stroke-width: 0.8"/>
      </g>
     </g>
     <g id="text_22">
      <!-- −1.0 -->
      <g transform="translate(299.42223 489.798437) scale(0.1 -0.1)">
       <defs>
        <path id="DejaVuSans-2e" d="M 684 794 
L 1344 794 
L 1344 0 
L 684 0 
L 684 794 
z
" transform="scale(0.015625)"/>
       </defs>
       <use xlink:href="#DejaVuSans-2212"/>
       <use xlink:href="#DejaVuSans-31" x="83.789062"/>
       <use xlink:href="#DejaVuSans-2e" x="147.412109"/>
       <use xlink:href="#DejaVuSans-30" x="179.199219"/>
      </g>
     </g>
    </g>
    <g id="xtick_8">
     <g id="line2d_24">
      <g>
       <use xlink:href="#m805fee5793" x="405.827608" y="475.2" style="stroke: #000000; stroke-width: 0.8"/>
      </g>
     </g>
     <g id="text_23">
      <!-- −0.8 -->
      <g transform="translate(393.686202 489.798437) scale(0.1 -0.1)">
       <defs>
        <path id="DejaVuSans-38" d="M 2034 2216 
Q 1584 2216 1326 1975 
Q 1069 1734 1069 1313 
Q 1069 891 1326 650 
Q 1584 409 2034 409 
Q 2484 409 2743 651 
Q 3003 894 3003 1313 
Q 3003 1734 2745 1975 
Q 2488 2216 2034 2216 
z
M 1403 2484 
Q 997 2584 770 2862 
Q 544 3141 544 3541 
Q 544 4100 942 4425 
Q 1341 4750 2034 4750 
Q 2731 4750 3128 4425 
Q 3525 4100 3525 3541 
Q 3525 3141 3298 2862 
Q 3072 2584 2669 2484 
Q 3125 2378 3379 2068 
Q 3634 1759 3634 1313 
Q 3634 634 3220 271 
Q 2806 -91 2034 -91 
Q 1263 -91 848 271 
Q 434 634 434 1313 
Q 434 1759 690 2068 
Q 947 2378 1403 2484 
z
M 1172 3481 
Q 1172 3119 1398 2916 
Q 1625 2713 2034 2713 
Q 2441 2713 2670 2916 
Q 2900 3119 2900 3481 
Q 2900 3844 2670 4047 
Q 2441 4250 2034 4250 
Q 1625 4250 1398 4047 
Q 1172 3844 1172 3481 
z
" transform="scale(0.015625)"/>
       </defs>
       <use xlink:href="#DejaVuSans-2212"/>
       <use xlink:href="#DejaVuSans-30" x="83.789062"/>
       <use xlink:href="#DejaVuSans-2e" x="147.412109"/>
       <use xlink:href="#DejaVuSans-38" x="179.199219"/>
      </g>
     </g>
    </g>
    <g id="xtick_9">
     <g id="line2d_25">
      <g>
       <use xlink:href="#m805fee5793" x="500.09158" y="475.2" style="stroke: #000000; stroke-width: 0.8"/>
      </g>
     </g>
     <g id="text_24">
      <!-- −0.6 -->
      <g transform="translate(487.950174 489.798437) scale(0.1 -0.1)">
       <defs>
        <path id="DejaVuSans-36" d="M 2113 2584 
Q 1688 2584 1439 2293 
Q 1191 2003 1191 1497 
Q 1191 994 1439 701 
Q 1688 409 2113 409 
Q 2538 409 2786 701 
Q 3034 994 3034 1497 
Q 3034 2003 2786 2293 
Q 2538 2584 2113 2584 
z
M 3366 4563 
L 3366 3988 
Q 3128 4100 2886 4159 
Q 2644 4219 2406 4219 
Q 1781 4219 1451 3797 
Q 1122 3375 1075 2522 
Q 1259 2794 1537 2939 
Q 1816 3084 2150 3084 
Q 2853 3084 3261 2657 
Q 3669 2231 3669 1497 
Q 3669 778 3244 343 
Q 2819 -91 2113 -91 
Q 1303 -91 875 529 
Q 447 1150 447 2328 
Q 447 3434 972 4092 
Q 1497 4750 2381 4750 
Q 2619 4750 2861 4703 
Q 3103 4656 3366 4563 
z
" transform="scale(0.015625)"/>
       </defs>
       <use xlink:href="#DejaVuSans-2212"/>
       <use xlink:href="#DejaVuSans-30" x="83.789062"/>
       <use xlink:href="#DejaVuSans-2e" x="147.412109"/>
       <use xlink:href="#DejaVuSans-36" x="179.199219"/>
      </g>
     </g>
    </g>
    <g id="xtick_10">
     <g id="line2d_26">
      <g>
       <use xlink:href="#m805fee5793" x="594.355552" y="475.2" style="stroke: #000000; stroke-width: 0.8"/>
      </g>
     </g>
     <g id="text_25">
      <!-- −0.4 -->
      <g transform="translate(582.214146 489.798437) scale(0.1 -0.1)">
       <use xlink:href="#DejaVuSans-2212"/>
       <use xlink:href="#DejaVuSans-30" x="83.789062"/>
       <use xlink:href="#DejaVuSans-2e" x="147.412109"/>
       <use xlink:href="#DejaVuSans-34" x="179.199219"/>
      </g>
     </g>
    </g>
    <g id="xtick_11">
     <g id="line2d_27">
      <g>
       <use xlink:href="#m805fee5793" x="688.619524" y="475.2" style="stroke: #000000; stroke-width: 0.8"/>
      </g>
     </g>
     <g id="text_26">
      <!-- −0.2 -->
      <g transform="translate(676.478118 489.798437) scale(0.1 -0.1)">
       <use xlink:href="#DejaVuSans-2212"/>
       <use xlink:href="#DejaVuSans-30" x="83.789062"/>
       <use xlink:href="#DejaVuSans-2e" x="147.412109"/>
       <use xlink:href="#DejaVuSans-32" x="179.199219"/>
      </g>
     </g>
    </g>
    <g id="xtick_12">
     <g id="line2d_28">
      <g>
       <use xlink:href="#m805fee5793" x="782.883496" y="475.2" style="stroke: #000000; stroke-width: 0.8"/>
      </g>
     </g>
     <g id="text_27">
      <!-- 0.0 -->
      <g transform="translate(774.931933 489.798437) scale(0.1 -0.1)">
       <use xlink:href="#DejaVuSans-30"/>
       <use xlink:href="#DejaVuSans-2e" x="63.623047"/>
       <use xlink:href="#DejaVuSans-30" x="95.410156"/>
      </g>
     </g>
    </g>
    <g id="text_28">
     <!-- X -->
     <g transform="translate(543.09 504.99625) scale(0.12 -0.12)">
      <use xlink:href="#DejaVuSans-58"/>
     </g>
    </g>
    <g id="text_29">
     <!-- 1e6 -->
     <g transform="translate(787.521875 502.476562) scale(0.1 -0.1)">
      <defs>
       <path id="DejaVuSans-65" d="M 3597 1894 
L 3597 1613 
L 953 1613 
Q 991 1019 1311 708 
Q 1631 397 2203 397 
Q 2534 397 2845 478 
Q 3156 559 3463 722 
L 3463 178 
Q 3153 47 2828 -22 
Q 2503 -91 2169 -91 
Q 1331 -91 842 396 
Q 353 884 353 1716 
Q 353 2575 817 3079 
Q 1281 3584 2069 3584 
Q 2775 3584 3186 3129 
Q 3597 2675 3597 1894 
z
M 3022 2063 
Q 3016 2534 2758 2815 
Q 2500 3097 2075 3097 
Q 1594 3097 1305 2825 
Q 1016 2553 972 2059 
L 3022 2063 
z
" transform="scale(0.015625)"/>
      </defs>
      <use xlink:href="#DejaVuSans-31"/>
      <use xlink:href="#DejaVuSans-65" x="63.623047"/>
      <use xlink:href="#DejaVuSans-36" x="125.146484"/>
     </g>
    </g>
   </g>
   <g id="matplotlib.axis_4">
    <g id="ytick_9">
     <g id="line2d_29">
      <g>
       <use xlink:href="#mb772f91658" x="288" y="475.2" style="stroke: #000000; stroke-width: 0.8"/>
      </g>
     </g>
     <g id="text_30">
      <!-- −3 -->
      <g transform="translate(266.257812 478.999219) scale(0.1 -0.1)">
       <use xlink:href="#DejaVuSans-2212"/>
       <use xlink:href="#DejaVuSans-33" x="83.789062"/>
      </g>
     </g>
    </g>
    <g id="ytick_10">
     <g id="line2d_30">
      <g>
       <use xlink:href="#mb772f91658" x="288" y="426.6" style="stroke: #000000; stroke-width: 0.8"/>
      </g>
     </g>
     <g id="text_31">
      <!-- −2 -->
      <g transform="translate(266.257812 430.399219) scale(0.1 -0.1)">
       <use xlink:href="#DejaVuSans-2212"/>
       <use xlink:href="#DejaVuSans-32" x="83.789062"/>
      </g>
     </g>
    </g>
    <g id="ytick_11">
     <g id="line2d_31">
      <g>
       <use xlink:href="#mb772f91658" x="288" y="378" style="stroke: #000000; stroke-width: 0.8"/>
      </g>
     </g>
     <g id="text_32">
      <!-- −1 -->
      <g transform="translate(266.257812 381.799219) scale(0.1 -0.1)">
       <use xlink:href="#DejaVuSans-2212"/>
       <use xlink:href="#DejaVuSans-31" x="83.789062"/>
      </g>
     </g>
    </g>
    <g id="ytick_12">
     <g id="line2d_32">
      <g>
       <use xlink:href="#mb772f91658" x="288" y="329.4" style="stroke: #000000; stroke-width: 0.8"/>
      </g>
     </g>
     <g id="text_33">
      <!-- 0 -->
      <g transform="translate(274.6375 333.199219) scale(0.1 -0.1)">
       <use xlink:href="#DejaVuSans-30"/>
      </g>
     </g>
    </g>
    <g id="ytick_13">
     <g id="line2d_33">
      <g>
       <use xlink:href="#mb772f91658" x="288" y="280.8" style="stroke: #000000; stroke-width: 0.8"/>
      </g>
     </g>
     <g id="text_34">
      <!-- 1 -->
      <g transform="translate(274.6375 284.599219) scale(0.1 -0.1)">
       <use xlink:href="#DejaVuSans-31"/>
      </g>
     </g>
    </g>
    <g id="ytick_14">
     <g id="line2d_34">
      <g>
       <use xlink:href="#mb772f91658" x="288" y="232.2" style="stroke: #000000; stroke-width: 0.8"/>
      </g>
     </g>
     <g id="text_35">
      <!-- 2 -->
      <g transform="translate(274.6375 235.999219) scale(0.1 -0.1)">
       <use xlink:href="#DejaVuSans-32"/>
      </g>
     </g>
    </g>
    <g id="ytick_15">
     <g id="line2d_35">
      <g>
       <use xlink:href="#mb772f91658" x="288" y="183.6" style="stroke: #000000; stroke-width: 0.8"/>
      </g>
     </g>
     <g id="text_36">
      <!-- 3 -->
      <g transform="translate(274.6375 187.399219) scale(0.1 -0.1)">
       <use xlink:href="#DejaVuSans-33"/>
      </g>
     </g>
    </g>
    <g id="ytick_16">
     <g id="line2d_36">
      <g>
       <use xlink:href="#mb772f91658" x="288" y="135" style="stroke: #000000; stroke-width: 0.8"/>
      </g>
     </g>
     <g id="text_37">
      <!-- 4 -->
      <g transform="translate(274.6375 138.799219) scale(0.1 -0.1)">
       <use xlink:href="#DejaVuSans-34"/>
      </g>
     </g>
    </g>
    <g id="ytick_17">
     <g id="line2d_37">
      <g>
       <use xlink:href="#mb772f91658" x="288" y="86.4" style="stroke: #000000; stroke-width: 0.8"/>
      </g>
     </g>
     <g id="text_38">
      <!-- 5 -->
      <g transform="translate(274.6375 90.199219) scale(0.1 -0.1)">
       <use xlink:href="#DejaVuSans-35"/>
      </g>
     </g>
    </g>
    <g id="text_39">
     <!-- f(X) -->
     <g transform="translate(259.762187 291.704062) rotate(-90) scale(0.12 -0.12)">
      <use xlink:href="#DejaVuSans-66"/>
      <use xlink:href="#DejaVuSans-28" x="35.205078"/>
      <use xlink:href="#DejaVuSans-58" x="74.21875"/>
      <use xlink:href="#DejaVuSans-29" x="142.724609"/>
     </g>
    </g>
    <g id="text_40">
     <!-- 1e−5+1 -->
     <g transform="translate(288 83.4) scale(0.1 -0.1)">
      <use xlink:href="#DejaVuSans-31"/>
      <use xlink:href="#DejaVuSans-65" x="63.623047"/>
      <use xlink:href="#DejaVuSans-2212" x="125.146484"/>
      <use xlink:href="#DejaVuSans-35" x="208.935547"/>
      <use xlink:href="#DejaVuSans-2b" x="272.558594"/>
      <use xlink:href="#DejaVuSans-31" x="356.347656"/>
     </g>
    </g>
   </g>
   <g id="line2d_38">
    <path d="M 311.563636 334.26 
L 377.642681 335.052477 
L 430.619033 335.902542 
L 473.7448 336.809666 
L 509.376581 337.774978 
L 539.116864 338.796752 
L 564.238213 339.876396 
L 585.636135 341.012903 
L 604.017609 342.206324 
L 619.94822 343.458432 
L 633.805024 344.76516 
L 645.965077 346.129776 
L 656.711169 347.554651 
L 666.23183 349.036364 
L 674.715588 350.576471 
L 682.35097 352.18481 
L 689.23224 353.858983 
L 695.453662 355.599461 
L 701.062368 357.395392 
L 706.199755 359.270928 
L 710.912953 361.227112 
L 715.201964 363.244011 
L 719.161051 365.346746 
L 722.837346 367.547567 
L 726.277981 369.866278 
L 729.482956 372.294969 
L 732.452271 374.820561 
L 735.28019 377.518812 
L 737.919581 380.343396 
L 740.417576 383.340067 
L 742.774176 386.509283 
L 745.036511 389.923039 
L 747.204582 393.600793 
L 749.27839 397.562693 
L 751.257933 401.82921 
L 753.143213 406.420602 
L 754.98136 411.494595 
L 756.725243 416.967568 
L 758.421995 423.041618 
L 760.024482 429.606186 
L 761.579838 436.922124 
L 763.088062 445.114286 
L 764.549153 454.335733 
L 765.915981 464.4 
L 767.235676 475.785542 
L 768.50824 488.744262 
L 769.733672 503.593548 
L 770.911971 520.738583 
L 771.996007 539.78961 
L 773.032911 561.935885 
L 774.022682 587.910638 
L 774.965322 618.685714 
L 775.86083 655.574497 
L 776.709205 700.392366 
L 777.463317 752.008696 
L 778.170297 815.4 
L 778.606669 865 
L 778.606669 865 
" clip-path="url(#p0b614ccf5c)" style="fill: none; stroke: #0000ff; stroke-width: 1.5; stroke-linecap: square"/>
   </g>
   <g id="line2d_39">
    <path d="M 311.563636 339.12 
L 359.35547 340.216826 
L 400.17177 341.370443 
L 435.332231 342.581448 
L 465.826626 343.849234 
L 492.456198 345.174099 
L 515.833663 346.554959 
L 536.477473 347.992196 
L 554.811816 349.486795 
L 571.166615 351.038468 
L 585.824662 352.648027 
L 599.021619 354.316688 
L 610.946011 356.044737 
L 621.739236 357.829365 
L 631.589821 359.680374 
L 640.544898 361.58543 
L 648.745864 363.553197 
L 656.286981 365.58764 
L 663.262515 367.697872 
L 669.672465 369.866278 
L 675.611096 372.106503 
L 681.125538 374.420843 
L 686.262924 376.814634 
L 691.070387 379.297331 
L 695.595058 381.883801 
L 699.836936 384.564586 
L 703.843155 387.360644 
L 707.613714 390.26412 
L 711.195745 393.305325 
L 714.589248 396.480745 
L 717.794223 399.78378 
L 720.857802 403.260182 
L 723.779985 406.911962 
L 726.560772 410.738912 
L 729.247296 414.813005 
L 731.839555 419.150693 
L 734.33755 423.768932 
L 736.741281 428.684985 
L 739.050749 433.916129 
L 741.265952 439.479275 
L 743.434023 445.529032 
L 745.507831 451.972509 
L 747.534506 459 
L 749.51405 466.688136 
L 751.399329 474.908982 
L 753.237476 483.931002 
L 755.028492 493.867005 
L 756.725243 504.535135 
L 758.374863 516.323077 
L 759.97735 529.4 
L 761.532706 543.969536 
L 763.04093 560.27886 
L 764.454889 577.99335 
L 765.821717 597.908287 
L 767.141412 620.417964 
L 768.413976 646.012378 
L 769.639408 675.307473 
L 770.817707 709.0875 
L 771.901743 746.567382 
L 772.938647 790.063507 
L 773.928418 840.978947 
L 774.329979 865 
L 774.329979 865 
" clip-path="url(#p0b614ccf5c)" style="fill: none; stroke: #ff0000; stroke-width: 1.5; stroke-linecap: square"/>
   </g>
   <g id="line2d_40">
    <path d="M 311.563636 329.399995 
L 779.725653 329.291735 
L 780.998216 329.09625 
L 781.516668 328.822117 
L 781.846592 328.395868 
L 782.082252 327.718339 
L 782.27078 326.52426 
L 782.459308 323.4 
L 782.600704 315.9 
L 782.694968 299.025 
L 782.789232 207.9 
L 782.816244 -1 
L 782.816244 -1 
" clip-path="url(#p0b614ccf5c)" style="fill: none; stroke: #008000; stroke-width: 1.5; stroke-linecap: square"/>
   </g>
   <g id="patch_9">
    <path d="M 288 475.2 
L 288 86.4 
" style="fill: none; stroke: #000000; stroke-width: 0.8; stroke-linejoin: miter; stroke-linecap: square"/>
   </g>
   <g id="patch_10">
    <path d="M 806.4 475.2 
L 806.4 86.4 
" style="fill: none; stroke: #000000; stroke-width: 0.8; stroke-linejoin: miter; stroke-linecap: square"/>
   </g>
   <g id="patch_11">
    <path d="M 288 475.2 
L 806.4 475.2 
" style="fill: none; stroke: #000000; stroke-width: 0.8; stroke-linejoin: miter; stroke-linecap: square"/>
   </g>
   <g id="patch_12">
    <path d="M 288 86.4 
L 806.4 86.4 
" style="fill: none; stroke: #000000; stroke-width: 0.8; stroke-linejoin: miter; stroke-linecap: square"/>
   </g>
   <g id="text_41">
    <!-- При X стремящемся к -$\infty$ -->
    <g transform="translate(443.2 80.4) scale(0.16 -0.16)">
     <defs>
      <path id="DejaVuSans-41f" d="M 4184 4666 
L 4184 0 
L 3553 0 
L 3553 4134 
L 1259 4134 
L 1259 0 
L 628 0 
L 628 4666 
L 4184 4666 
z
" transform="scale(0.015625)"/>
      <path id="DejaVuSans-441" d="M 3122 3366 
L 3122 2828 
Q 2878 2963 2633 3030 
Q 2388 3097 2138 3097 
Q 1578 3097 1268 2742 
Q 959 2388 959 1747 
Q 959 1106 1268 751 
Q 1578 397 2138 397 
Q 2388 397 2633 464 
Q 2878 531 3122 666 
L 3122 134 
Q 2881 22 2623 -34 
Q 2366 -91 2075 -91 
Q 1284 -91 818 406 
Q 353 903 353 1747 
Q 353 2603 823 3093 
Q 1294 3584 2113 3584 
Q 2378 3584 2631 3529 
Q 2884 3475 3122 3366 
z
" transform="scale(0.015625)"/>
      <path id="DejaVuSans-442" d="M 188 3500 
L 3541 3500 
L 3541 3041 
L 2147 3041 
L 2147 0 
L 1581 0 
L 1581 3041 
L 188 3041 
L 188 3500 
z
" transform="scale(0.015625)"/>
      <path id="DejaVuSans-435" d="M 3597 1894 
L 3597 1613 
L 953 1613 
Q 991 1019 1311 708 
Q 1631 397 2203 397 
Q 2534 397 2845 478 
Q 3156 559 3463 722 
L 3463 178 
Q 3153 47 2828 -22 
Q 2503 -91 2169 -91 
Q 1331 -91 842 396 
Q 353 884 353 1716 
Q 353 2575 817 3079 
Q 1281 3584 2069 3584 
Q 2775 3584 3186 3129 
Q 3597 2675 3597 1894 
z
M 3022 2063 
Q 3016 2534 2758 2815 
Q 2500 3097 2075 3097 
Q 1594 3097 1305 2825 
Q 1016 2553 972 2059 
L 3022 2063 
z
" transform="scale(0.015625)"/>
      <path id="DejaVuSans-43c" d="M 581 3500 
L 1422 3500 
L 2416 1156 
L 3413 3500 
L 4247 3500 
L 4247 0 
L 3669 0 
L 3669 2950 
L 2703 672 
L 2128 672 
L 1159 2950 
L 1159 0 
L 581 0 
L 581 3500 
z
" transform="scale(0.015625)"/>
      <path id="DejaVuSans-44f" d="M 1181 2491 
Q 1181 2231 1381 2084 
Q 1581 1938 1953 1938 
L 2728 1938 
L 2728 3041 
L 1953 3041 
Q 1581 3041 1381 2897 
Q 1181 2753 1181 2491 
z
M 363 0 
L 1431 1534 
Q 1069 1616 828 1830 
Q 588 2044 588 2491 
Q 588 2997 923 3248 
Q 1259 3500 1938 3500 
L 3306 3500 
L 3306 0 
L 2728 0 
L 2728 1478 
L 2013 1478 
L 981 0 
L 363 0 
z
" transform="scale(0.015625)"/>
      <path id="DejaVuSans-449" d="M 5275 0 
L 581 0 
L 581 3500 
L 1159 3500 
L 1159 459 
L 2638 459 
L 2638 3500 
L 3216 3500 
L 3216 459 
L 4697 459 
L 4697 3500 
L 5275 3500 
L 5275 459 
L 5734 459 
L 5734 -884 
L 5275 -884 
L 5275 0 
z
" transform="scale(0.015625)"/>
      <path id="DejaVuSans-2d" d="M 313 2009 
L 1997 2009 
L 1997 1497 
L 313 1497 
L 313 2009 
z
" transform="scale(0.015625)"/>
      <path id="DejaVuSans-221e" d="M 2916 1091 
Q 2819 1203 2666 1466 
Q 2456 1091 2272 925 
Q 2041 725 1681 725 
Q 1259 725 981 1041 
Q 688 1372 688 1919 
Q 688 2444 981 2800 
Q 1244 3116 1688 3116 
Q 1916 3116 2084 3022 
Q 2281 2919 2416 2741 
Q 2541 2581 2666 2366 
Q 2875 2741 3059 2906 
Q 3291 3106 3650 3106 
Q 4072 3106 4350 2791 
Q 4644 2459 4644 1913 
Q 4644 1388 4350 1031 
Q 4088 716 3644 716 
Q 3416 716 3247 809 
Q 3078 894 2916 1091 
z
M 1647 1134 
Q 2163 1134 2472 1884 
Q 2075 2703 1647 2703 
Q 1334 2703 1175 2478 
Q 1003 2238 1003 1919 
Q 1003 1569 1175 1353 
Q 1350 1134 1647 1134 
z
M 3684 2697 
Q 3219 2697 2859 1947 
Q 3253 1128 3684 1128 
Q 3997 1128 4156 1353 
Q 4328 1594 4328 1913 
Q 4328 2263 4156 2478 
Q 3981 2697 3684 2697 
z
" transform="scale(0.015625)"/>
     </defs>
     <use xlink:href="#DejaVuSans-41f" transform="translate(0 0.09375)"/>
     <use xlink:href="#DejaVuSans-440" transform="translate(75.195312 0.09375)"/>
     <use xlink:href="#DejaVuSans-438" transform="translate(138.671875 0.09375)"/>
     <use xlink:href="#DejaVuSans-20" transform="translate(203.662109 0.09375)"/>
     <use xlink:href="#DejaVuSans-58" transform="translate(235.449219 0.09375)"/>
     <use xlink:href="#DejaVuSans-20" transform="translate(303.955078 0.09375)"/>
     <use xlink:href="#DejaVuSans-441" transform="translate(335.742188 0.09375)"/>
     <use xlink:href="#DejaVuSans-442" transform="translate(390.722656 0.09375)"/>
     <use xlink:href="#DejaVuSans-440" transform="translate(448.974609 0.09375)"/>
     <use xlink:href="#DejaVuSans-435" transform="translate(512.451172 0.09375)"/>
     <use xlink:href="#DejaVuSans-43c" transform="translate(573.974609 0.09375)"/>
     <use xlink:href="#DejaVuSans-44f" transform="translate(649.414062 0.09375)"/>
     <use xlink:href="#DejaVuSans-449" transform="translate(709.570312 0.09375)"/>
     <use xlink:href="#DejaVuSans-435" transform="translate(803.759766 0.09375)"/>
     <use xlink:href="#DejaVuSans-43c" transform="translate(865.283203 0.09375)"/>
     <use xlink:href="#DejaVuSans-441" transform="translate(940.722656 0.09375)"/>
     <use xlink:href="#DejaVuSans-44f" transform="translate(995.703125 0.09375)"/>
     <use xlink:href="#DejaVuSans-20" transform="translate(1055.859375 0.09375)"/>
     <use xlink:href="#DejaVuSans-43a" transform="translate(1087.646484 0.09375)"/>
     <use xlink:href="#DejaVuSans-20" transform="translate(1148.046875 0.09375)"/>
     <use xlink:href="#DejaVuSans-2d" transform="translate(1179.833984 0.09375)"/>
     <use xlink:href="#DejaVuSans-221e" transform="translate(1215.917969 0.09375)"/>
    </g>
   </g>
  </g>
 </g>
 <defs>
  <clipPath id="p4d1e108cc6">
   <rect x="0" y="0" width="1152" height="864"/>
  </clipPath>
  <clipPath id="p0b614ccf5c">
   <rect x="288" y="86.4" width="518.4" height="388.8"/>
  </clipPath>
 </defs>
</svg>
