<?xml version="1.0" encoding="utf-8" standalone="no"?>
<!DOCTYPE svg PUBLIC "-//W3C//DTD SVG 1.1//EN"
  "http://www.w3.org/Graphics/SVG/1.1/DTD/svg11.dtd">
<svg xmlns:xlink="http://www.w3.org/1999/xlink" width="1008pt" height="720pt" viewBox="0 0 1008 720" xmlns="http://www.w3.org/2000/svg" version="1.1">
 <metadata>
  <rdf:RDF xmlns:dc="http://purl.org/dc/elements/1.1/" xmlns:cc="http://creativecommons.org/ns#" xmlns:rdf="http://www.w3.org/1999/02/22-rdf-syntax-ns#">
   <cc:Work>
    <dc:type rdf:resource="http://purl.org/dc/dcmitype/StillImage"/>
    <dc:date>2023-10-06T02:33:08.135211</dc:date>
    <dc:format>image/svg+xml</dc:format>
    <dc:creator>
     <cc:Agent>
      <dc:title>Matplotlib v3.7.3, https://matplotlib.org/</dc:title>
     </cc:Agent>
    </dc:creator>
   </cc:Work>
  </rdf:RDF>
 </metadata>
 <defs>
  <style type="text/css">*{stroke-linejoin: round; stroke-linecap: butt}</style>
 </defs>
 <g id="figure_1">
  <g id="patch_1">
   <path d="M 0 720 
L 1008 720 
L 1008 0 
L 0 0 
z
" style="fill: #ffffff"/>
  </g>
  <g id="axes_1">
   <g id="patch_2">
    <path d="M 0 720 
L 1008 720 
L 1008 0 
L 0 0 
z
" style="fill: #ffffff"/>
   </g>
   <g id="matplotlib.axis_1">
    <g id="xtick_1">
     <g id="line2d_1">
      <defs>
       <path id="m396cd11265" d="M 0 0 
L 0 3.5 
" style="stroke: #000000; stroke-width: 0.8"/>
      </defs>
      <g>
       <use xlink:href="#m396cd11265" x="45.818182" y="720" style="stroke: #000000; stroke-width: 0.8"/>
      </g>
     </g>
     <g id="text_1">
      <!-- −10.0 -->
      <g transform="translate(30.495526 734.598438) scale(0.1 -0.1)">
       <defs>
        <path id="DejaVuSans-2212" d="M 678 2272 
L 4684 2272 
L 4684 1741 
L 678 1741 
L 678 2272 
z
" transform="scale(0.015625)"/>
        <path id="DejaVuSans-31" d="M 794 531 
L 1825 531 
L 1825 4091 
L 703 3866 
L 703 4441 
L 1819 4666 
L 2450 4666 
L 2450 531 
L 3481 531 
L 3481 0 
L 794 0 
L 794 531 
z
" transform="scale(0.015625)"/>
        <path id="DejaVuSans-30" d="M 2034 4250 
Q 1547 4250 1301 3770 
Q 1056 3291 1056 2328 
Q 1056 1369 1301 889 
Q 1547 409 2034 409 
Q 2525 409 2770 889 
Q 3016 1369 3016 2328 
Q 3016 3291 2770 3770 
Q 2525 4250 2034 4250 
z
M 2034 4750 
Q 2819 4750 3233 4129 
Q 3647 3509 3647 2328 
Q 3647 1150 3233 529 
Q 2819 -91 2034 -91 
Q 1250 -91 836 529 
Q 422 1150 422 2328 
Q 422 3509 836 4129 
Q 1250 4750 2034 4750 
z
" transform="scale(0.015625)"/>
        <path id="DejaVuSans-2e" d="M 684 794 
L 1344 794 
L 1344 0 
L 684 0 
L 684 794 
z
" transform="scale(0.015625)"/>
       </defs>
       <use xlink:href="#DejaVuSans-2212"/>
       <use xlink:href="#DejaVuSans-31" x="83.789062"/>
       <use xlink:href="#DejaVuSans-30" x="147.412109"/>
       <use xlink:href="#DejaVuSans-2e" x="211.035156"/>
       <use xlink:href="#DejaVuSans-30" x="242.822266"/>
      </g>
     </g>
    </g>
    <g id="xtick_2">
     <g id="line2d_2">
      <g>
       <use xlink:href="#m396cd11265" x="160.363636" y="720" style="stroke: #000000; stroke-width: 0.8"/>
      </g>
     </g>
     <g id="text_2">
      <!-- −7.5 -->
      <g transform="translate(148.22223 734.598438) scale(0.1 -0.1)">
       <defs>
        <path id="DejaVuSans-37" d="M 525 4666 
L 3525 4666 
L 3525 4397 
L 1831 0 
L 1172 0 
L 2766 4134 
L 525 4134 
L 525 4666 
z
" transform="scale(0.015625)"/>
        <path id="DejaVuSans-35" d="M 691 4666 
L 3169 4666 
L 3169 4134 
L 1269 4134 
L 1269 2991 
Q 1406 3038 1543 3061 
Q 1681 3084 1819 3084 
Q 2600 3084 3056 2656 
Q 3513 2228 3513 1497 
Q 3513 744 3044 326 
Q 2575 -91 1722 -91 
Q 1428 -91 1123 -41 
Q 819 9 494 109 
L 494 744 
Q 775 591 1075 516 
Q 1375 441 1709 441 
Q 2250 441 2565 725 
Q 2881 1009 2881 1497 
Q 2881 1984 2565 2268 
Q 2250 2553 1709 2553 
Q 1456 2553 1204 2497 
Q 953 2441 691 2322 
L 691 4666 
z
" transform="scale(0.015625)"/>
       </defs>
       <use xlink:href="#DejaVuSans-2212"/>
       <use xlink:href="#DejaVuSans-37" x="83.789062"/>
       <use xlink:href="#DejaVuSans-2e" x="147.412109"/>
       <use xlink:href="#DejaVuSans-35" x="179.199219"/>
      </g>
     </g>
    </g>
    <g id="xtick_3">
     <g id="line2d_3">
      <g>
       <use xlink:href="#m396cd11265" x="274.909091" y="720" style="stroke: #000000; stroke-width: 0.8"/>
      </g>
     </g>
     <g id="text_3">
      <!-- −5.0 -->
      <g transform="translate(262.767685 734.598438) scale(0.1 -0.1)">
       <use xlink:href="#DejaVuSans-2212"/>
       <use xlink:href="#DejaVuSans-35" x="83.789062"/>
       <use xlink:href="#DejaVuSans-2e" x="147.412109"/>
       <use xlink:href="#DejaVuSans-30" x="179.199219"/>
      </g>
     </g>
    </g>
    <g id="xtick_4">
     <g id="line2d_4">
      <g>
       <use xlink:href="#m396cd11265" x="389.454545" y="720" style="stroke: #000000; stroke-width: 0.8"/>
      </g>
     </g>
     <g id="text_4">
      <!-- −2.5 -->
      <g transform="translate(377.313139 734.598438) scale(0.1 -0.1)">
       <defs>
        <path id="DejaVuSans-32" d="M 1228 531 
L 3431 531 
L 3431 0 
L 469 0 
L 469 531 
Q 828 903 1448 1529 
Q 2069 2156 2228 2338 
Q 2531 2678 2651 2914 
Q 2772 3150 2772 3378 
Q 2772 3750 2511 3984 
Q 2250 4219 1831 4219 
Q 1534 4219 1204 4116 
Q 875 4013 500 3803 
L 500 4441 
Q 881 4594 1212 4672 
Q 1544 4750 1819 4750 
Q 2544 4750 2975 4387 
Q 3406 4025 3406 3419 
Q 3406 3131 3298 2873 
Q 3191 2616 2906 2266 
Q 2828 2175 2409 1742 
Q 1991 1309 1228 531 
z
" transform="scale(0.015625)"/>
       </defs>
       <use xlink:href="#DejaVuSans-2212"/>
       <use xlink:href="#DejaVuSans-32" x="83.789062"/>
       <use xlink:href="#DejaVuSans-2e" x="147.412109"/>
       <use xlink:href="#DejaVuSans-35" x="179.199219"/>
      </g>
     </g>
    </g>
    <g id="xtick_5">
     <g id="line2d_5">
      <g>
       <use xlink:href="#m396cd11265" x="504" y="720" style="stroke: #000000; stroke-width: 0.8"/>
      </g>
     </g>
     <g id="text_5">
      <!-- 0.0 -->
      <g transform="translate(496.048437 734.598438) scale(0.1 -0.1)">
       <use xlink:href="#DejaVuSans-30"/>
       <use xlink:href="#DejaVuSans-2e" x="63.623047"/>
       <use xlink:href="#DejaVuSans-30" x="95.410156"/>
      </g>
     </g>
    </g>
    <g id="xtick_6">
     <g id="line2d_6">
      <g>
       <use xlink:href="#m396cd11265" x="618.545455" y="720" style="stroke: #000000; stroke-width: 0.8"/>
      </g>
     </g>
     <g id="text_6">
      <!-- 2.5 -->
      <g transform="translate(610.593892 734.598438) scale(0.1 -0.1)">
       <use xlink:href="#DejaVuSans-32"/>
       <use xlink:href="#DejaVuSans-2e" x="63.623047"/>
       <use xlink:href="#DejaVuSans-35" x="95.410156"/>
      </g>
     </g>
    </g>
    <g id="xtick_7">
     <g id="line2d_7">
      <g>
       <use xlink:href="#m396cd11265" x="733.090909" y="720" style="stroke: #000000; stroke-width: 0.8"/>
      </g>
     </g>
     <g id="text_7">
      <!-- 5.0 -->
      <g transform="translate(725.139347 734.598438) scale(0.1 -0.1)">
       <use xlink:href="#DejaVuSans-35"/>
       <use xlink:href="#DejaVuSans-2e" x="63.623047"/>
       <use xlink:href="#DejaVuSans-30" x="95.410156"/>
      </g>
     </g>
    </g>
    <g id="xtick_8">
     <g id="line2d_8">
      <g>
       <use xlink:href="#m396cd11265" x="847.636364" y="720" style="stroke: #000000; stroke-width: 0.8"/>
      </g>
     </g>
     <g id="text_8">
      <!-- 7.5 -->
      <g transform="translate(839.684801 734.598438) scale(0.1 -0.1)">
       <use xlink:href="#DejaVuSans-37"/>
       <use xlink:href="#DejaVuSans-2e" x="63.623047"/>
       <use xlink:href="#DejaVuSans-35" x="95.410156"/>
      </g>
     </g>
    </g>
    <g id="xtick_9">
     <g id="line2d_9">
      <g>
       <use xlink:href="#m396cd11265" x="962.181818" y="720" style="stroke: #000000; stroke-width: 0.8"/>
      </g>
     </g>
     <g id="text_9">
      <!-- 10.0 -->
      <g transform="translate(951.049006 734.598438) scale(0.1 -0.1)">
       <use xlink:href="#DejaVuSans-31"/>
       <use xlink:href="#DejaVuSans-30" x="63.623047"/>
       <use xlink:href="#DejaVuSans-2e" x="127.246094"/>
       <use xlink:href="#DejaVuSans-30" x="159.033203"/>
      </g>
     </g>
    </g>
   </g>
   <g id="matplotlib.axis_2">
    <g id="ytick_1">
     <g id="line2d_10">
      <defs>
       <path id="m7735fe5ec7" d="M 0 0 
L -3.5 0 
" style="stroke: #000000; stroke-width: 0.8"/>
      </defs>
      <g>
       <use xlink:href="#m7735fe5ec7" x="0" y="720" style="stroke: #000000; stroke-width: 0.8"/>
      </g>
     </g>
     <g id="text_10">
      <!-- −10.0 -->
      <g transform="translate(-37.645313 723.799219) scale(0.1 -0.1)">
       <use xlink:href="#DejaVuSans-2212"/>
       <use xlink:href="#DejaVuSans-31" x="83.789062"/>
       <use xlink:href="#DejaVuSans-30" x="147.412109"/>
       <use xlink:href="#DejaVuSans-2e" x="211.035156"/>
       <use xlink:href="#DejaVuSans-30" x="242.822266"/>
      </g>
     </g>
    </g>
    <g id="ytick_2">
     <g id="line2d_11">
      <g>
       <use xlink:href="#m7735fe5ec7" x="0" y="638.181818" style="stroke: #000000; stroke-width: 0.8"/>
      </g>
     </g>
     <g id="text_11">
      <!-- −7.5 -->
      <g transform="translate(-31.282813 641.981037) scale(0.1 -0.1)">
       <use xlink:href="#DejaVuSans-2212"/>
       <use xlink:href="#DejaVuSans-37" x="83.789062"/>
       <use xlink:href="#DejaVuSans-2e" x="147.412109"/>
       <use xlink:href="#DejaVuSans-35" x="179.199219"/>
      </g>
     </g>
    </g>
    <g id="ytick_3">
     <g id="line2d_12">
      <g>
       <use xlink:href="#m7735fe5ec7" x="0" y="556.363636" style="stroke: #000000; stroke-width: 0.8"/>
      </g>
     </g>
     <g id="text_12">
      <!-- −5.0 -->
      <g transform="translate(-31.282813 560.162855) scale(0.1 -0.1)">
       <use xlink:href="#DejaVuSans-2212"/>
       <use xlink:href="#DejaVuSans-35" x="83.789062"/>
       <use xlink:href="#DejaVuSans-2e" x="147.412109"/>
       <use xlink:href="#DejaVuSans-30" x="179.199219"/>
      </g>
     </g>
    </g>
    <g id="ytick_4">
     <g id="line2d_13">
      <g>
       <use xlink:href="#m7735fe5ec7" x="0" y="474.545455" style="stroke: #000000; stroke-width: 0.8"/>
      </g>
     </g>
     <g id="text_13">
      <!-- −2.5 -->
      <g transform="translate(-31.282813 478.344673) scale(0.1 -0.1)">
       <use xlink:href="#DejaVuSans-2212"/>
       <use xlink:href="#DejaVuSans-32" x="83.789062"/>
       <use xlink:href="#DejaVuSans-2e" x="147.412109"/>
       <use xlink:href="#DejaVuSans-35" x="179.199219"/>
      </g>
     </g>
    </g>
    <g id="ytick_5">
     <g id="line2d_14">
      <g>
       <use xlink:href="#m7735fe5ec7" x="0" y="392.727273" style="stroke: #000000; stroke-width: 0.8"/>
      </g>
     </g>
     <g id="text_14">
      <!-- 0.0 -->
      <g transform="translate(-22.903125 396.526491) scale(0.1 -0.1)">
       <use xlink:href="#DejaVuSans-30"/>
       <use xlink:href="#DejaVuSans-2e" x="63.623047"/>
       <use xlink:href="#DejaVuSans-30" x="95.410156"/>
      </g>
     </g>
    </g>
    <g id="ytick_6">
     <g id="line2d_15">
      <g>
       <use xlink:href="#m7735fe5ec7" x="0" y="310.909091" style="stroke: #000000; stroke-width: 0.8"/>
      </g>
     </g>
     <g id="text_15">
      <!-- 2.5 -->
      <g transform="translate(-22.903125 314.70831) scale(0.1 -0.1)">
       <use xlink:href="#DejaVuSans-32"/>
       <use xlink:href="#DejaVuSans-2e" x="63.623047"/>
       <use xlink:href="#DejaVuSans-35" x="95.410156"/>
      </g>
     </g>
    </g>
    <g id="ytick_7">
     <g id="line2d_16">
      <g>
       <use xlink:href="#m7735fe5ec7" x="0" y="229.090909" style="stroke: #000000; stroke-width: 0.8"/>
      </g>
     </g>
     <g id="text_16">
      <!-- 5.0 -->
      <g transform="translate(-22.903125 232.890128) scale(0.1 -0.1)">
       <use xlink:href="#DejaVuSans-35"/>
       <use xlink:href="#DejaVuSans-2e" x="63.623047"/>
       <use xlink:href="#DejaVuSans-30" x="95.410156"/>
      </g>
     </g>
    </g>
    <g id="ytick_8">
     <g id="line2d_17">
      <g>
       <use xlink:href="#m7735fe5ec7" x="0" y="147.272727" style="stroke: #000000; stroke-width: 0.8"/>
      </g>
     </g>
     <g id="text_17">
      <!-- 7.5 -->
      <g transform="translate(-22.903125 151.071946) scale(0.1 -0.1)">
       <use xlink:href="#DejaVuSans-37"/>
       <use xlink:href="#DejaVuSans-2e" x="63.623047"/>
       <use xlink:href="#DejaVuSans-35" x="95.410156"/>
      </g>
     </g>
    </g>
    <g id="ytick_9">
     <g id="line2d_18">
      <g>
       <use xlink:href="#m7735fe5ec7" x="0" y="65.454545" style="stroke: #000000; stroke-width: 0.8"/>
      </g>
     </g>
     <g id="text_18">
      <!-- 10.0 -->
      <g transform="translate(-29.265625 69.253764) scale(0.1 -0.1)">
       <use xlink:href="#DejaVuSans-31"/>
       <use xlink:href="#DejaVuSans-30" x="63.623047"/>
       <use xlink:href="#DejaVuSans-2e" x="127.246094"/>
       <use xlink:href="#DejaVuSans-30" x="159.033203"/>
      </g>
     </g>
    </g>
   </g>
   <g id="line2d_19">
    <path d="M 45.818182 327.272727 
L 54.981818 327.272727 
L 64.145455 327.272727 
L 73.309091 327.272727 
L 82.472727 327.272727 
L 91.636364 327.272727 
L 100.8 327.272727 
L 109.963636 327.272727 
L 119.127273 327.272727 
L 128.290909 327.272727 
L 137.454545 327.272727 
L 146.618182 327.272727 
L 155.781818 327.272727 
L 164.945455 327.272727 
L 174.109091 327.272727 
L 183.272727 327.272727 
L 192.436364 327.272727 
L 201.6 327.272727 
L 210.763636 327.272727 
L 219.927273 327.272727 
L 229.090909 327.272727 
L 238.254545 327.272727 
L 247.418182 327.272727 
L 256.581818 327.272727 
L 265.745455 327.272727 
L 274.909091 327.272727 
L 284.072727 327.272727 
L 293.236364 327.272727 
L 302.4 327.272727 
L 311.563636 327.272727 
L 320.727273 327.272727 
L 329.890909 327.272727 
L 339.054545 327.272727 
L 348.218182 327.272727 
L 357.381818 327.272727 
L 366.545455 327.272727 
L 375.709091 327.272727 
L 384.872727 327.272727 
L 394.036364 327.272727 
L 403.2 327.272727 
L 412.363636 327.272727 
L 421.527273 327.272727 
L 430.690909 327.272727 
L 439.854545 327.272727 
L 449.018182 327.272727 
L 458.181818 327.272727 
L 467.345455 327.272727 
L 476.509091 327.272727 
L 485.672727 327.272727 
L 494.836364 327.272727 
L 504 327.272727 
L 513.163636 327.272727 
L 522.327273 327.272727 
L 531.490909 327.272727 
L 540.654545 327.272727 
L 549.818182 327.272727 
L 558.981818 327.272727 
L 568.145455 327.272727 
L 577.309091 327.272727 
L 586.472727 327.272727 
L 595.636364 327.272727 
L 604.8 327.272727 
L 613.963636 327.272727 
L 623.127273 327.272727 
L 632.290909 327.272727 
L 641.454545 327.272727 
L 650.618182 327.272727 
L 659.781818 327.272727 
L 668.945455 327.272727 
L 678.109091 327.272727 
L 687.272727 327.272727 
L 696.436364 327.272727 
L 705.6 327.272727 
L 714.763636 327.272727 
L 723.927273 327.272727 
L 733.090909 327.272727 
L 742.254545 327.272727 
L 751.418182 327.272727 
L 760.581818 327.272727 
L 769.745455 327.272727 
L 778.909091 327.272727 
L 788.072727 327.272727 
L 797.236364 327.272727 
L 806.4 327.272727 
L 815.563636 327.272727 
L 824.727273 327.272727 
L 833.890909 327.272727 
L 843.054545 327.272727 
L 852.218182 327.272727 
L 861.381818 327.272727 
L 870.545455 327.272727 
L 879.709091 327.272727 
L 888.872727 327.272727 
L 898.036364 327.272727 
L 907.2 327.272727 
L 916.363636 327.272727 
L 925.527273 327.272727 
L 934.690909 327.272727 
L 943.854545 327.272727 
L 953.018182 327.272727 
L 962.181818 327.272727 
" clip-path="url(#p96a3d1b174)" style="fill: none; stroke: #1f77b4; stroke-width: 1.5; stroke-linecap: square"/>
   </g>
   <g id="line2d_20">
    <path d="M 45.818182 327.272727 
L 54.981818 327.272727 
L 64.145455 327.272727 
L 73.309091 327.272727 
L 82.472727 327.272727 
L 91.636364 327.272727 
L 100.8 327.272727 
L 109.963636 327.272727 
L 119.127273 327.272727 
L 128.290909 327.272727 
L 137.454545 327.272727 
L 146.618182 327.272727 
L 155.781818 327.272727 
L 164.945455 327.272727 
L 174.109091 327.272727 
L 183.272727 327.272727 
L 192.436364 327.272727 
L 201.6 327.272727 
L 210.763636 327.272727 
L 219.927273 327.272727 
L 229.090909 327.272727 
L 238.254545 327.272727 
L 247.418182 327.272727 
L 256.581818 327.272727 
L 265.745455 327.272727 
L 274.909091 327.272727 
L 284.072727 327.272727 
L 293.236364 327.272727 
L 302.4 327.272727 
L 311.563636 327.272727 
L 320.727273 327.272727 
L 329.890909 327.272727 
L 339.054545 327.272727 
L 348.218182 327.272727 
L 357.381818 327.272727 
L 366.545455 327.272727 
L 375.709091 327.272727 
L 384.872727 327.272727 
L 394.036364 327.272727 
L 403.2 327.272727 
L 412.363636 327.272727 
L 421.527273 327.272727 
L 430.690909 327.272727 
L 439.854545 327.272727 
L 449.018182 327.272727 
L 458.181818 327.272727 
L 467.345455 327.272727 
L 476.509091 327.272727 
L 485.672727 327.272727 
L 494.836364 327.272727 
L 504 327.272727 
L 513.163636 327.272727 
L 522.327273 327.272727 
L 531.490909 327.272727 
L 540.654545 327.272727 
L 549.818182 327.272727 
L 558.981818 327.272727 
L 568.145455 327.272727 
L 577.309091 327.272727 
L 586.472727 327.272727 
L 595.636364 327.272727 
L 604.8 327.272727 
L 613.963636 327.272727 
L 623.127273 327.272727 
L 632.290909 327.272727 
L 641.454545 327.272727 
L 650.618182 327.272727 
L 659.781818 327.272727 
L 668.945455 327.272727 
L 678.109091 327.272727 
L 687.272727 327.272727 
L 696.436364 327.272727 
L 705.6 327.272727 
L 714.763636 327.272727 
L 723.927273 327.272727 
L 733.090909 327.272727 
L 742.254545 327.272727 
L 751.418182 327.272727 
L 760.581818 327.272727 
L 769.745455 327.272727 
L 778.909091 327.272727 
L 788.072727 327.272727 
L 797.236364 327.272727 
L 806.4 327.272727 
L 815.563636 327.272727 
L 824.727273 327.272727 
L 833.890909 327.272727 
L 843.054545 327.272727 
L 852.218182 327.272727 
L 861.381818 327.272727 
L 870.545455 327.272727 
L 879.709091 327.272727 
L 888.872727 327.272727 
L 898.036364 327.272727 
L 907.2 327.272727 
L 916.363636 327.272727 
L 925.527273 327.272727 
L 934.690909 327.272727 
L 943.854545 327.272727 
L 953.018182 327.272727 
L 962.181818 327.272727 
" clip-path="url(#p96a3d1b174)" style="fill: none; stroke: #ff7f0e; stroke-width: 1.5; stroke-linecap: square"/>
   </g>
   <g id="line2d_21">
    <path d="M 45.818182 360 
L 54.981818 360 
L 64.145455 360 
L 73.309091 360 
L 82.472727 360 
L 91.636364 360 
L 100.8 360 
L 109.963636 360 
L 119.127273 360 
L 128.290909 360 
L 137.454545 360 
L 146.618182 360 
L 155.781818 360 
L 164.945455 360 
L 174.109091 360 
L 183.272727 360 
L 192.436364 360 
L 201.6 360 
L 210.763636 360 
L 219.927273 360 
L 229.090909 360 
L 238.254545 360 
L 247.418182 360 
L 256.581818 360 
L 265.745455 360 
L 274.909091 360 
L 284.072727 360 
L 293.236364 360 
L 302.4 360 
L 311.563636 360 
L 320.727273 360 
L 329.890909 360 
L 339.054545 360 
L 348.218182 360 
L 357.381818 360 
L 366.545455 360 
L 375.709091 360 
L 384.872727 360 
L 394.036364 360 
L 403.2 360 
L 412.363636 360 
L 421.527273 360 
L 430.690909 360 
L 439.854545 360 
L 449.018182 360 
L 458.181818 360 
L 467.345455 360 
L 476.509091 360 
L 485.672727 360 
L 494.836364 360 
M 513.163636 360 
L 522.327273 360 
L 531.490909 360 
L 540.654545 360 
L 549.818182 360 
L 558.981818 360 
L 568.145455 360 
L 577.309091 360 
L 586.472727 360 
L 595.636364 360 
L 604.8 360 
L 613.963636 360 
L 623.127273 360 
L 632.290909 360 
L 641.454545 360 
L 650.618182 360 
L 659.781818 360 
L 668.945455 360 
L 678.109091 360 
L 687.272727 360 
L 696.436364 360 
L 705.6 360 
L 714.763636 360 
L 723.927273 360 
L 733.090909 360 
L 742.254545 360 
L 751.418182 360 
L 760.581818 360 
L 769.745455 360 
L 778.909091 360 
L 788.072727 360 
L 797.236364 360 
L 806.4 360 
L 815.563636 360 
L 824.727273 360 
L 833.890909 360 
L 843.054545 360 
L 852.218182 360 
L 861.381818 360 
L 870.545455 360 
L 879.709091 360 
L 888.872727 360 
L 898.036364 360 
L 907.2 360 
L 916.363636 360 
L 925.527273 360 
L 934.690909 360 
L 943.854545 360 
L 953.018182 360 
L 962.181818 360 
" clip-path="url(#p96a3d1b174)" style="fill: none; stroke: #2ca02c; stroke-width: 1.5; stroke-linecap: square"/>
   </g>
   <g id="line2d_22">
    <path d="M 45.818182 360 
L 54.981818 360 
L 64.145455 360 
L 73.309091 360 
L 82.472727 360 
L 91.636364 360 
L 100.8 360 
L 109.963636 360 
L 119.127273 360 
L 128.290909 360 
L 137.454545 360 
L 146.618182 360 
L 155.781818 360 
L 164.945455 360 
L 174.109091 360 
L 183.272727 360 
L 192.436364 360 
L 201.6 360 
L 210.763636 360 
L 219.927273 360 
L 229.090909 360 
L 238.254545 360 
L 247.418182 360 
L 256.581818 360 
L 265.745455 360 
L 274.909091 360 
L 284.072727 360 
L 293.236364 360 
L 302.4 360 
L 311.563636 360 
L 320.727273 360 
L 329.890909 360 
L 339.054545 360 
L 348.218182 360 
L 357.381818 360 
L 366.545455 360 
L 375.709091 360 
L 384.872727 360 
L 394.036364 360 
L 403.2 360 
L 412.363636 360 
L 421.527273 360 
L 430.690909 360 
L 439.854545 360 
L 449.018182 360 
L 458.181818 360 
L 467.345455 360 
L 476.509091 360 
L 485.672727 360 
L 494.836364 360 
M 513.163636 360 
L 522.327273 360 
L 531.490909 360 
L 540.654545 360 
L 549.818182 360 
L 558.981818 360 
L 568.145455 360 
L 577.309091 360 
L 586.472727 360 
L 595.636364 360 
L 604.8 360 
L 613.963636 360 
L 623.127273 360 
L 632.290909 360 
L 641.454545 360 
L 650.618182 360 
L 659.781818 360 
L 668.945455 360 
L 678.109091 360 
L 687.272727 360 
L 696.436364 360 
L 705.6 360 
L 714.763636 360 
L 723.927273 360 
L 733.090909 360 
L 742.254545 360 
L 751.418182 360 
L 760.581818 360 
L 769.745455 360 
L 778.909091 360 
L 788.072727 360 
L 797.236364 360 
L 806.4 360 
L 815.563636 360 
L 824.727273 360 
L 833.890909 360 
L 843.054545 360 
L 852.218182 360 
L 861.381818 360 
L 870.545455 360 
L 879.709091 360 
L 888.872727 360 
L 898.036364 360 
L 907.2 360 
L 916.363636 360 
L 925.527273 360 
L 934.690909 360 
L 943.854545 360 
L 953.018182 360 
L 962.181818 360 
" clip-path="url(#p96a3d1b174)" style="fill: none; stroke: #d62728; stroke-width: 1.5; stroke-linecap: square"/>
   </g>
   <g id="line2d_23">
    <path d="M 45.818182 687.272727 
L 54.981818 680.727273 
L 64.145455 674.181818 
L 73.309091 667.636364 
L 82.472727 661.090909 
L 91.636364 654.545455 
L 100.8 648 
L 109.963636 641.454545 
L 119.127273 634.909091 
L 128.290909 628.363636 
L 137.454545 621.818182 
L 146.618182 615.272727 
L 155.781818 608.727273 
L 164.945455 602.181818 
L 174.109091 595.636364 
L 183.272727 589.090909 
L 192.436364 582.545455 
L 201.6 576 
L 210.763636 569.454545 
L 219.927273 562.909091 
L 229.090909 556.363636 
L 238.254545 549.818182 
L 247.418182 543.272727 
L 256.581818 536.727273 
L 265.745455 530.181818 
L 274.909091 523.636364 
L 284.072727 517.090909 
L 293.236364 510.545455 
L 302.4 504 
L 311.563636 497.454545 
L 320.727273 490.909091 
L 329.890909 484.363636 
L 339.054545 477.818182 
L 348.218182 471.272727 
L 357.381818 464.727273 
L 366.545455 458.181818 
L 375.709091 451.636364 
L 384.872727 445.090909 
L 394.036364 438.545455 
L 403.2 432 
L 412.363636 425.454545 
L 421.527273 418.909091 
L 430.690909 412.363636 
L 439.854545 405.818182 
L 449.018182 399.272727 
L 458.181818 392.727273 
L 467.345455 386.181818 
L 476.509091 379.636364 
L 485.672727 373.090909 
L 494.836364 366.545455 
M 513.163636 353.454545 
L 522.327273 346.909091 
L 531.490909 340.363636 
L 540.654545 333.818182 
L 549.818182 327.272727 
L 558.981818 320.727273 
L 568.145455 314.181818 
L 577.309091 307.636364 
L 586.472727 301.090909 
L 595.636364 294.545455 
L 604.8 288 
L 613.963636 281.454545 
L 623.127273 274.909091 
L 632.290909 268.363636 
L 641.454545 261.818182 
L 650.618182 255.272727 
L 659.781818 248.727273 
L 668.945455 242.181818 
L 678.109091 235.636364 
L 687.272727 229.090909 
L 696.436364 222.545455 
L 705.6 216 
L 714.763636 209.454545 
L 723.927273 202.909091 
L 733.090909 196.363636 
L 742.254545 189.818182 
L 751.418182 183.272727 
L 760.581818 176.727273 
L 769.745455 170.181818 
L 778.909091 163.636364 
L 788.072727 157.090909 
L 797.236364 150.545455 
L 806.4 144 
L 815.563636 137.454545 
L 824.727273 130.909091 
L 833.890909 124.363636 
L 843.054545 117.818182 
L 852.218182 111.272727 
L 861.381818 104.727273 
L 870.545455 98.181818 
L 879.709091 91.636364 
L 888.872727 85.090909 
L 898.036364 78.545455 
L 907.2 72 
L 916.363636 65.454545 
L 925.527273 58.909091 
L 934.690909 52.363636 
L 943.854545 45.818182 
L 953.018182 39.272727 
L 962.181818 32.727273 
" clip-path="url(#p96a3d1b174)" style="fill: none; stroke: #9467bd; stroke-width: 1.5; stroke-linecap: square"/>
   </g>
   <g id="line2d_24">
    <path d="M 45.818182 523.636364 
L 54.981818 520.363636 
L 64.145455 517.090909 
L 73.309091 513.818182 
L 82.472727 510.545455 
L 91.636364 507.272727 
L 100.8 504 
L 109.963636 500.727273 
L 119.127273 497.454545 
L 128.290909 494.181818 
L 137.454545 490.909091 
L 146.618182 487.636364 
L 155.781818 484.363636 
L 164.945455 481.090909 
L 174.109091 477.818182 
L 183.272727 474.545455 
L 192.436364 471.272727 
L 201.6 468 
L 210.763636 464.727273 
L 219.927273 461.454545 
L 229.090909 458.181818 
L 238.254545 454.909091 
L 247.418182 451.636364 
L 256.581818 448.363636 
L 265.745455 445.090909 
L 274.909091 441.818182 
L 284.072727 438.545455 
L 293.236364 435.272727 
L 302.4 432 
L 311.563636 428.727273 
L 320.727273 425.454545 
L 329.890909 422.181818 
L 339.054545 418.909091 
L 348.218182 415.636364 
L 357.381818 412.363636 
L 366.545455 409.090909 
L 375.709091 405.818182 
L 384.872727 402.545455 
L 394.036364 399.272727 
L 403.2 396 
L 412.363636 392.727273 
L 421.527273 389.454545 
L 430.690909 386.181818 
L 439.854545 382.909091 
L 449.018182 379.636364 
L 458.181818 376.363636 
L 467.345455 373.090909 
L 476.509091 369.818182 
L 485.672727 366.545455 
L 494.836364 363.272727 
M 513.163636 356.727273 
L 522.327273 353.454545 
L 531.490909 350.181818 
L 540.654545 346.909091 
L 549.818182 343.636364 
L 558.981818 340.363636 
L 568.145455 337.090909 
L 577.309091 333.818182 
L 586.472727 330.545455 
L 595.636364 327.272727 
L 604.8 324 
L 613.963636 320.727273 
L 623.127273 317.454545 
L 632.290909 314.181818 
L 641.454545 310.909091 
L 650.618182 307.636364 
L 659.781818 304.363636 
L 668.945455 301.090909 
L 678.109091 297.818182 
L 687.272727 294.545455 
L 696.436364 291.272727 
L 705.6 288 
L 714.763636 284.727273 
L 723.927273 281.454545 
L 733.090909 278.181818 
L 742.254545 274.909091 
L 751.418182 271.636364 
L 760.581818 268.363636 
L 769.745455 265.090909 
L 778.909091 261.818182 
L 788.072727 258.545455 
L 797.236364 255.272727 
L 806.4 252 
L 815.563636 248.727273 
L 824.727273 245.454545 
L 833.890909 242.181818 
L 843.054545 238.909091 
L 852.218182 235.636364 
L 861.381818 232.363636 
L 870.545455 229.090909 
L 879.709091 225.818182 
L 888.872727 222.545455 
L 898.036364 219.272727 
L 907.2 216 
L 916.363636 212.727273 
L 925.527273 209.454545 
L 934.690909 206.181818 
L 943.854545 202.909091 
L 953.018182 199.636364 
L 962.181818 196.363636 
" clip-path="url(#p96a3d1b174)" style="fill: none; stroke: #8c564b; stroke-width: 1.5; stroke-linecap: square"/>
   </g>
   <g id="patch_3">
    <path d="M 0 720 
L 0 -0 
" style="fill: none; stroke: #000000; stroke-width: 0.8; stroke-linejoin: miter; stroke-linecap: square"/>
   </g>
   <g id="patch_4">
    <path d="M 1008 720 
L 1008 -0 
" style="fill: none; stroke: #000000; stroke-width: 0.8; stroke-linejoin: miter; stroke-linecap: square"/>
   </g>
   <g id="patch_5">
    <path d="M 0 720 
L 1008 720 
" style="fill: none; stroke: #000000; stroke-width: 0.8; stroke-linejoin: miter; stroke-linecap: square"/>
   </g>
   <g id="patch_6">
    <path d="M 0 0 
L 1008 0 
" style="fill: none; stroke: #000000; stroke-width: 0.8; stroke-linejoin: miter; stroke-linecap: square"/>
   </g>
   <g id="legend_1">
    <g id="patch_7">
     <path d="M 11.2 154.88 
L 146.4 154.88 
Q 149.6 154.88 149.6 151.68 
L 149.6 11.2 
Q 149.6 8 146.4 8 
L 11.2 8 
Q 8 8 8 11.2 
L 8 151.68 
Q 8 154.88 11.2 154.88 
z
" style="fill: #ffffff; opacity: 0.8; stroke: #cccccc; stroke-linejoin: miter"/>
    </g>
    <g id="line2d_25">
     <path d="M 14.4 21.12 
L 30.4 21.12 
L 46.4 21.12 
" style="fill: none; stroke: #1f77b4; stroke-width: 1.5; stroke-linecap: square"/>
    </g>
    <g id="text_19">
     <!-- $\alpha$=1, $\beta$=0 -->
     <g transform="translate(59.2 26.72) scale(0.16 -0.16)">
      <defs>
       <path id="DejaVuSans-Oblique-3b1" d="M 2619 1628 
L 2622 2350 
Q 2625 3088 2069 3091 
Q 1653 3094 1394 2747 
Q 1069 2319 959 1747 
Q 825 1059 994 731 
Q 1169 397 1547 397 
Q 1966 397 2319 1063 
L 2619 1628 
z
M 2166 3578 
Q 3141 3594 3128 2584 
Q 3128 2584 3616 3500 
L 4128 3500 
L 3119 1603 
L 3109 919 
Q 3109 766 3194 638 
Q 3291 488 3391 488 
L 3669 488 
L 3575 0 
L 3228 0 
Q 2934 0 2722 263 
Q 2622 394 2619 669 
Q 2416 334 2066 50 
Q 1900 -81 1453 -78 
Q 722 -72 456 397 
Q 184 884 353 1747 
Q 534 2675 1009 3097 
Q 1544 3569 2166 3578 
z
" transform="scale(0.015625)"/>
       <path id="DejaVuSans-3d" d="M 678 2906 
L 4684 2906 
L 4684 2381 
L 678 2381 
L 678 2906 
z
M 678 1631 
L 4684 1631 
L 4684 1100 
L 678 1100 
L 678 1631 
z
" transform="scale(0.015625)"/>
       <path id="DejaVuSans-2c" d="M 750 794 
L 1409 794 
L 1409 256 
L 897 -744 
L 494 -744 
L 750 256 
L 750 794 
z
" transform="scale(0.015625)"/>
       <path id="DejaVuSans-20" transform="scale(0.015625)"/>
       <path id="DejaVuSans-Oblique-3b2" d="M 872 216 
L 572 -1331 
L -6 -1331 
L 928 3478 
Q 1206 4903 2538 4903 
Q 3888 4903 3659 3700 
Q 3503 2844 2894 2531 
Q 3713 2250 3553 1416 
Q 3272 -69 1759 -66 
Q 1097 -63 872 216 
z
M 1019 966 
Q 1259 422 1875 425 
Q 2775 425 2966 1406 
Q 3138 2288 1675 2219 
L 1778 2750 
Q 2909 2731 3106 3750 
Q 3241 4438 2509 4434 
Q 1691 4434 1503 3459 
L 1019 966 
z
" transform="scale(0.015625)"/>
      </defs>
      <use xlink:href="#DejaVuSans-Oblique-3b1" transform="translate(0 0.390625)"/>
      <use xlink:href="#DejaVuSans-3d" transform="translate(65.917969 0.390625)"/>
      <use xlink:href="#DejaVuSans-31" transform="translate(149.707031 0.390625)"/>
      <use xlink:href="#DejaVuSans-2c" transform="translate(213.330078 0.390625)"/>
      <use xlink:href="#DejaVuSans-20" transform="translate(245.117188 0.390625)"/>
      <use xlink:href="#DejaVuSans-Oblique-3b2" transform="translate(276.904297 0.390625)"/>
      <use xlink:href="#DejaVuSans-3d" transform="translate(340.722656 0.390625)"/>
      <use xlink:href="#DejaVuSans-30" transform="translate(424.511719 0.390625)"/>
     </g>
    </g>
    <g id="line2d_26">
     <path d="M 14.4 44.8 
L 30.4 44.8 
L 46.4 44.8 
" style="fill: none; stroke: #ff7f0e; stroke-width: 1.5; stroke-linecap: square"/>
    </g>
    <g id="text_20">
     <!-- $\alpha$=0, $\beta$=0 -->
     <g transform="translate(59.2 50.4) scale(0.16 -0.16)">
      <use xlink:href="#DejaVuSans-Oblique-3b1" transform="translate(0 0.390625)"/>
      <use xlink:href="#DejaVuSans-3d" transform="translate(65.917969 0.390625)"/>
      <use xlink:href="#DejaVuSans-30" transform="translate(149.707031 0.390625)"/>
      <use xlink:href="#DejaVuSans-2c" transform="translate(213.330078 0.390625)"/>
      <use xlink:href="#DejaVuSans-20" transform="translate(245.117188 0.390625)"/>
      <use xlink:href="#DejaVuSans-Oblique-3b2" transform="translate(276.904297 0.390625)"/>
      <use xlink:href="#DejaVuSans-3d" transform="translate(340.722656 0.390625)"/>
      <use xlink:href="#DejaVuSans-30" transform="translate(424.511719 0.390625)"/>
     </g>
    </g>
    <g id="line2d_27">
     <path d="M 14.4 68.48 
L 30.4 68.48 
L 46.4 68.48 
" style="fill: none; stroke: #2ca02c; stroke-width: 1.5; stroke-linecap: square"/>
    </g>
    <g id="text_21">
     <!-- $\alpha$=0, $\beta$=1 -->
     <g transform="translate(59.2 74.08) scale(0.16 -0.16)">
      <use xlink:href="#DejaVuSans-Oblique-3b1" transform="translate(0 0.390625)"/>
      <use xlink:href="#DejaVuSans-3d" transform="translate(65.917969 0.390625)"/>
      <use xlink:href="#DejaVuSans-30" transform="translate(149.707031 0.390625)"/>
      <use xlink:href="#DejaVuSans-2c" transform="translate(213.330078 0.390625)"/>
      <use xlink:href="#DejaVuSans-20" transform="translate(245.117188 0.390625)"/>
      <use xlink:href="#DejaVuSans-Oblique-3b2" transform="translate(276.904297 0.390625)"/>
      <use xlink:href="#DejaVuSans-3d" transform="translate(340.722656 0.390625)"/>
      <use xlink:href="#DejaVuSans-31" transform="translate(424.511719 0.390625)"/>
     </g>
    </g>
    <g id="line2d_28">
     <path d="M 14.4 92.16 
L 30.4 92.16 
L 46.4 92.16 
" style="fill: none; stroke: #d62728; stroke-width: 1.5; stroke-linecap: square"/>
    </g>
    <g id="text_22">
     <!-- $\alpha$=0, $\beta$=2 -->
     <g transform="translate(59.2 97.76) scale(0.16 -0.16)">
      <use xlink:href="#DejaVuSans-Oblique-3b1" transform="translate(0 0.390625)"/>
      <use xlink:href="#DejaVuSans-3d" transform="translate(65.917969 0.390625)"/>
      <use xlink:href="#DejaVuSans-30" transform="translate(149.707031 0.390625)"/>
      <use xlink:href="#DejaVuSans-2c" transform="translate(213.330078 0.390625)"/>
      <use xlink:href="#DejaVuSans-20" transform="translate(245.117188 0.390625)"/>
      <use xlink:href="#DejaVuSans-Oblique-3b2" transform="translate(276.904297 0.390625)"/>
      <use xlink:href="#DejaVuSans-3d" transform="translate(340.722656 0.390625)"/>
      <use xlink:href="#DejaVuSans-32" transform="translate(424.511719 0.390625)"/>
     </g>
    </g>
    <g id="line2d_29">
     <path d="M 14.4 115.84 
L 30.4 115.84 
L 46.4 115.84 
" style="fill: none; stroke: #9467bd; stroke-width: 1.5; stroke-linecap: square"/>
    </g>
    <g id="text_23">
     <!-- $\alpha$=1, $\beta$=-1 -->
     <g transform="translate(59.2 121.44) scale(0.16 -0.16)">
      <defs>
       <path id="DejaVuSans-2d" d="M 313 2009 
L 1997 2009 
L 1997 1497 
L 313 1497 
L 313 2009 
z
" transform="scale(0.015625)"/>
      </defs>
      <use xlink:href="#DejaVuSans-Oblique-3b1" transform="translate(0 0.390625)"/>
      <use xlink:href="#DejaVuSans-3d" transform="translate(65.917969 0.390625)"/>
      <use xlink:href="#DejaVuSans-31" transform="translate(149.707031 0.390625)"/>
      <use xlink:href="#DejaVuSans-2c" transform="translate(213.330078 0.390625)"/>
      <use xlink:href="#DejaVuSans-20" transform="translate(245.117188 0.390625)"/>
      <use xlink:href="#DejaVuSans-Oblique-3b2" transform="translate(276.904297 0.390625)"/>
      <use xlink:href="#DejaVuSans-3d" transform="translate(340.722656 0.390625)"/>
      <use xlink:href="#DejaVuSans-2d" transform="translate(424.511719 0.390625)"/>
      <use xlink:href="#DejaVuSans-31" transform="translate(460.595703 0.390625)"/>
     </g>
    </g>
    <g id="line2d_30">
     <path d="M 14.4 139.52 
L 30.4 139.52 
L 46.4 139.52 
" style="fill: none; stroke: #8c564b; stroke-width: 1.5; stroke-linecap: square"/>
    </g>
    <g id="text_24">
     <!-- $\alpha$=2, $\beta$=-1 -->
     <g transform="translate(59.2 145.12) scale(0.16 -0.16)">
      <use xlink:href="#DejaVuSans-Oblique-3b1" transform="translate(0 0.390625)"/>
      <use xlink:href="#DejaVuSans-3d" transform="translate(65.917969 0.390625)"/>
      <use xlink:href="#DejaVuSans-32" transform="translate(149.707031 0.390625)"/>
      <use xlink:href="#DejaVuSans-2c" transform="translate(213.330078 0.390625)"/>
      <use xlink:href="#DejaVuSans-20" transform="translate(245.117188 0.390625)"/>
      <use xlink:href="#DejaVuSans-Oblique-3b2" transform="translate(276.904297 0.390625)"/>
      <use xlink:href="#DejaVuSans-3d" transform="translate(340.722656 0.390625)"/>
      <use xlink:href="#DejaVuSans-2d" transform="translate(424.511719 0.390625)"/>
      <use xlink:href="#DejaVuSans-31" transform="translate(460.595703 0.390625)"/>
     </g>
    </g>
   </g>
  </g>
 </g>
 <defs>
  <clipPath id="p96a3d1b174">
   <rect x="0" y="0" width="1008" height="720"/>
  </clipPath>
 </defs>
</svg>
