<?xml version="1.0" encoding="utf-8" standalone="no"?>
<!DOCTYPE svg PUBLIC "-//W3C//DTD SVG 1.1//EN"
  "http://www.w3.org/Graphics/SVG/1.1/DTD/svg11.dtd">
<svg xmlns:xlink="http://www.w3.org/1999/xlink" width="1008pt" height="720pt" viewBox="0 0 1008 720" xmlns="http://www.w3.org/2000/svg" version="1.1">
 <metadata>
  <rdf:RDF xmlns:dc="http://purl.org/dc/elements/1.1/" xmlns:cc="http://creativecommons.org/ns#" xmlns:rdf="http://www.w3.org/1999/02/22-rdf-syntax-ns#">
   <cc:Work>
    <dc:type rdf:resource="http://purl.org/dc/dcmitype/StillImage"/>
    <dc:date>2023-10-06T02:33:15.679812</dc:date>
    <dc:format>image/svg+xml</dc:format>
    <dc:creator>
     <cc:Agent>
      <dc:title>Matplotlib v3.7.3, https://matplotlib.org/</dc:title>
     </cc:Agent>
    </dc:creator>
   </cc:Work>
  </rdf:RDF>
 </metadata>
 <defs>
  <style type="text/css">*{stroke-linejoin: round; stroke-linecap: butt}</style>
 </defs>
 <g id="figure_1">
  <g id="patch_1">
   <path d="M 0 720 
L 1008 720 
L 1008 0 
L 0 0 
z
" style="fill: #ffffff"/>
  </g>
  <g id="axes_1">
   <g id="patch_2">
    <path d="M 0 720 
L 1008 720 
L 1008 0 
L 0 0 
z
" style="fill: #ffffff"/>
   </g>
   <g id="matplotlib.axis_1">
    <g id="xtick_1">
     <g id="line2d_1">
      <defs>
       <path id="me2c3bdc2d4" d="M 0 0 
L 0 3.5 
" style="stroke: #000000; stroke-width: 0.8"/>
      </defs>
      <g>
       <use xlink:href="#me2c3bdc2d4" x="24.585366" y="720" style="stroke: #000000; stroke-width: 0.8"/>
      </g>
     </g>
     <g id="text_1">
      <!-- 0 -->
      <g transform="translate(21.404116 734.598438) scale(0.1 -0.1)">
       <defs>
        <path id="DejaVuSans-30" d="M 2034 4250 
Q 1547 4250 1301 3770 
Q 1056 3291 1056 2328 
Q 1056 1369 1301 889 
Q 1547 409 2034 409 
Q 2525 409 2770 889 
Q 3016 1369 3016 2328 
Q 3016 3291 2770 3770 
Q 2525 4250 2034 4250 
z
M 2034 4750 
Q 2819 4750 3233 4129 
Q 3647 3509 3647 2328 
Q 3647 1150 3233 529 
Q 2819 -91 2034 -91 
Q 1250 -91 836 529 
Q 422 1150 422 2328 
Q 422 3509 836 4129 
Q 1250 4750 2034 4750 
z
" transform="scale(0.015625)"/>
       </defs>
       <use xlink:href="#DejaVuSans-30"/>
      </g>
     </g>
    </g>
    <g id="xtick_2">
     <g id="line2d_2">
      <g>
       <use xlink:href="#me2c3bdc2d4" x="147.512195" y="720" style="stroke: #000000; stroke-width: 0.8"/>
      </g>
     </g>
     <g id="text_2">
      <!-- 5 -->
      <g transform="translate(144.330945 734.598438) scale(0.1 -0.1)">
       <defs>
        <path id="DejaVuSans-35" d="M 691 4666 
L 3169 4666 
L 3169 4134 
L 1269 4134 
L 1269 2991 
Q 1406 3038 1543 3061 
Q 1681 3084 1819 3084 
Q 2600 3084 3056 2656 
Q 3513 2228 3513 1497 
Q 3513 744 3044 326 
Q 2575 -91 1722 -91 
Q 1428 -91 1123 -41 
Q 819 9 494 109 
L 494 744 
Q 775 591 1075 516 
Q 1375 441 1709 441 
Q 2250 441 2565 725 
Q 2881 1009 2881 1497 
Q 2881 1984 2565 2268 
Q 2250 2553 1709 2553 
Q 1456 2553 1204 2497 
Q 953 2441 691 2322 
L 691 4666 
z
" transform="scale(0.015625)"/>
       </defs>
       <use xlink:href="#DejaVuSans-35"/>
      </g>
     </g>
    </g>
    <g id="xtick_3">
     <g id="line2d_3">
      <g>
       <use xlink:href="#me2c3bdc2d4" x="270.439024" y="720" style="stroke: #000000; stroke-width: 0.8"/>
      </g>
     </g>
     <g id="text_3">
      <!-- 10 -->
      <g transform="translate(264.076524 734.598438) scale(0.1 -0.1)">
       <defs>
        <path id="DejaVuSans-31" d="M 794 531 
L 1825 531 
L 1825 4091 
L 703 3866 
L 703 4441 
L 1819 4666 
L 2450 4666 
L 2450 531 
L 3481 531 
L 3481 0 
L 794 0 
L 794 531 
z
" transform="scale(0.015625)"/>
       </defs>
       <use xlink:href="#DejaVuSans-31"/>
       <use xlink:href="#DejaVuSans-30" x="63.623047"/>
      </g>
     </g>
    </g>
    <g id="xtick_4">
     <g id="line2d_4">
      <g>
       <use xlink:href="#me2c3bdc2d4" x="393.365854" y="720" style="stroke: #000000; stroke-width: 0.8"/>
      </g>
     </g>
     <g id="text_4">
      <!-- 15 -->
      <g transform="translate(387.003354 734.598438) scale(0.1 -0.1)">
       <use xlink:href="#DejaVuSans-31"/>
       <use xlink:href="#DejaVuSans-35" x="63.623047"/>
      </g>
     </g>
    </g>
    <g id="xtick_5">
     <g id="line2d_5">
      <g>
       <use xlink:href="#me2c3bdc2d4" x="516.292683" y="720" style="stroke: #000000; stroke-width: 0.8"/>
      </g>
     </g>
     <g id="text_5">
      <!-- 20 -->
      <g transform="translate(509.930183 734.598438) scale(0.1 -0.1)">
       <defs>
        <path id="DejaVuSans-32" d="M 1228 531 
L 3431 531 
L 3431 0 
L 469 0 
L 469 531 
Q 828 903 1448 1529 
Q 2069 2156 2228 2338 
Q 2531 2678 2651 2914 
Q 2772 3150 2772 3378 
Q 2772 3750 2511 3984 
Q 2250 4219 1831 4219 
Q 1534 4219 1204 4116 
Q 875 4013 500 3803 
L 500 4441 
Q 881 4594 1212 4672 
Q 1544 4750 1819 4750 
Q 2544 4750 2975 4387 
Q 3406 4025 3406 3419 
Q 3406 3131 3298 2873 
Q 3191 2616 2906 2266 
Q 2828 2175 2409 1742 
Q 1991 1309 1228 531 
z
" transform="scale(0.015625)"/>
       </defs>
       <use xlink:href="#DejaVuSans-32"/>
       <use xlink:href="#DejaVuSans-30" x="63.623047"/>
      </g>
     </g>
    </g>
    <g id="xtick_6">
     <g id="line2d_6">
      <g>
       <use xlink:href="#me2c3bdc2d4" x="639.219512" y="720" style="stroke: #000000; stroke-width: 0.8"/>
      </g>
     </g>
     <g id="text_6">
      <!-- 25 -->
      <g transform="translate(632.857012 734.598438) scale(0.1 -0.1)">
       <use xlink:href="#DejaVuSans-32"/>
       <use xlink:href="#DejaVuSans-35" x="63.623047"/>
      </g>
     </g>
    </g>
    <g id="xtick_7">
     <g id="line2d_7">
      <g>
       <use xlink:href="#me2c3bdc2d4" x="762.146341" y="720" style="stroke: #000000; stroke-width: 0.8"/>
      </g>
     </g>
     <g id="text_7">
      <!-- 30 -->
      <g transform="translate(755.783841 734.598438) scale(0.1 -0.1)">
       <defs>
        <path id="DejaVuSans-33" d="M 2597 2516 
Q 3050 2419 3304 2112 
Q 3559 1806 3559 1356 
Q 3559 666 3084 287 
Q 2609 -91 1734 -91 
Q 1441 -91 1130 -33 
Q 819 25 488 141 
L 488 750 
Q 750 597 1062 519 
Q 1375 441 1716 441 
Q 2309 441 2620 675 
Q 2931 909 2931 1356 
Q 2931 1769 2642 2001 
Q 2353 2234 1838 2234 
L 1294 2234 
L 1294 2753 
L 1863 2753 
Q 2328 2753 2575 2939 
Q 2822 3125 2822 3475 
Q 2822 3834 2567 4026 
Q 2313 4219 1838 4219 
Q 1578 4219 1281 4162 
Q 984 4106 628 3988 
L 628 4550 
Q 988 4650 1302 4700 
Q 1616 4750 1894 4750 
Q 2613 4750 3031 4423 
Q 3450 4097 3450 3541 
Q 3450 3153 3228 2886 
Q 3006 2619 2597 2516 
z
" transform="scale(0.015625)"/>
       </defs>
       <use xlink:href="#DejaVuSans-33"/>
       <use xlink:href="#DejaVuSans-30" x="63.623047"/>
      </g>
     </g>
    </g>
    <g id="xtick_8">
     <g id="line2d_8">
      <g>
       <use xlink:href="#me2c3bdc2d4" x="885.073171" y="720" style="stroke: #000000; stroke-width: 0.8"/>
      </g>
     </g>
     <g id="text_8">
      <!-- 35 -->
      <g transform="translate(878.710671 734.598438) scale(0.1 -0.1)">
       <use xlink:href="#DejaVuSans-33"/>
       <use xlink:href="#DejaVuSans-35" x="63.623047"/>
      </g>
     </g>
    </g>
    <g id="xtick_9">
     <g id="line2d_9">
      <g>
       <use xlink:href="#me2c3bdc2d4" x="1008" y="720" style="stroke: #000000; stroke-width: 0.8"/>
      </g>
     </g>
     <g id="text_9">
      <!-- 40 -->
      <g transform="translate(1001.6375 734.598438) scale(0.1 -0.1)">
       <defs>
        <path id="DejaVuSans-34" d="M 2419 4116 
L 825 1625 
L 2419 1625 
L 2419 4116 
z
M 2253 4666 
L 3047 4666 
L 3047 1625 
L 3713 1625 
L 3713 1100 
L 3047 1100 
L 3047 0 
L 2419 0 
L 2419 1100 
L 313 1100 
L 313 1709 
L 2253 4666 
z
" transform="scale(0.015625)"/>
       </defs>
       <use xlink:href="#DejaVuSans-34"/>
       <use xlink:href="#DejaVuSans-30" x="63.623047"/>
      </g>
     </g>
    </g>
    <g id="text_10">
     <!-- X -->
     <g transform="translate(499.89 749.79625) scale(0.12 -0.12)">
      <defs>
       <path id="DejaVuSans-58" d="M 403 4666 
L 1081 4666 
L 2241 2931 
L 3406 4666 
L 4084 4666 
L 2584 2425 
L 4184 0 
L 3506 0 
L 2194 1984 
L 872 0 
L 191 0 
L 1856 2491 
L 403 4666 
z
" transform="scale(0.015625)"/>
      </defs>
      <use xlink:href="#DejaVuSans-58"/>
     </g>
    </g>
   </g>
   <g id="matplotlib.axis_2">
    <g id="ytick_1">
     <g id="line2d_10">
      <defs>
       <path id="m1abf44d0ff" d="M 0 0 
L -3.5 0 
" style="stroke: #000000; stroke-width: 0.8"/>
      </defs>
      <g>
       <use xlink:href="#m1abf44d0ff" x="0" y="720" style="stroke: #000000; stroke-width: 0.8"/>
      </g>
     </g>
     <g id="text_11">
      <!-- 0 -->
      <g transform="translate(-13.3625 723.799219) scale(0.1 -0.1)">
       <use xlink:href="#DejaVuSans-30"/>
      </g>
     </g>
    </g>
    <g id="ytick_2">
     <g id="line2d_11">
      <g>
       <use xlink:href="#m1abf44d0ff" x="0" y="576" style="stroke: #000000; stroke-width: 0.8"/>
      </g>
     </g>
     <g id="text_12">
      <!-- 20 -->
      <g transform="translate(-19.725 579.799219) scale(0.1 -0.1)">
       <use xlink:href="#DejaVuSans-32"/>
       <use xlink:href="#DejaVuSans-30" x="63.623047"/>
      </g>
     </g>
    </g>
    <g id="ytick_3">
     <g id="line2d_12">
      <g>
       <use xlink:href="#m1abf44d0ff" x="0" y="432" style="stroke: #000000; stroke-width: 0.8"/>
      </g>
     </g>
     <g id="text_13">
      <!-- 40 -->
      <g transform="translate(-19.725 435.799219) scale(0.1 -0.1)">
       <use xlink:href="#DejaVuSans-34"/>
       <use xlink:href="#DejaVuSans-30" x="63.623047"/>
      </g>
     </g>
    </g>
    <g id="ytick_4">
     <g id="line2d_13">
      <g>
       <use xlink:href="#m1abf44d0ff" x="0" y="288" style="stroke: #000000; stroke-width: 0.8"/>
      </g>
     </g>
     <g id="text_14">
      <!-- 60 -->
      <g transform="translate(-19.725 291.799219) scale(0.1 -0.1)">
       <defs>
        <path id="DejaVuSans-36" d="M 2113 2584 
Q 1688 2584 1439 2293 
Q 1191 2003 1191 1497 
Q 1191 994 1439 701 
Q 1688 409 2113 409 
Q 2538 409 2786 701 
Q 3034 994 3034 1497 
Q 3034 2003 2786 2293 
Q 2538 2584 2113 2584 
z
M 3366 4563 
L 3366 3988 
Q 3128 4100 2886 4159 
Q 2644 4219 2406 4219 
Q 1781 4219 1451 3797 
Q 1122 3375 1075 2522 
Q 1259 2794 1537 2939 
Q 1816 3084 2150 3084 
Q 2853 3084 3261 2657 
Q 3669 2231 3669 1497 
Q 3669 778 3244 343 
Q 2819 -91 2113 -91 
Q 1303 -91 875 529 
Q 447 1150 447 2328 
Q 447 3434 972 4092 
Q 1497 4750 2381 4750 
Q 2619 4750 2861 4703 
Q 3103 4656 3366 4563 
z
" transform="scale(0.015625)"/>
       </defs>
       <use xlink:href="#DejaVuSans-36"/>
       <use xlink:href="#DejaVuSans-30" x="63.623047"/>
      </g>
     </g>
    </g>
    <g id="ytick_5">
     <g id="line2d_14">
      <g>
       <use xlink:href="#m1abf44d0ff" x="0" y="144" style="stroke: #000000; stroke-width: 0.8"/>
      </g>
     </g>
     <g id="text_15">
      <!-- 80 -->
      <g transform="translate(-19.725 147.799219) scale(0.1 -0.1)">
       <defs>
        <path id="DejaVuSans-38" d="M 2034 2216 
Q 1584 2216 1326 1975 
Q 1069 1734 1069 1313 
Q 1069 891 1326 650 
Q 1584 409 2034 409 
Q 2484 409 2743 651 
Q 3003 894 3003 1313 
Q 3003 1734 2745 1975 
Q 2488 2216 2034 2216 
z
M 1403 2484 
Q 997 2584 770 2862 
Q 544 3141 544 3541 
Q 544 4100 942 4425 
Q 1341 4750 2034 4750 
Q 2731 4750 3128 4425 
Q 3525 4100 3525 3541 
Q 3525 3141 3298 2862 
Q 3072 2584 2669 2484 
Q 3125 2378 3379 2068 
Q 3634 1759 3634 1313 
Q 3634 634 3220 271 
Q 2806 -91 2034 -91 
Q 1263 -91 848 271 
Q 434 634 434 1313 
Q 434 1759 690 2068 
Q 947 2378 1403 2484 
z
M 1172 3481 
Q 1172 3119 1398 2916 
Q 1625 2713 2034 2713 
Q 2441 2713 2670 2916 
Q 2900 3119 2900 3481 
Q 2900 3844 2670 4047 
Q 2441 4250 2034 4250 
Q 1625 4250 1398 4047 
Q 1172 3844 1172 3481 
z
" transform="scale(0.015625)"/>
       </defs>
       <use xlink:href="#DejaVuSans-38"/>
       <use xlink:href="#DejaVuSans-30" x="63.623047"/>
      </g>
     </g>
    </g>
    <g id="ytick_6">
     <g id="line2d_15">
      <g>
       <use xlink:href="#m1abf44d0ff" x="0" y="0" style="stroke: #000000; stroke-width: 0.8"/>
      </g>
     </g>
     <g id="text_16">
      <!-- 100 -->
      <g transform="translate(-26.0875 3.799219) scale(0.1 -0.1)">
       <use xlink:href="#DejaVuSans-31"/>
       <use xlink:href="#DejaVuSans-30" x="63.623047"/>
       <use xlink:href="#DejaVuSans-30" x="127.246094"/>
      </g>
     </g>
    </g>
    <g id="text_17">
     <!-- f(X) -->
     <g transform="translate(-32.583125 370.904063) rotate(-90) scale(0.12 -0.12)">
      <defs>
       <path id="DejaVuSans-66" d="M 2375 4863 
L 2375 4384 
L 1825 4384 
Q 1516 4384 1395 4259 
Q 1275 4134 1275 3809 
L 1275 3500 
L 2222 3500 
L 2222 3053 
L 1275 3053 
L 1275 0 
L 697 0 
L 697 3053 
L 147 3053 
L 147 3500 
L 697 3500 
L 697 3744 
Q 697 4328 969 4595 
Q 1241 4863 1831 4863 
L 2375 4863 
z
" transform="scale(0.015625)"/>
       <path id="DejaVuSans-28" d="M 1984 4856 
Q 1566 4138 1362 3434 
Q 1159 2731 1159 2009 
Q 1159 1288 1364 580 
Q 1569 -128 1984 -844 
L 1484 -844 
Q 1016 -109 783 600 
Q 550 1309 550 2009 
Q 550 2706 781 3412 
Q 1013 4119 1484 4856 
L 1984 4856 
z
" transform="scale(0.015625)"/>
       <path id="DejaVuSans-29" d="M 513 4856 
L 1013 4856 
Q 1481 4119 1714 3412 
Q 1947 2706 1947 2009 
Q 1947 1309 1714 600 
Q 1481 -109 1013 -844 
L 513 -844 
Q 928 -128 1133 580 
Q 1338 1288 1338 2009 
Q 1338 2731 1133 3434 
Q 928 4138 513 4856 
z
" transform="scale(0.015625)"/>
      </defs>
      <use xlink:href="#DejaVuSans-66"/>
      <use xlink:href="#DejaVuSans-28" x="35.205078"/>
      <use xlink:href="#DejaVuSans-58" x="74.21875"/>
      <use xlink:href="#DejaVuSans-29" x="142.724609"/>
     </g>
    </g>
   </g>
   <g id="line2d_16">
    <path d="M 27.043902 690.031601 
L 29.502439 696.700311 
L 31.960976 699.654659 
L 34.419512 701.4158 
L 36.878049 702.617662 
L 39.336585 703.50484 
L 41.795122 704.194354 
L 46.712195 705.210534 
L 51.629268 705.935069 
L 59.004878 706.714889 
L 68.839024 707.433437 
L 81.131707 708.052461 
L 98.341463 708.643078 
L 120.468293 709.154138 
L 152.429268 709.642591 
L 196.682927 710.078656 
L 263.063415 710.488219 
L 361.404878 710.854764 
L 516.292683 711.190031 
L 769.521951 711.49199 
L 1009 711.662158 
L 1009 711.662158 
" clip-path="url(#p0f7ebc0961)" style="fill: none; stroke: #1f77b4; stroke-width: 1.5; stroke-linecap: square"/>
   </g>
   <g id="line2d_17">
    <path d="M 27.043902 710.52316 
L 29.502439 709.580062 
L 34.419512 708.24632 
L 39.336585 707.222904 
L 46.712195 705.96948 
L 56.546341 704.590737 
L 68.839024 703.140186 
L 83.590244 701.645808 
L 100.8 700.123092 
L 122.926829 698.4 
L 149.970732 696.540111 
L 181.931707 694.585281 
L 218.809756 692.563004 
L 263.063415 690.375727 
L 312.234146 688.172211 
L 368.780488 685.860067 
L 435.160976 683.376744 
L 508.917073 680.843029 
L 592.507317 678.195029 
L 688.390244 675.387703 
L 794.107317 672.51859 
L 912.117073 669.540042 
L 1009 667.240064 
L 1009 667.240064 
" clip-path="url(#p0f7ebc0961)" style="fill: none; stroke: #ff7f0e; stroke-width: 1.5; stroke-linecap: square"/>
   </g>
   <g id="line2d_18">
    <path d="M 27.043902 712.572316 
L 29.502439 712.156012 
L 34.419512 710.978528 
L 39.336585 709.453742 
L 44.253659 707.648099 
L 49.170732 705.6 
L 54.087805 703.335354 
L 59.004878 700.873183 
L 63.921951 698.228225 
L 71.297561 693.943421 
L 78.673171 689.305483 
L 86.04878 684.339501 
L 93.42439 679.065868 
L 100.8 673.501585 
L 108.17561 667.66111 
L 115.55122 661.556937 
L 122.926829 655.2 
L 130.302439 648.599978 
L 137.678049 641.765514 
L 147.512195 632.301553 
L 157.346341 622.451044 
L 167.180488 612.228602 
L 177.014634 601.647296 
L 186.84878 590.71891 
L 196.682927 579.454134 
L 206.517073 567.86273 
L 216.35122 555.953656 
L 226.185366 543.735169 
L 236.019512 531.214915 
L 245.853659 518.4 
L 258.146341 501.977041 
L 270.439024 485.116008 
L 282.731707 467.828002 
L 295.02439 450.123317 
L 307.317073 432.011539 
L 319.609756 413.50162 
L 331.902439 394.601948 
L 344.195122 375.320401 
L 356.487805 355.664396 
L 368.780488 335.640935 
L 381.073171 315.256644 
L 395.82439 290.328013 
L 410.57561 264.899059 
L 425.326829 238.979439 
L 440.078049 212.578271 
L 454.829268 185.704183 
L 469.580488 158.365357 
L 484.331707 130.569561 
L 499.082927 102.32419 
L 513.834146 73.636287 
L 528.585366 44.512577 
L 543.336585 14.959486 
L 551.215438 -1 
L 551.215438 -1 
" clip-path="url(#p0f7ebc0961)" style="fill: none; stroke: #2ca02c; stroke-width: 1.5; stroke-linecap: square"/>
   </g>
   <g id="patch_3">
    <path d="M 0 720 
L 0 0 
" style="fill: none; stroke: #000000; stroke-width: 0.8; stroke-linejoin: miter; stroke-linecap: square"/>
   </g>
   <g id="patch_4">
    <path d="M 1008 720 
L 1008 0 
" style="fill: none; stroke: #000000; stroke-width: 0.8; stroke-linejoin: miter; stroke-linecap: square"/>
   </g>
   <g id="patch_5">
    <path d="M 0 720 
L 1008 720 
" style="fill: none; stroke: #000000; stroke-width: 0.8; stroke-linejoin: miter; stroke-linecap: square"/>
   </g>
   <g id="patch_6">
    <path d="M 0 0 
L 1008 0 
" style="fill: none; stroke: #000000; stroke-width: 0.8; stroke-linejoin: miter; stroke-linecap: square"/>
   </g>
   <g id="text_18">
    <!-- График функции f(x)=$\frac{x^{\beta}+\alpha^{\beta}}{x^{\beta}}$ при различных $\alpha$ и $\beta$ -->
    <g transform="translate(273.51 -9.36) scale(0.18 -0.18)">
     <defs>
      <path id="DejaVuSans-413" d="M 628 0 
L 628 4666 
L 3531 4666 
L 3531 4134 
L 1259 4134 
L 1259 0 
L 628 0 
z
" transform="scale(0.015625)"/>
      <path id="DejaVuSans-440" d="M 1159 525 
L 1159 -1331 
L 581 -1331 
L 581 3500 
L 1159 3500 
L 1159 2969 
Q 1341 3281 1617 3432 
Q 1894 3584 2278 3584 
Q 2916 3584 3314 3078 
Q 3713 2572 3713 1747 
Q 3713 922 3314 415 
Q 2916 -91 2278 -91 
Q 1894 -91 1617 61 
Q 1341 213 1159 525 
z
M 3116 1747 
Q 3116 2381 2855 2742 
Q 2594 3103 2138 3103 
Q 1681 3103 1420 2742 
Q 1159 2381 1159 1747 
Q 1159 1113 1420 752 
Q 1681 391 2138 391 
Q 2594 391 2855 752 
Q 3116 1113 3116 1747 
z
" transform="scale(0.015625)"/>
      <path id="DejaVuSans-430" d="M 2194 1759 
Q 1497 1759 1228 1600 
Q 959 1441 959 1056 
Q 959 750 1161 570 
Q 1363 391 1709 391 
Q 2188 391 2477 730 
Q 2766 1069 2766 1631 
L 2766 1759 
L 2194 1759 
z
M 3341 1997 
L 3341 0 
L 2766 0 
L 2766 531 
Q 2569 213 2275 61 
Q 1981 -91 1556 -91 
Q 1019 -91 701 211 
Q 384 513 384 1019 
Q 384 1609 779 1909 
Q 1175 2209 1959 2209 
L 2766 2209 
L 2766 2266 
Q 2766 2663 2505 2880 
Q 2244 3097 1772 3097 
Q 1472 3097 1187 3025 
Q 903 2953 641 2809 
L 641 3341 
Q 956 3463 1253 3523 
Q 1550 3584 1831 3584 
Q 2591 3584 2966 3190 
Q 3341 2797 3341 1997 
z
" transform="scale(0.015625)"/>
      <path id="DejaVuSans-444" d="M 947 1747 
Q 947 1013 1173 702 
Q 1400 391 1784 391 
Q 2091 391 2447 916 
L 2447 2578 
Q 2091 3103 1784 3103 
Q 1400 3103 1173 2792 
Q 947 2481 947 1747 
z
M 2447 -1331 
L 2447 447 
Q 2269 153 2064 31 
Q 1859 -91 1600 -91 
Q 1078 -91 714 392 
Q 350 875 350 1734 
Q 350 2594 714 3089 
Q 1078 3584 1600 3584 
Q 1859 3584 2064 3465 
Q 2269 3347 2447 3053 
L 2447 4666 
L 3025 4666 
L 3025 3053 
Q 3203 3347 3408 3465 
Q 3613 3584 3872 3584 
Q 4394 3584 4758 3089 
Q 5122 2594 5122 1734 
Q 5122 875 4758 392 
Q 4394 -91 3872 -91 
Q 3613 -91 3408 31 
Q 3203 153 3025 447 
L 3025 -1331 
L 2447 -1331 
z
M 4525 1747 
Q 4525 2481 4298 2792 
Q 4072 3103 3688 3103 
Q 3381 3103 3025 2578 
L 3025 916 
Q 3381 391 3688 391 
Q 4072 391 4298 702 
Q 4525 1013 4525 1747 
z
" transform="scale(0.015625)"/>
      <path id="DejaVuSans-438" d="M 3578 3500 
L 3578 0 
L 3006 0 
L 3006 2809 
L 1319 0 
L 581 0 
L 581 3500 
L 1153 3500 
L 1153 697 
L 2838 3500 
L 3578 3500 
z
" transform="scale(0.015625)"/>
      <path id="DejaVuSans-43a" d="M 581 3500 
L 1153 3500 
L 1153 1856 
L 2775 3500 
L 3481 3500 
L 2144 2147 
L 3653 0 
L 3009 0 
L 1769 1766 
L 1153 1141 
L 1153 0 
L 581 0 
L 581 3500 
z
" transform="scale(0.015625)"/>
      <path id="DejaVuSans-20" transform="scale(0.015625)"/>
      <path id="DejaVuSans-443" d="M 2059 -325 
Q 1816 -950 1584 -1140 
Q 1353 -1331 966 -1331 
L 506 -1331 
L 506 -850 
L 844 -850 
Q 1081 -850 1212 -737 
Q 1344 -625 1503 -206 
L 1606 56 
L 191 3500 
L 800 3500 
L 1894 763 
L 2988 3500 
L 3597 3500 
L 2059 -325 
z
" transform="scale(0.015625)"/>
      <path id="DejaVuSans-43d" d="M 581 3500 
L 1159 3500 
L 1159 2072 
L 3025 2072 
L 3025 3500 
L 3603 3500 
L 3603 0 
L 3025 0 
L 3025 1613 
L 1159 1613 
L 1159 0 
L 581 0 
L 581 3500 
z
" transform="scale(0.015625)"/>
      <path id="DejaVuSans-446" d="M 3603 0 
L 581 0 
L 581 3500 
L 1159 3500 
L 1159 459 
L 3025 459 
L 3025 3500 
L 3603 3500 
L 3603 459 
L 4063 459 
L 4063 -884 
L 3603 -884 
L 3603 0 
z
" transform="scale(0.015625)"/>
      <path id="DejaVuSans-78" d="M 3513 3500 
L 2247 1797 
L 3578 0 
L 2900 0 
L 1881 1375 
L 863 0 
L 184 0 
L 1544 1831 
L 300 3500 
L 978 3500 
L 1906 2253 
L 2834 3500 
L 3513 3500 
z
" transform="scale(0.015625)"/>
      <path id="DejaVuSans-3d" d="M 678 2906 
L 4684 2906 
L 4684 2381 
L 678 2381 
L 678 2906 
z
M 678 1631 
L 4684 1631 
L 4684 1100 
L 678 1100 
L 678 1631 
z
" transform="scale(0.015625)"/>
      <path id="DejaVuSans-Oblique-78" d="M 3841 3500 
L 2234 1784 
L 3219 0 
L 2559 0 
L 1819 1388 
L 531 0 
L -166 0 
L 1556 1844 
L 641 3500 
L 1300 3500 
L 1972 2234 
L 3144 3500 
L 3841 3500 
z
" transform="scale(0.015625)"/>
      <path id="DejaVuSans-Oblique-3b2" d="M 872 216 
L 572 -1331 
L -6 -1331 
L 928 3478 
Q 1206 4903 2538 4903 
Q 3888 4903 3659 3700 
Q 3503 2844 2894 2531 
Q 3713 2250 3553 1416 
Q 3272 -69 1759 -66 
Q 1097 -63 872 216 
z
M 1019 966 
Q 1259 422 1875 425 
Q 2775 425 2966 1406 
Q 3138 2288 1675 2219 
L 1778 2750 
Q 2909 2731 3106 3750 
Q 3241 4438 2509 4434 
Q 1691 4434 1503 3459 
L 1019 966 
z
" transform="scale(0.015625)"/>
      <path id="DejaVuSans-2b" d="M 2944 4013 
L 2944 2272 
L 4684 2272 
L 4684 1741 
L 2944 1741 
L 2944 0 
L 2419 0 
L 2419 1741 
L 678 1741 
L 678 2272 
L 2419 2272 
L 2419 4013 
L 2944 4013 
z
" transform="scale(0.015625)"/>
      <path id="DejaVuSans-Oblique-3b1" d="M 2619 1628 
L 2622 2350 
Q 2625 3088 2069 3091 
Q 1653 3094 1394 2747 
Q 1069 2319 959 1747 
Q 825 1059 994 731 
Q 1169 397 1547 397 
Q 1966 397 2319 1063 
L 2619 1628 
z
M 2166 3578 
Q 3141 3594 3128 2584 
Q 3128 2584 3616 3500 
L 4128 3500 
L 3119 1603 
L 3109 919 
Q 3109 766 3194 638 
Q 3291 488 3391 488 
L 3669 488 
L 3575 0 
L 3228 0 
Q 2934 0 2722 263 
Q 2622 394 2619 669 
Q 2416 334 2066 50 
Q 1900 -81 1453 -78 
Q 722 -72 456 397 
Q 184 884 353 1747 
Q 534 2675 1009 3097 
Q 1544 3569 2166 3578 
z
" transform="scale(0.015625)"/>
      <path id="DejaVuSans-43f" d="M 3603 3500 
L 3603 0 
L 3025 0 
L 3025 3041 
L 1159 3041 
L 1159 0 
L 581 0 
L 581 3500 
L 3603 3500 
z
" transform="scale(0.015625)"/>
      <path id="DejaVuSans-437" d="M 2206 1888 
Q 2594 1813 2809 1584 
Q 3025 1356 3025 1019 
Q 3025 478 2622 193 
Q 2219 -91 1475 -91 
Q 1225 -91 961 -47 
Q 697 -3 416 84 
L 416 619 
Q 638 503 903 445 
Q 1169 388 1459 388 
Q 1931 388 2195 563 
Q 2459 738 2459 1019 
Q 2459 1294 2225 1461 
Q 1991 1628 1563 1628 
L 1100 1628 
L 1100 2103 
L 1584 2103 
Q 1947 2103 2158 2242 
Q 2369 2381 2369 2600 
Q 2369 2800 2151 2944 
Q 1934 3088 1563 3088 
Q 1341 3088 1089 3047 
Q 838 3006 534 2916 
L 534 3438 
Q 841 3513 1106 3550 
Q 1372 3588 1609 3588 
Q 2222 3588 2576 3342 
Q 2931 3097 2931 2656 
Q 2931 2366 2743 2164 
Q 2556 1963 2206 1888 
z
" transform="scale(0.015625)"/>
      <path id="DejaVuSans-43b" d="M 238 0 
L 238 478 
Q 806 566 981 959 
Q 1194 1513 1194 2928 
L 1194 3500 
L 3559 3500 
L 3559 0 
L 2984 0 
L 2984 3041 
L 1769 3041 
L 1769 2694 
Q 1769 1344 1494 738 
Q 1200 91 238 0 
z
" transform="scale(0.015625)"/>
      <path id="DejaVuSans-447" d="M 2625 0 
L 2625 1472 
L 1553 1472 
Q 1075 1472 756 1769 
Q 469 2038 469 2613 
L 469 3500 
L 1044 3500 
L 1044 2666 
Q 1044 2300 1206 2116 
Q 1372 1931 1697 1931 
L 2625 1931 
L 2625 3500 
L 3200 3500 
L 3200 0 
L 2625 0 
z
" transform="scale(0.015625)"/>
      <path id="DejaVuSans-44b" d="M 3907 3500 
L 4482 3500 
L 4482 0 
L 3907 0 
L 3907 3500 
z
M 4195 3584 
L 4195 3584 
z
M 2781 1038 
Q 2781 1319 2576 1466 
Q 2372 1613 1978 1613 
L 1159 1613 
L 1159 459 
L 1978 459 
Q 2372 459 2576 607 
Q 2781 756 2781 1038 
z
M 581 3500 
L 1159 3500 
L 1159 2072 
L 2003 2072 
Q 2672 2072 3033 1817 
Q 3394 1563 3394 1038 
Q 3394 513 3033 256 
Q 2672 0 2003 0 
L 581 0 
L 581 3500 
z
" transform="scale(0.015625)"/>
      <path id="DejaVuSans-445" d="M 3513 3500 
L 2247 1797 
L 3578 0 
L 2900 0 
L 1881 1375 
L 863 0 
L 184 0 
L 1544 1831 
L 300 3500 
L 978 3500 
L 1906 2253 
L 2834 3500 
L 3513 3500 
z
" transform="scale(0.015625)"/>
     </defs>
     <use xlink:href="#DejaVuSans-413" transform="translate(0 0.981719)"/>
     <use xlink:href="#DejaVuSans-440" transform="translate(60.986328 0.981719)"/>
     <use xlink:href="#DejaVuSans-430" transform="translate(124.462891 0.981719)"/>
     <use xlink:href="#DejaVuSans-444" transform="translate(185.742188 0.981719)"/>
     <use xlink:href="#DejaVuSans-438" transform="translate(271.240234 0.981719)"/>
     <use xlink:href="#DejaVuSans-43a" transform="translate(336.230469 0.981719)"/>
     <use xlink:href="#DejaVuSans-20" transform="translate(396.630859 0.981719)"/>
     <use xlink:href="#DejaVuSans-444" transform="translate(428.417969 0.981719)"/>
     <use xlink:href="#DejaVuSans-443" transform="translate(513.916016 0.981719)"/>
     <use xlink:href="#DejaVuSans-43d" transform="translate(573.095703 0.981719)"/>
     <use xlink:href="#DejaVuSans-43a" transform="translate(638.476562 0.981719)"/>
     <use xlink:href="#DejaVuSans-446" transform="translate(698.876953 0.981719)"/>
     <use xlink:href="#DejaVuSans-438" transform="translate(766.943359 0.981719)"/>
     <use xlink:href="#DejaVuSans-438" transform="translate(831.933594 0.981719)"/>
     <use xlink:href="#DejaVuSans-20" transform="translate(896.923828 0.981719)"/>
     <use xlink:href="#DejaVuSans-66" transform="translate(928.710938 0.981719)"/>
     <use xlink:href="#DejaVuSans-28" transform="translate(963.916016 0.981719)"/>
     <use xlink:href="#DejaVuSans-78" transform="translate(1002.929688 0.981719)"/>
     <use xlink:href="#DejaVuSans-29" transform="translate(1062.109375 0.981719)"/>
     <use xlink:href="#DejaVuSans-3d" transform="translate(1101.123047 0.981719)"/>
     <use xlink:href="#DejaVuSans-Oblique-78" transform="translate(1184.912109 45.664531) scale(0.7)"/>
     <use xlink:href="#DejaVuSans-Oblique-3b2" transform="translate(1229.464193 72.461406) scale(0.49)"/>
     <use xlink:href="#DejaVuSans-2b" transform="translate(1276.286947 45.664531) scale(0.7)"/>
     <use xlink:href="#DejaVuSans-Oblique-3b1" transform="translate(1348.576986 45.664531) scale(0.7)"/>
     <use xlink:href="#DejaVuSans-Oblique-3b2" transform="translate(1397.989803 72.461406) scale(0.49)"/>
     <use xlink:href="#DejaVuSans-Oblique-78" transform="translate(1268.912109 -50.806875) scale(0.7)"/>
     <use xlink:href="#DejaVuSans-Oblique-3b2" transform="translate(1313.464193 -24.01) scale(0.49)"/>
     <use xlink:href="#DejaVuSans-20" transform="translate(1443.674862 0.981719)"/>
     <use xlink:href="#DejaVuSans-43f" transform="translate(1475.461971 0.981719)"/>
     <use xlink:href="#DejaVuSans-440" transform="translate(1540.842831 0.981719)"/>
     <use xlink:href="#DejaVuSans-438" transform="translate(1604.319393 0.981719)"/>
     <use xlink:href="#DejaVuSans-20" transform="translate(1669.309628 0.981719)"/>
     <use xlink:href="#DejaVuSans-440" transform="translate(1701.096737 0.981719)"/>
     <use xlink:href="#DejaVuSans-430" transform="translate(1764.573299 0.981719)"/>
     <use xlink:href="#DejaVuSans-437" transform="translate(1825.852596 0.981719)"/>
     <use xlink:href="#DejaVuSans-43b" transform="translate(1879.026424 0.981719)"/>
     <use xlink:href="#DejaVuSans-438" transform="translate(1942.94244 0.981719)"/>
     <use xlink:href="#DejaVuSans-447" transform="translate(2007.932674 0.981719)"/>
     <use xlink:href="#DejaVuSans-43d" transform="translate(2067.014706 0.981719)"/>
     <use xlink:href="#DejaVuSans-44b" transform="translate(2132.395565 0.981719)"/>
     <use xlink:href="#DejaVuSans-445" transform="translate(2211.350643 0.981719)"/>
     <use xlink:href="#DejaVuSans-20" transform="translate(2270.530331 0.981719)"/>
     <use xlink:href="#DejaVuSans-Oblique-3b1" transform="translate(2302.31744 0.981719)"/>
     <use xlink:href="#DejaVuSans-20" transform="translate(2368.235409 0.981719)"/>
     <use xlink:href="#DejaVuSans-438" transform="translate(2400.022518 0.981719)"/>
     <use xlink:href="#DejaVuSans-20" transform="translate(2465.012753 0.981719)"/>
     <use xlink:href="#DejaVuSans-Oblique-3b2" transform="translate(2496.799862 0.981719)"/>
     <path d="M 1184.912109 19.778594 
L 1184.912109 26.028594 
L 1431.174862 26.028594 
L 1431.174862 19.778594 
L 1184.912109 19.778594 
z
"/>
    </g>
   </g>
   <g id="legend_1">
    <g id="patch_7">
     <path d="M 846.4 83.84 
L 996.8 83.84 
Q 1000 83.84 1000 80.64 
L 1000 11.2 
Q 1000 8 996.8 8 
L 846.4 8 
Q 843.2 8 843.2 11.2 
L 843.2 80.64 
Q 843.2 83.84 846.4 83.84 
z
" style="fill: #ffffff; opacity: 0.8; stroke: #cccccc; stroke-linejoin: miter"/>
    </g>
    <g id="line2d_19">
     <path d="M 849.6 21.12 
L 865.6 21.12 
L 881.6 21.12 
" style="fill: none; stroke: #1f77b4; stroke-width: 1.5; stroke-linecap: square"/>
    </g>
    <g id="text_19">
     <!-- $\alpha$=1, $\beta$=0.5 -->
     <g transform="translate(894.4 26.72) scale(0.16 -0.16)">
      <defs>
       <path id="DejaVuSans-2c" d="M 750 794 
L 1409 794 
L 1409 256 
L 897 -744 
L 494 -744 
L 750 256 
L 750 794 
z
" transform="scale(0.015625)"/>
       <path id="DejaVuSans-2e" d="M 684 794 
L 1344 794 
L 1344 0 
L 684 0 
L 684 794 
z
" transform="scale(0.015625)"/>
      </defs>
      <use xlink:href="#DejaVuSans-Oblique-3b1" transform="translate(0 0.390625)"/>
      <use xlink:href="#DejaVuSans-3d" transform="translate(65.917969 0.390625)"/>
      <use xlink:href="#DejaVuSans-31" transform="translate(149.707031 0.390625)"/>
      <use xlink:href="#DejaVuSans-2c" transform="translate(213.330078 0.390625)"/>
      <use xlink:href="#DejaVuSans-20" transform="translate(245.117188 0.390625)"/>
      <use xlink:href="#DejaVuSans-Oblique-3b2" transform="translate(276.904297 0.390625)"/>
      <use xlink:href="#DejaVuSans-3d" transform="translate(340.722656 0.390625)"/>
      <use xlink:href="#DejaVuSans-30" transform="translate(424.511719 0.390625)"/>
      <use xlink:href="#DejaVuSans-2e" transform="translate(488.134766 0.390625)"/>
      <use xlink:href="#DejaVuSans-35" transform="translate(519.921875 0.390625)"/>
     </g>
    </g>
    <g id="line2d_20">
     <path d="M 849.6 44.8 
L 865.6 44.8 
L 881.6 44.8 
" style="fill: none; stroke: #ff7f0e; stroke-width: 1.5; stroke-linecap: square"/>
    </g>
    <g id="text_20">
     <!-- $\alpha$=1, $\beta$=-0.5 -->
     <g transform="translate(894.4 50.4) scale(0.16 -0.16)">
      <defs>
       <path id="DejaVuSans-2d" d="M 313 2009 
L 1997 2009 
L 1997 1497 
L 313 1497 
L 313 2009 
z
" transform="scale(0.015625)"/>
      </defs>
      <use xlink:href="#DejaVuSans-Oblique-3b1" transform="translate(0 0.390625)"/>
      <use xlink:href="#DejaVuSans-3d" transform="translate(65.917969 0.390625)"/>
      <use xlink:href="#DejaVuSans-31" transform="translate(149.707031 0.390625)"/>
      <use xlink:href="#DejaVuSans-2c" transform="translate(213.330078 0.390625)"/>
      <use xlink:href="#DejaVuSans-20" transform="translate(245.117188 0.390625)"/>
      <use xlink:href="#DejaVuSans-Oblique-3b2" transform="translate(276.904297 0.390625)"/>
      <use xlink:href="#DejaVuSans-3d" transform="translate(340.722656 0.390625)"/>
      <use xlink:href="#DejaVuSans-2d" transform="translate(424.511719 0.390625)"/>
      <use xlink:href="#DejaVuSans-30" transform="translate(460.595703 0.390625)"/>
      <use xlink:href="#DejaVuSans-2e" transform="translate(524.21875 0.390625)"/>
      <use xlink:href="#DejaVuSans-35" transform="translate(556.005859 0.390625)"/>
     </g>
    </g>
    <g id="line2d_21">
     <path d="M 849.6 68.48 
L 865.6 68.48 
L 881.6 68.48 
" style="fill: none; stroke: #2ca02c; stroke-width: 1.5; stroke-linecap: square"/>
    </g>
    <g id="text_21">
     <!-- $\alpha$=1, $\beta$=-1.5 -->
     <g transform="translate(894.4 74.08) scale(0.16 -0.16)">
      <use xlink:href="#DejaVuSans-Oblique-3b1" transform="translate(0 0.390625)"/>
      <use xlink:href="#DejaVuSans-3d" transform="translate(65.917969 0.390625)"/>
      <use xlink:href="#DejaVuSans-31" transform="translate(149.707031 0.390625)"/>
      <use xlink:href="#DejaVuSans-2c" transform="translate(213.330078 0.390625)"/>
      <use xlink:href="#DejaVuSans-20" transform="translate(245.117188 0.390625)"/>
      <use xlink:href="#DejaVuSans-Oblique-3b2" transform="translate(276.904297 0.390625)"/>
      <use xlink:href="#DejaVuSans-3d" transform="translate(340.722656 0.390625)"/>
      <use xlink:href="#DejaVuSans-2d" transform="translate(424.511719 0.390625)"/>
      <use xlink:href="#DejaVuSans-31" transform="translate(460.595703 0.390625)"/>
      <use xlink:href="#DejaVuSans-2e" transform="translate(524.21875 0.390625)"/>
      <use xlink:href="#DejaVuSans-35" transform="translate(556.005859 0.390625)"/>
     </g>
    </g>
   </g>
  </g>
  <g id="axes_2">
   <g id="patch_8">
    <path d="M 504 360 
L 907.2 360 
L 907.2 144 
L 504 144 
z
" style="fill: #ffffff"/>
   </g>
   <g id="matplotlib.axis_3">
    <g id="xtick_10">
     <g id="line2d_22">
      <g>
       <use xlink:href="#me2c3bdc2d4" x="504" y="360" style="stroke: #000000; stroke-width: 0.8"/>
      </g>
     </g>
     <g id="text_22">
      <!-- −1 -->
      <g transform="translate(496.628906 374.598437) scale(0.1 -0.1)">
       <defs>
        <path id="DejaVuSans-2212" d="M 678 2272 
L 4684 2272 
L 4684 1741 
L 678 1741 
L 678 2272 
z
" transform="scale(0.015625)"/>
       </defs>
       <use xlink:href="#DejaVuSans-2212"/>
       <use xlink:href="#DejaVuSans-31" x="83.789062"/>
      </g>
     </g>
    </g>
    <g id="xtick_11">
     <g id="line2d_23">
      <g>
       <use xlink:href="#me2c3bdc2d4" x="561.6" y="360" style="stroke: #000000; stroke-width: 0.8"/>
      </g>
     </g>
     <g id="text_23">
      <!-- 0 -->
      <g transform="translate(558.41875 374.598437) scale(0.1 -0.1)">
       <use xlink:href="#DejaVuSans-30"/>
      </g>
     </g>
    </g>
    <g id="xtick_12">
     <g id="line2d_24">
      <g>
       <use xlink:href="#me2c3bdc2d4" x="619.2" y="360" style="stroke: #000000; stroke-width: 0.8"/>
      </g>
     </g>
     <g id="text_24">
      <!-- 1 -->
      <g transform="translate(616.01875 374.598437) scale(0.1 -0.1)">
       <use xlink:href="#DejaVuSans-31"/>
      </g>
     </g>
    </g>
    <g id="xtick_13">
     <g id="line2d_25">
      <g>
       <use xlink:href="#me2c3bdc2d4" x="676.8" y="360" style="stroke: #000000; stroke-width: 0.8"/>
      </g>
     </g>
     <g id="text_25">
      <!-- 2 -->
      <g transform="translate(673.61875 374.598437) scale(0.1 -0.1)">
       <use xlink:href="#DejaVuSans-32"/>
      </g>
     </g>
    </g>
    <g id="xtick_14">
     <g id="line2d_26">
      <g>
       <use xlink:href="#me2c3bdc2d4" x="734.4" y="360" style="stroke: #000000; stroke-width: 0.8"/>
      </g>
     </g>
     <g id="text_26">
      <!-- 3 -->
      <g transform="translate(731.21875 374.598437) scale(0.1 -0.1)">
       <use xlink:href="#DejaVuSans-33"/>
      </g>
     </g>
    </g>
    <g id="xtick_15">
     <g id="line2d_27">
      <g>
       <use xlink:href="#me2c3bdc2d4" x="792" y="360" style="stroke: #000000; stroke-width: 0.8"/>
      </g>
     </g>
     <g id="text_27">
      <!-- 4 -->
      <g transform="translate(788.81875 374.598437) scale(0.1 -0.1)">
       <use xlink:href="#DejaVuSans-34"/>
      </g>
     </g>
    </g>
    <g id="xtick_16">
     <g id="line2d_28">
      <g>
       <use xlink:href="#me2c3bdc2d4" x="849.6" y="360" style="stroke: #000000; stroke-width: 0.8"/>
      </g>
     </g>
     <g id="text_28">
      <!-- 5 -->
      <g transform="translate(846.41875 374.598437) scale(0.1 -0.1)">
       <use xlink:href="#DejaVuSans-35"/>
      </g>
     </g>
    </g>
    <g id="xtick_17">
     <g id="line2d_29">
      <g>
       <use xlink:href="#me2c3bdc2d4" x="907.2" y="360" style="stroke: #000000; stroke-width: 0.8"/>
      </g>
     </g>
     <g id="text_29">
      <!-- 6 -->
      <g transform="translate(904.01875 374.598437) scale(0.1 -0.1)">
       <use xlink:href="#DejaVuSans-36"/>
      </g>
     </g>
    </g>
    <g id="text_30">
     <!-- X -->
     <g transform="translate(701.49 389.79625) scale(0.12 -0.12)">
      <use xlink:href="#DejaVuSans-58"/>
     </g>
    </g>
   </g>
   <g id="matplotlib.axis_4">
    <g id="ytick_7">
     <g id="line2d_30">
      <g>
       <use xlink:href="#m1abf44d0ff" x="504" y="360" style="stroke: #000000; stroke-width: 0.8"/>
      </g>
     </g>
     <g id="text_31">
      <!-- 0 -->
      <g transform="translate(490.6375 363.799219) scale(0.1 -0.1)">
       <use xlink:href="#DejaVuSans-30"/>
      </g>
     </g>
    </g>
    <g id="ytick_8">
     <g id="line2d_31">
      <g>
       <use xlink:href="#m1abf44d0ff" x="504" y="324" style="stroke: #000000; stroke-width: 0.8"/>
      </g>
     </g>
     <g id="text_32">
      <!-- 1 -->
      <g transform="translate(490.6375 327.799219) scale(0.1 -0.1)">
       <use xlink:href="#DejaVuSans-31"/>
      </g>
     </g>
    </g>
    <g id="ytick_9">
     <g id="line2d_32">
      <g>
       <use xlink:href="#m1abf44d0ff" x="504" y="288" style="stroke: #000000; stroke-width: 0.8"/>
      </g>
     </g>
     <g id="text_33">
      <!-- 2 -->
      <g transform="translate(490.6375 291.799219) scale(0.1 -0.1)">
       <use xlink:href="#DejaVuSans-32"/>
      </g>
     </g>
    </g>
    <g id="ytick_10">
     <g id="line2d_33">
      <g>
       <use xlink:href="#m1abf44d0ff" x="504" y="252" style="stroke: #000000; stroke-width: 0.8"/>
      </g>
     </g>
     <g id="text_34">
      <!-- 3 -->
      <g transform="translate(490.6375 255.799219) scale(0.1 -0.1)">
       <use xlink:href="#DejaVuSans-33"/>
      </g>
     </g>
    </g>
    <g id="ytick_11">
     <g id="line2d_34">
      <g>
       <use xlink:href="#m1abf44d0ff" x="504" y="216" style="stroke: #000000; stroke-width: 0.8"/>
      </g>
     </g>
     <g id="text_35">
      <!-- 4 -->
      <g transform="translate(490.6375 219.799219) scale(0.1 -0.1)">
       <use xlink:href="#DejaVuSans-34"/>
      </g>
     </g>
    </g>
    <g id="ytick_12">
     <g id="line2d_35">
      <g>
       <use xlink:href="#m1abf44d0ff" x="504" y="180" style="stroke: #000000; stroke-width: 0.8"/>
      </g>
     </g>
     <g id="text_36">
      <!-- 5 -->
      <g transform="translate(490.6375 183.799219) scale(0.1 -0.1)">
       <use xlink:href="#DejaVuSans-35"/>
      </g>
     </g>
    </g>
    <g id="ytick_13">
     <g id="line2d_36">
      <g>
       <use xlink:href="#m1abf44d0ff" x="504" y="144" style="stroke: #000000; stroke-width: 0.8"/>
      </g>
     </g>
     <g id="text_37">
      <!-- 6 -->
      <g transform="translate(490.6375 147.799219) scale(0.1 -0.1)">
       <use xlink:href="#DejaVuSans-36"/>
      </g>
     </g>
    </g>
    <g id="text_38">
     <!-- f(X) -->
     <g transform="translate(484.141875 262.904063) rotate(-90) scale(0.12 -0.12)">
      <use xlink:href="#DejaVuSans-66"/>
      <use xlink:href="#DejaVuSans-28" x="35.205078"/>
      <use xlink:href="#DejaVuSans-58" x="74.21875"/>
      <use xlink:href="#DejaVuSans-29" x="142.724609"/>
     </g>
    </g>
   </g>
   <g id="line2d_37">
    <path d="M 567.36 210.158004 
L 573.12 243.501553 
L 578.88 258.273293 
L 584.64 267.079002 
L 590.4 273.088312 
L 596.16 277.5242 
L 601.92 280.97177 
L 607.68 283.750776 
L 613.44 286.052668 
L 619.2 288 
L 624.96 289.675347 
L 630.72 291.136647 
L 636.48 292.425911 
L 642.24 293.574447 
L 648 294.606123 
L 653.76 295.539501 
L 659.52 296.38926 
L 665.28 297.167184 
L 671.04 297.882855 
L 676.8 298.544156 
L 682.56 299.15764 
L 688.32 299.728805 
L 694.08 300.262303 
L 699.84 300.7621 
L 705.6 301.231601 
L 711.36 301.673748 
L 717.12 302.091098 
L 722.88 302.485885 
L 728.64 302.860072 
L 734.4 303.21539 
L 740.16 303.553374 
L 745.92 303.875388 
L 751.68 304.182652 
L 757.44 304.476259 
L 763.2 304.757191 
L 768.96 305.026334 
L 774.72 305.284491 
L 780.48 305.53239 
L 786.24 305.770691 
L 792 306 
L 797.76 306.220867 
L 803.52 306.433799 
L 809.28 306.639258 
L 815.04 306.837673 
L 820.8 307.029437 
L 826.56 307.214913 
L 832.32 307.394438 
L 838.08 307.568323 
L 843.84 307.736858 
L 849.6 307.900311 
L 855.36 308.058932 
L 861.12 308.212956 
L 866.88 308.362599 
L 872.64 308.508067 
L 878.4 308.649548 
L 884.16 308.787223 
L 889.92 308.921259 
L 895.68 309.051814 
L 901.44 309.179035 
L 907.2 309.303062 
L 912.96 309.424026 
" clip-path="url(#pe39526e002)" style="fill: none; stroke: #1f77b4; stroke-width: 1.5; stroke-linecap: square"/>
   </g>
   <g id="line2d_38">
    <path d="M 567.36 312.6158 
L 573.12 307.900311 
L 578.88 304.281988 
L 584.64 301.231601 
L 590.4 298.544156 
L 596.16 296.11452 
L 601.92 293.880239 
L 607.68 291.800621 
L 613.44 289.847401 
L 619.2 288 
L 624.96 286.242881 
L 630.72 284.563976 
L 636.48 282.953685 
L 642.24 281.404226 
L 648 279.909185 
L 653.76 278.463202 
L 659.52 277.061743 
L 665.28 275.700932 
L 671.04 274.377424 
L 676.8 273.088312 
L 682.56 271.831044 
L 688.32 270.603371 
L 694.08 269.403297 
L 699.84 268.22904 
L 705.6 267.079002 
L 711.36 265.951744 
L 717.12 264.845964 
L 722.88 263.760478 
L 728.64 262.694209 
L 734.4 261.646171 
L 740.16 260.615459 
L 745.92 259.601242 
L 751.68 258.602752 
L 757.44 257.61928 
L 763.2 256.650167 
L 768.96 255.694803 
L 774.72 254.752617 
L 780.48 253.823081 
L 786.24 252.905696 
L 792 252 
L 797.76 251.105556 
L 803.52 250.221954 
L 809.28 249.348811 
L 815.04 248.485763 
L 820.8 247.632468 
L 826.56 246.788602 
L 832.32 245.95386 
L 838.08 245.127952 
L 843.84 244.310603 
L 849.6 243.501553 
L 855.36 242.700554 
L 861.12 241.907369 
L 866.88 241.121776 
L 872.64 240.34356 
L 878.4 239.572516 
L 884.16 238.808451 
L 889.92 238.051178 
L 895.68 237.300519 
L 901.44 236.556304 
L 907.2 235.818369 
L 912.96 235.086559 
" clip-path="url(#pe39526e002)" style="fill: none; stroke: #ff7f0e; stroke-width: 1.5; stroke-linecap: square"/>
   </g>
   <g id="line2d_39">
    <path d="M 567.36 322.86158 
L 573.12 320.780062 
L 578.88 318.084596 
L 584.64 314.89264 
L 590.4 311.272078 
L 596.16 307.268712 
L 601.92 302.916167 
L 607.68 298.240497 
L 613.44 293.262661 
L 619.2 288 
L 624.96 282.46717 
L 630.72 276.676771 
L 636.48 270.63979 
L 642.24 264.365916 
L 648 257.863777 
L 653.76 251.141123 
L 659.52 244.204963 
L 665.28 237.061677 
L 671.04 229.717107 
L 676.8 222.176624 
L 682.56 214.445192 
L 688.32 206.527416 
L 694.08 198.427583 
L 699.84 190.149696 
L 705.6 181.697505 
L 711.36 173.074535 
L 717.12 164.284102 
L 722.88 155.329339 
L 728.64 146.213206 
L 734.4 136.938513 
L 740.16 127.507924 
L 745.92 117.923975 
L 751.68 108.189083 
L 757.44 98.305552 
L 763.2 88.275585 
L 768.96 78.101289 
L 774.72 67.784684 
L 780.48 57.327707 
L 786.24 46.732216 
L 792 36 
L 797.76 25.132779 
L 803.52 14.132209 
L 809.28 2.999888 
L 811.325664 -1 
" clip-path="url(#pe39526e002)" style="fill: none; stroke: #2ca02c; stroke-width: 1.5; stroke-linecap: square"/>
   </g>
   <g id="patch_9">
    <path d="M 504 360 
L 504 144 
" style="fill: none; stroke: #000000; stroke-width: 0.8; stroke-linejoin: miter; stroke-linecap: square"/>
   </g>
   <g id="patch_10">
    <path d="M 907.2 360 
L 907.2 144 
" style="fill: none; stroke: #000000; stroke-width: 0.8; stroke-linejoin: miter; stroke-linecap: square"/>
   </g>
   <g id="patch_11">
    <path d="M 504 360 
L 907.2 360 
" style="fill: none; stroke: #000000; stroke-width: 0.8; stroke-linejoin: miter; stroke-linecap: square"/>
   </g>
   <g id="patch_12">
    <path d="M 504 144 
L 907.2 144 
" style="fill: none; stroke: #000000; stroke-width: 0.8; stroke-linejoin: miter; stroke-linecap: square"/>
   </g>
   <g id="text_39">
    <!-- График функции f(x) при X$\subset$(-1, 6) -->
    <g transform="translate(538.65 138) scale(0.18 -0.18)">
     <defs>
      <path id="DejaVuSans-2282" d="M 4725 509 
L 2131 509 
Q 1500 509 1069 943 
Q 638 1378 638 2003 
Q 638 2622 1069 3063 
Q 1500 3497 2125 3497 
L 4725 3497 
L 4725 3028 
L 2125 3028 
Q 1700 3028 1403 2728 
Q 1106 2428 1106 2003 
Q 1106 1572 1400 1278 
Q 1700 978 2125 978 
L 4725 978 
L 4725 509 
z
" transform="scale(0.015625)"/>
     </defs>
     <use xlink:href="#DejaVuSans-413" transform="translate(0 0.015625)"/>
     <use xlink:href="#DejaVuSans-440" transform="translate(60.986328 0.015625)"/>
     <use xlink:href="#DejaVuSans-430" transform="translate(124.462891 0.015625)"/>
     <use xlink:href="#DejaVuSans-444" transform="translate(185.742188 0.015625)"/>
     <use xlink:href="#DejaVuSans-438" transform="translate(271.240234 0.015625)"/>
     <use xlink:href="#DejaVuSans-43a" transform="translate(336.230469 0.015625)"/>
     <use xlink:href="#DejaVuSans-20" transform="translate(396.630859 0.015625)"/>
     <use xlink:href="#DejaVuSans-444" transform="translate(428.417969 0.015625)"/>
     <use xlink:href="#DejaVuSans-443" transform="translate(513.916016 0.015625)"/>
     <use xlink:href="#DejaVuSans-43d" transform="translate(573.095703 0.015625)"/>
     <use xlink:href="#DejaVuSans-43a" transform="translate(638.476562 0.015625)"/>
     <use xlink:href="#DejaVuSans-446" transform="translate(698.876953 0.015625)"/>
     <use xlink:href="#DejaVuSans-438" transform="translate(766.943359 0.015625)"/>
     <use xlink:href="#DejaVuSans-438" transform="translate(831.933594 0.015625)"/>
     <use xlink:href="#DejaVuSans-20" transform="translate(896.923828 0.015625)"/>
     <use xlink:href="#DejaVuSans-66" transform="translate(928.710938 0.015625)"/>
     <use xlink:href="#DejaVuSans-28" transform="translate(963.916016 0.015625)"/>
     <use xlink:href="#DejaVuSans-78" transform="translate(1002.929688 0.015625)"/>
     <use xlink:href="#DejaVuSans-29" transform="translate(1062.109375 0.015625)"/>
     <use xlink:href="#DejaVuSans-20" transform="translate(1101.123047 0.015625)"/>
     <use xlink:href="#DejaVuSans-43f" transform="translate(1132.910156 0.015625)"/>
     <use xlink:href="#DejaVuSans-440" transform="translate(1198.291016 0.015625)"/>
     <use xlink:href="#DejaVuSans-438" transform="translate(1261.767578 0.015625)"/>
     <use xlink:href="#DejaVuSans-20" transform="translate(1326.757812 0.015625)"/>
     <use xlink:href="#DejaVuSans-58" transform="translate(1358.544922 0.015625)"/>
     <use xlink:href="#DejaVuSans-2282" transform="translate(1446.533203 0.015625)"/>
     <use xlink:href="#DejaVuSans-28" transform="translate(1549.804688 0.015625)"/>
     <use xlink:href="#DejaVuSans-2d" transform="translate(1588.818359 0.015625)"/>
     <use xlink:href="#DejaVuSans-31" transform="translate(1624.902344 0.015625)"/>
     <use xlink:href="#DejaVuSans-2c" transform="translate(1688.525391 0.015625)"/>
     <use xlink:href="#DejaVuSans-20" transform="translate(1720.3125 0.015625)"/>
     <use xlink:href="#DejaVuSans-36" transform="translate(1752.099609 0.015625)"/>
     <use xlink:href="#DejaVuSans-29" transform="translate(1815.722656 0.015625)"/>
    </g>
   </g>
  </g>
 </g>
 <defs>
  <clipPath id="p0f7ebc0961">
   <rect x="0" y="0" width="1008" height="720"/>
  </clipPath>
  <clipPath id="pe39526e002">
   <rect x="504" y="144" width="403.2" height="216"/>
  </clipPath>
 </defs>
</svg>
